<?xml version="1.0" encoding="UTF-8"?>
<!DOCTYPE svg PUBLIC "-//W3C//DTD SVG 1.1//EN" "http://www.w3.org/Graphics/SVG/1.1/DTD/svg11.dtd">
<!-- Creator: CorelDRAW X6 -->
<svg xmlns="http://www.w3.org/2000/svg" xml:space="preserve" width="509px" height="571px" version="1.1" style="shape-rendering:geometricPrecision; text-rendering:geometricPrecision; image-rendering:optimizeQuality; fill-rule:evenodd; clip-rule:evenodd"
viewBox="0 0 50900 57045"
 xmlns:xlink="http://www.w3.org/1999/xlink">
 <defs>
  <style type="text/css">
   <![CDATA[
    .fil0 {fill:black}
   ]]>
  </style>
 </defs>
 <g id="Layer_x0020_1">
  <metadata id="CorelCorpID_0Corel-Layer"/>
  <g id="_695569408">
   <polygon class="fil0" points="22632,2398 22872,2368 23112,2308 23292,2188 23472,2038 23621,1859 23741,1679 23801,1439 23831,1199 23801,959 23741,719 23621,540 23472,360 23292,210 23112,90 22872,30 22632,0 22392,30 22153,90 21973,210 21793,360 21643,540 21523,719 21463,959 21433,1199 21463,1439 21523,1679 21643,1859 21793,2038 21973,2188 22153,2308 22392,2368 "/>
   <polygon class="fil0" points="23741,5845 23681,6865 23561,9562 23352,13399 23142,17896 22932,22482 22782,26649 22722,29857 22752,31595 22932,32015 23382,32375 24011,32704 24850,33004 25840,33244 26919,33484 28118,33634 29347,33783 30606,33843 31865,33903 33094,33873 34263,33813 35312,33694 36212,33514 36961,33304 37531,33004 37890,32554 38100,31835 38160,30906 38070,29827 37890,28568 37590,27189 37201,25720 36781,24191 36271,22662 35762,21163 35192,19665 34653,18286 34113,16997 33604,15858 33154,14898 32734,14149 32315,13399 31775,12500 31146,11481 30456,10342 29707,9203 28957,8034 28178,6895 27398,5875 26649,4976 25960,4227 25300,3717 24761,3447 24311,3507 23981,3867 23771,4646 "/>
   <polygon class="fil0" points="8843,28178 9652,28687 10522,29167 11451,29587 12440,29946 13429,30246 14419,30516 15378,30726 16307,30936 17206,31086 18046,31205 18795,31295 19425,31385 19964,31415 20384,31445 20624,31475 20714,31475 20504,8933 20324,9113 19844,9652 19065,10462 18106,11511 16967,12800 15738,14239 14449,15798 13160,17446 11901,19125 10732,20774 9742,22392 8933,23921 8393,25300 8184,26499 8303,27458 "/>
   <polygon class="fil0" points="29017,35372 27968,35312 26949,35282 25960,35192 24970,35132 24041,35042 23112,34953 22213,34833 21313,34743 20414,34623 19515,34503 18615,34383 17686,34233 16757,34113 15828,33963 14838,33843 13849,33694 12860,33544 11811,33304 10702,33034 9562,32704 8393,32345 7254,31985 6115,31595 5036,31205 3987,30816 3058,30456 2188,30126 1439,29827 839,29587 390,29377 90,29257 0,29227 570,30186 989,31265 1319,32375 1589,33544 1829,34743 2068,35912 2338,37051 2668,38130 3088,39149 3627,40079 4347,40858 5216,41517 6325,41997 7674,42267 9323,42357 11271,42177 12740,41997 14149,41847 15468,41727 16727,41667 17896,41637 19035,41637 20084,41667 21073,41727 22033,41817 22932,41937 23771,42057 24581,42177 25330,42327 26050,42477 26739,42627 27398,42776 28028,42926 28628,43076 29197,43226 29767,43346 30306,43466 30846,43556 31385,43646 31895,43676 32435,43706 32944,43706 33484,43676 34023,43586 34563,43466 35132,43316 35702,43106 36301,42866 36931,42567 37560,42237 38190,41877 38819,41517 39479,41098 40108,40708 40738,40288 41338,39869 41907,39449 42477,39029 43016,38610 43496,38220 43945,37860 44365,37531 44755,37231 45055,36961 45384,36691 45744,36421 46104,36182 46493,35942 46853,35732 47243,35522 47633,35342 48022,35162 48412,35012 48802,34863 49191,34713 49551,34593 49911,34443 50270,34323 50600,34203 50900,34083 50360,34173 49791,34263 49191,34353 48562,34443 47872,34533 47183,34623 46434,34683 45684,34743 44935,34833 44125,34893 43346,34953 42537,34983 41727,35042 40888,35102 40079,35132 39269,35162 38460,35222 37650,35252 36841,35282 36092,35312 35312,35312 34593,35342 33873,35372 33184,35372 32524,35372 31895,35402 31295,35402 30756,35402 30246,35402 29797,35402 29377,35372 "/>
   <polygon class="fil0" points="32464,48442 31745,48322 31056,48232 30336,48112 29617,47992 28867,47902 28088,47782 27219,47663 26319,47513 25330,47393 24281,47243 23112,47093 21823,46943 20444,46763 18915,46583 17266,46404 15438,46194 13729,45984 12350,45774 11301,45564 10552,45384 10042,45204 9802,45025 9742,44845 9862,44695 10132,44575 10522,44425 11031,44335 11571,44245 12170,44155 12770,44095 13340,44065 13879,44065 14359,44065 14838,44065 15318,44095 15768,44095 16277,44125 16817,44185 17386,44245 18016,44305 18735,44365 19545,44485 20444,44575 21433,44725 22572,44875 23831,45055 25240,45264 26829,45474 28418,45714 29887,45894 31205,46044 32345,46164 33304,46254 34053,46314 34623,46314 34983,46254 35072,46164 34953,46044 34563,45834 33903,45594 32944,45294 31685,44965 30126,44545 28238,44065 27219,43826 26199,43616 25180,43436 24161,43286 23172,43166 22213,43076 21223,42986 20294,42926 19365,42896 18436,42896 17566,42866 16697,42896 15858,42926 15048,42956 14239,43016 13489,43076 12770,43136 12081,43196 11421,43286 10821,43376 10252,43436 9712,43526 9203,43616 8753,43676 8363,43766 8004,43826 7704,43886 7434,43945 7254,44005 7104,44035 7014,44065 6985,44065 6355,44755 5995,45324 5905,45834 6055,46224 6415,46553 6955,46823 7674,47003 8543,47153 9503,47273 10582,47333 11751,47393 12920,47423 14149,47453 15348,47483 16547,47543 17686,47603 18705,47693 19605,47752 20384,47842 21073,47902 21703,47992 22302,48052 22932,48142 23561,48232 24251,48352 25030,48472 25900,48592 26949,48712 28148,48862 29527,49041 31146,49221 33004,49431 34803,49611 36242,49791 37321,49911 38100,50031 38610,50121 38879,50181 38939,50241 38819,50270 38550,50300 38190,50300 37770,50300 37321,50300 36841,50300 36421,50270 36062,50270 35822,50270 35582,50270 35282,50300 34923,50300 34473,50330 33963,50360 33424,50390 32824,50450 32195,50480 31505,50510 30816,50570 30126,50600 29407,50630 28687,50660 27968,50660 27249,50690 26559,50690 25840,50690 25090,50720 24311,50720 23502,50750 22632,50810 21793,50840 20924,50900 20054,50960 19185,51020 18316,51080 17476,51140 16637,51230 15858,51290 15108,51380 14389,51440 13729,51530 13130,51619 12590,51679 12081,51769 11631,51859 11211,51949 10851,52039 10522,52159 10192,52309 9892,52459 9622,52639 9383,52848 9113,53088 8873,53358 8633,53628 8393,53988 8124,54347 7944,54737 7914,55097 8004,55426 8214,55726 8513,55996 8873,56236 9263,56446 9682,56626 10102,56775 10492,56895 10821,56985 11061,57045 11241,57045 11301,57045 11181,56985 10941,56895 10282,56685 9712,56446 9293,56146 9083,55846 9083,55456 9353,55037 9982,54527 10941,53928 11541,53628 12140,53388 12800,53148 13489,52968 14209,52789 15018,52639 15858,52549 16787,52429 17806,52369 18885,52309 20084,52249 21403,52219 22812,52189 24341,52159 25990,52129 27788,52099 29557,52069 31086,52009 32405,51949 33574,51859 34563,51799 35432,51679 36152,51589 36811,51470 37381,51350 37920,51230 38400,51110 38909,50990 39389,50870 39929,50750 40528,50660 41188,50540 41757,50420 42057,50330 42117,50181 41967,50061 41607,49941 41098,49791 40438,49641 39659,49491 38819,49371 37890,49221 36931,49071 35942,48922 35012,48802 34083,48682 33214,48562 "/>
  </g>
 </g>
</svg>
