<?xml version="1.0" encoding="UTF-8"?>
<!DOCTYPE svg PUBLIC "-//W3C//DTD SVG 1.1//EN" "http://www.w3.org/Graphics/SVG/1.1/DTD/svg11.dtd">
<!-- Creator: CorelDRAW X6 -->
<svg xmlns="http://www.w3.org/2000/svg" xml:space="preserve" width="30px" height="41px" version="1.1" style="shape-rendering:geometricPrecision; text-rendering:geometricPrecision; image-rendering:optimizeQuality; fill-rule:evenodd; clip-rule:evenodd"
viewBox="0 0 1238 1691"
 xmlns:xlink="http://www.w3.org/1999/xlink">
 <defs>
  <style type="text/css">
   <![CDATA[
    .str0 {stroke:black;stroke-width:22.2982}
    .fil0 {fill:white}
   ]]>
  </style>
 </defs>
 <g id="Layer_x0020_1">
  <metadata id="CorelCorpID_0Corel-Layer"/>
  <path class="fil0 str0" d="M433 1329l0 0 3 4 3 4 1 2 2 2 2 2 3 3 4 3 2 1 4 3 2 1 1 0 1 6 1 5 2 9 2 9 2 9 2 9 2 9 2 9 2 9 1 9 0 5 1 9 0 5 0 5 0 5 0 5 0 4 0 3 0 3 0 2 -1 3 -1 1 0 0 -1 1 -1 0 -1 0 -1 0 -1 0 -2 1 -2 0 -6 1 -8 1 -6 1 -6 1 -6 1 -6 1 -6 1 -6 1 -6 1 -5 0 -6 0 -5 0 -6 0 -8 -1 -3 -1 -3 -1 -3 -1 -3 -1 -6 -2 -3 -1 -5 -2 -5 -2 -4 -2 -5 -3 -9 -5 -9 -6 -9 -5 -4 -2 -5 -2 -5 -2 -5 -2 -2 -1 -2 -1 -2 -1 -2 0 -5 -1 -5 -1 -6 -1 -11 0 -8 0 -4 0 -4 0 -8 1 -4 0 -4 1 -4 1 -4 1 -4 1 -3 1 -3 1 -3 1 -3 2 -3 2 -3 2 -2 2 -2 2 -2 2 -1 2 -1 3 -1 3 0 3 0 3 0 3 1 3 1 2 1 2 1 2 2 2 2 2 2 2 2 1 2 1 3 1 3 1 3 1 6 1 3 0 3 0 6 0 3 0 3 0 9 0 5 0 5 -1 4 -1 6 -1 6 -1 6 -1 6 0 6 0 6 0 6 0 6 1 6 1 6 1 6 2 6 2 3 1 3 1 3 1 6 3 3 1 3 1 7 4 -10 0 -6 0 -7 0 -7 1 -8 1 -8 1 -8 1 -4 1 -4 1 -4 1 -4 1 -4 1 -4 1 -4 1 -3 1 -3 2 -3 2 -3 2 -3 2 -3 2 -2 2 -2 2 -2 2 -2 2 -1 2 -1 3 -1 3 0 3 0 3 0 3 0 4 1 4 1 4 1 4 1 4 2 4 2 4 2 4 2 3 2 3 2 3 2 3 3 3 3 3 3 2 3 2 3 2 3 1 3 1 3 1 3 0 3 0 3 0 3 -1 3 -1 3 -2 3 -3 1 -2 0 -1 0 -1 0 -1 0 -1 0 -1 0 -2 0 -5 0 -2 0 -3 0 -3 0 -3 0 -3 0 -3 0 -1 1 -3 1 -2 1 -1 1 -1 1 -1 1 -1 1 -1 1 -1 1 -1 2 -1 2 -1 3 -2 4 -2 4 -2 4 -2 8 -3 8 -2 7 -2 6 -2 10 -4 10 -4 10 -4 10 -3 5 -1 5 -1 5 -1 5 -1 5 -1 5 -1 5 -1 6 -1 1 3 1 3 0 3 0 3 0 3 0 3 -1 7 -2 7 -2 8 -1 4 -1 4 -1 4 0 4 0 4 0 3 0 3 0 3 1 3 1 2 1 2 2 2 2 1 2 1 3 1 3 0 4 0 5 0 5 -1 6 -1 6 -2 5 -2 4 -2 3 -2 3 -2 2 -2 2 -3 1 -3 0 -3 0 -3 0 -3 -1 -3 -1 -3 -1 -3 -2 -3 -2 -3 -4 -7 -4 -7 -2 -3 -2 -3 -2 -3 -2 -3 -1 -3 -1 -3 -1 -3 -1 -3 0 -3 0 -3 1 -3 1 -3 2 -2 1 -1 1 -1 1 -1 4 -2 6 -2 6 -3 3 -1 3 -2 1 -1 1 -1 2 -2 1 -1 1 -1 1 -1 0 -1 0 -1 0 -2 0 -2 0 -2 0 -1 0 -1 0 -1 0 -1 -1 -2 -1 -2 -2 -3 -2 -3 -2 -3 -2 -3 -2 -3 -5 -6 -2 -3 -2 -3 -2 -3 -1 -3 -1 -1 0 -1 -1 -3 -1 -7 -1 -4 0 -4 -1 -4 -1 -8 0 -4 0 -4 0 -8 0 -9 0 -9 1 -9 0 -4 0 -4 1 -8 1 -4 1 -4 1 -2 2 0 2 -1 4 -1 2 -1 2 -1 2 -1 2 -1 2 -1 2 -1 2 -1 2 -1 3 -3 4 -4 1 -1 6 0 20 0 20 -1 20 -2 20 -4 10 -2 1 1 2 2 2 2 2 2 3 2 3 1 3 1 3 1 3 1 3 1 3 1 3 1 3 0 7 0 3 0 7 0 3 0 2 0 1 1 10 10 3 3 4 3 7 6 15 13 7 6 7 6 7 6 7 7 6 7 6 7 3 4 3 4 5 7 3 5 1 2 1 2 0 1 0 1 0 2 -1 2 0 1 0 1 -1 2 -2 2 -4 4 -5 6 -9 10 -4 5 -4 4 -4 4 -4 4 -4 4 -4 4 -2 2 -2 2 -2 2 -2 2 -5 3 -5 3 -5 3 -3 1 -3 1 -3 1 -3 1 -3 1 -9 1 -5 1 -5 0 -5 1 -20 1 -5 0 -10 1 -5 1 -2 0 -2 1 -2 1 -5 1 -2 1 -2 1 -2 1 -4 2 -5 3 -5 3 -6 4 -3 2 -6 5 -3 3 -3 3 -3 3 -3 3 -3 3 -3 3 -3 3 -2 3 -2 3 -2 3 -2 3 -2 3 -1 3 -1 3 -1 3 -1 3 0 3 0 3 0 3 1 3 1 3 2 3 2 3 2 2 2 2 2 1 2 1 2 1 2 1 2 0 3 0 3 0 3 0 3 -1 3 -1 5 -2 3 -1 3 -1 3 -2 3 -2 3 -2 2 -2 2 -2 2 -2 4 -4 4 -3 3 -3 3 -3 4 -4 4 -4 5 -4 5 -4 5 -4 5 -3 5 -3 5 -3 3 -1 3 -2 3 -1 5 -2 3 -1 3 -1 3 -1 3 -1 3 -1 3 -1 3 -1 3 -1 3 -1 3 0 8 -1 -8 6 -5 4 -5 4 -5 5 -5 5 -5 6 -3 3 -3 3 -3 3 -2 3 -2 3 -2 3 -2 3 -2 3 -2 3 -2 3 -2 3 -1 3 -1 3 -1 3 -1 3 -1 3 0 3 0 3 0 3 0 3 1 3 1 3 1 3 2 3 2 3 2 3 3 2 3 2 3 2 3 2 3 2 4 2 4 2 4 2 4 1 4 1 4 1 4 1 4 0 4 0 4 0 3 0 3 -1 3 -1 3 -1 2 -1 2 -2 2 -2 2 -2 1 -3 1 -3 1 -4 0 -2 0 -1 0 -2 -1 -1 0 -1 0 -1 -1 -2 -1 -2 -3 -4 -2 -2 -3 -4 -1 -2 -1 -1 -1 -1 -1 -1 -1 -1 0 -1 0 -1 0 -1 0 -1 0 -3 1 -3 0 -2 1 -2 1 -2 1 -2 2 -3 2 -4 2 -4 2 -4 5 -7 9 -12 3 -5 6 -9 6 -9 6 -9 6 -9 3 -4 3 -4 3 -4 7 -8 3 -4 3 -4 4 -4 3 2 2 2 2 2 2 2 2 3 2 3 2 3 2 3 3 7 3 7 2 3 2 3 2 3 2 3 2 3 2 3 2 2 2 2 2 2 2 1 2 1 2 1 2 0 3 -1 3 -1 3 -2 3 -2 3 -3 4 -4 4 -5 3 -5 3 -5 2 -4 1 -4 1 -3 0 -3 0 -3 -1 -3 -1 -2 -2 -2 -2 -2 -2 -2 -3 -2 -3 -2 -3 -2 -3 -2 -7 -3 -11 -4 -3 -1 -3 -1 -3 -2 -3 -2 -3 -2 -3 -2 -2 -2 -2 -2 -1 -2 -1 -3 -1 -3 0 -1 0 -1 0 -1 0 -1 1 -1 1 -1 1 -2 1 -1 7 -12 2 -3 1 -3 1 -2 1 -3 0 -1 0 -2 0 -1 0 -1 0 -1 -1 -1 -1 -1 -2 -3 0 0 -1 -1 -2 -1 -2 -1 -3 -1 -3 -1 -3 -1 -3 -1 -4 -1 -11 -3 -3 -1 -3 -1 -4 -2 -1 -1 -1 -1 -1 -1 -3 -2 -5 -5 -3 -3 -5 -5 -3 -3 -3 -3 -3 -3 -5 -6 -5 -7 -3 -3 -2 -4 -2 -4 -3 -4 -2 -4 -2 -4 -2 -4 -2 -4 -2 -4 -2 -4 -1 -3 1 -1 3 -2 3 -2 3 -2 2 -2 2 -2 2 -2 2 -2 1 -2 1 -2 1 -3 1 -3 1 -5 0 -3 0 -3 0 -3 0 -6 0 -6 2 -1 17 -11 16 -11 16 -12 12 -10 4 -1 4 -2 4 -2 4 -2 4 -2 4 -3 4 -3 4 -3 4 -3 4 -3 4 -3 7 -7 6 -7 6 -7 3 -3 2 -3 2 -3 2 -3 2 -3 2 -3 1 -3 1 -3 -2 1 -5 3 -3 1 -3 1 -1 1 7 -10 2 -3 2 -1 6 -3 6 -3 3 -2 6 -3 3 -2 5 -4 3 -2 3 -2 3 -2 2 -2 5 -5 2 -2 4 -5 2 -3 3 -5 3 -4 1 -2 1 -2 1 -3 0 -1 0 -1 0 -1 0 -1 0 -2 0 -1 0 -1 -1 -1 -1 -1 -2 -1 -1 0 -1 0 -2 0 -2 0 -4 0 -4 0 -5 0 -5 0 -3 4 1 -1 7 -19 6 -19 5 -20 4 -19 4 1 5 1 4 1 5 1 4 0 4 0 4 0 4 -1 4 -1 4 -1 3 -1 -3 1 3 -1 4 -2 4 -3 4 -3 2 -2 2 -2 1 -2 3 -4 1 -2 1 -2 2 -4 1 -2 1 -2 1 -2 1 -5 0 -2 0 -2 0 -5 0 -2 0 -2 0 -2 -1 -5 0 -2 -1 -5 -1 -2 -1 -2 -1 -2 -1 -2 -4 -7 -4 -7 -2 -4 -2 -3 -1 -2 -1 -3 0 -2 0 -2 0 -1 0 -1 0 -1 1 -1 1 -1 1 -1 1 -1 2 -1 2 -1 2 -1 2 -1 2 -1 3 -1 3 0 4 0 9 0 9 -1 5 0 5 -1 5 -1 4 -1 4 -1 4 -1 4 -1 4 -2 2 -1 2 -1 2 -1 2 -1 2 -1 2 -1 2 -1 2 -1 2 -2 2 -2 2 -2 2 -2 2 -2 1 -2 1 -2 1 -2 1 -2 2 -5 1 -3 1 -2 0 -3 0 -3 0 -3 0 -2 0 -3 0 -2 0 -2 -1 -2 -1 -2 -1 -2 -2 -4 -1 -2 -3 -4 -2 -2 -2 -2 -2 -1 -2 -1 -6 -3 -3 -2 -3 -2 -4 -2 -7 -3 -4 -1 -3 -1 3 -2 6 -5 6 -5 6 -5 6 -5 6 -5 6 -5 5 -5 6 -5 5 -6 8 -8 16 -17 8 -9 8 -9 8 -9 7 -9 13 -17 7 -9 4 -5 4 -5 4 -5 4 -6 4 -6 4 -6 4 -6 4 -6 4 -6 3 -7 3 -7 3 -7 3 -7 3 -7 2 -7 2 -7 2 -7 1 -7 1 -7 1 -6 0 -6 0 -6 -1 -6 -1 -6 -2 -5 -2 -5 -3 -5 -3 -5 -2 -3 -2 -2 -3 -2 -3 -2 -3 -1 -3 -1 -3 -1 -3 -1 -3 -1 -3 0 -4 0 -4 0 -4 0 -4 0 -4 1 -4 1 -7 2 -4 1 -4 1 -7 3 -3 1 -7 3 -6 4 -3 2 -3 2 -3 2 -3 2 -2 2 -5 4 -5 4 -1 1 0 -1 1 -5 1 -5 0 -5 0 -5 0 -11 0 -5 0 -5 0 -5 -1 -5 -1 -5 -1 -5 -1 -5 -1 -5 -2 -5 -2 -5 -2 -5 -2 -5 -3 -5 -3 -5 -2 -3 -2 -3 -4 -6 -2 -3 -2 -3 -3 -2 -3 -2 -3 -2 -3 -2 -3 -2 -3 -2 -3 -2 -3 -1 -3 -1 -3 -1 -3 -1 -3 0 -3 0 -3 0 -3 0 -3 0 -3 1 -3 1 -3 1 -3 1 -3 2 -3 2 -3 2 -3 3 -3 3 -3 3 -4 6 -4 6 -3 4 -2 -1 -2 -1 -2 -1 -3 -1 -3 0 -3 0 -3 0 -3 1 -3 1 -3 1 -3 1 -3 2 -3 2 -3 2 -3 2 -3 2 -3 2 -3 2 -3 3 -3 3 -3 3 0 0 -3 -12 -2 -7 -2 -7 -2 -7 -2 -7 -3 -7 -2 -6 -3 -5 -3 -5 -3 -4 -3 -4 -3 -3 -3 -3 -3 -2 -3 -2 -3 -1 -3 -1 -3 -1 -3 0 -3 0 -3 0 -3 1 -3 1 -3 1 -3 2 -3 2 -3 2 -3 3 -3 3 -3 3 -3 4 -3 4 -3 4 -2 4 -2 4 -2 5 -2 5 -2 5 -1 4 -1 5 -1 4 -3 14 -2 9 -2 9 -1 9 -1 9 -1 9 -1 9 -1 9 -1 19 -1 19 0 19 0 10 0 34 -3 4 -9 13 -8 13 -8 13 0 0 0 0 -3 5 -3 4 -3 4 -3 5 -4 5 -4 5 -4 5 -4 5 0 0 -3 4 0 0 -2 2 -1 1 -3 3 -5 6 -4 4 -8 8 -8 8 -4 4 -8 8 -4 4 -5 4 -6 5 -7 5 -4 3 -4 3 -4 3 -3 2 -5 3 -5 3 -5 3 -5 2 -2 1 -7 3 -7 3 -4 1 -3 1 -3 1 -4 1 -1 0 -5 1 -3 1 -1 0 -1 -1 -6 -6 -3 -3 -3 -3 -2 -3 -2 -3 -2 -3 -2 -3 0 0 3 0 3 0 4 0 4 0 3 0 3 -1 3 -1 3 -1 3 -1 3 -1 3 -1 3 -2 3 -2 3 -2 3 -2 3 -2 3 -2 3 -2 2 -2 0 0 1 -1 1 -1 2 -2 0 0 2 -2 1 -1 2 -3 0 0 0 0 2 -3 2 -3 3 -5 1 -2 1 -3 1 -2 1 -2 1 -2 1 -2 1 -2 1 -2 1 -2 1 -2 1 -5 1 -5 1 -5 0 -5 0 -5 0 -5 0 -5 0 -5 -1 -11 -1 -7 -2 -9 -1 -4 -1 -5 -1 -5 -1 -5 -1 -5 -2 -5 -2 -5 -2 -5 -2 -5 -4 -10 -2 -4 -1 -2 3 -1 11 -2 4 -1 4 -1 4 -2 4 -2 1 -1 1 0 3 2 3 3 3 3 2 3 2 3 2 3 2 3 2 3 2 3 1 2 0 0 1 -2 1 -2 1 -2 1 -2 1 -2 1 -2 0 -2 1 -5 0 -2 0 -2 0 -2 0 -2 0 -2 -3 -8 6 7 2 2 2 3 2 3 2 3 2 3 3 3 1 -1 1 -2 1 -3 1 -3 1 -3 1 -3 0 -3 0 -3 0 -3 0 -3 0 -3 0 -1 0 -1 0 -1 0 -1 0 -1 -1 -1 -1 -1 -1 -1 -1 -1 -5 -5 7 3 2 1 2 1 2 1 3 2 3 2 3 2 3 2 3 2 2 1 0 -5 0 -10 0 -6 0 -3 -1 -3 -1 -3 -1 -3 -1 -3 -1 -3 -2 -3 -2 -3 -4 -5 6 0 3 0 3 0 6 1 3 1 3 1 0 0 -1 -5 -2 -8 -1 -4 -1 -4 -1 -4 -1 -2 -1 -2 -1 -2 -1 -2 -1 -1 -1 -1 -1 -1 -3 -2 -1 -1 -1 -1 -1 0 0 -10 0 -12 -1 -12 -2 -12 -2 -12 -3 -12 -3 -12 -4 -12 -5 -11 -5 -11 -3 -5 9 11 3 3 2 2 2 2 5 4 5 3 5 3 5 2 5 1 5 1 5 0 5 0 4 -1 4 -1 4 -2 4 -2 4 -2 3 -3 3 -3 3 -3 3 -3 2 -3 2 -4 1 -4 1 -4 1 -4 0 -3 0 -3 0 -3 -1 -3 -1 -3 -2 -3 -2 -2 -3 -2 -3 -2 -3 -1 0 0 -2 -1 1 -2 0 0 0 0 1 0 3 1 3 1 3 0 3 0 0 0 0 0 3 0 3 0 0 0 1 0 0 0 0 0 3 -1 0 0 1 0 1 0 0 0 0 0 1 0 1 0 0 0 2 -1 1 0 0 0 0 0 1 -1 1 -1 0 0 0 0 1 -1 2 -2 2 -2 0 0 0 -1 1 -1 0 0 1 -2 1 -3 1 -3 1 -3 2 -6 1 -3 0 -3 0 -3 0 -3 0 -3 0 -3 0 -1 0 -1 0 0 0 -1 0 -3 0 -3 -1 -3 -1 -4 -1 -3 -1 -3 -1 -3 -1 -3 -1 -2 -1 -2 -2 -2 -2 -2 -2 -1 -2 -1 -2 -1 -2 -1 -2 -1 -2 -1 -2 0 -2 0 -5 0 -2 0 -5 0 -3 0 -3 0 -11 2 -12 2 -4 1 -4 0 -3 0 -3 0 -3 0 -4 0 -3 -1 -1 0 -1 -1 -1 -1 0 -1 -1 -1 0 -2 0 -1 0 -1 0 -1 0 -1 0 -1 1 -1 1 -1 2 -2 2 -2 2 -2 3 -2 3 -3 3 -2 4 -3 4 -3 9 -6 4 -3 4 -3 2 -2 2 -2 2 -2 2 -2 2 -2 2 -2 1 -2 1 -2 1 -2 1 -2 2 -4 1 -2 1 -2 0 -2 0 -2 0 -2 0 -3 0 -3 0 -3 -1 -3 -1 -3 -1 -3 -1 -3 -2 -4 -2 -3 -2 -3 -2 -3 -2 -3 -2 -2 -2 -2 -2 -2 -2 -2 -3 -2 -3 -1 -3 -1 -3 -1 -3 -1 -3 -1 -3 0 -3 0 -3 0 -3 0 -3 0 -3 1 -3 1 -3 1 -3 1 -3 1 -3 1 -3 2 -3 2 -6 4 -3 2 -3 2 -1 1 -1 2 -1 2 -3 5 -1 3 -3 7 -3 7 -3 8 -7 17 -3 8 -3 8 -3 7 -3 6 -2 5 -2 4 -1 2 -1 1 -1 1 -1 0 -4 -1 -3 -2 -3 -2 -3 -3 -3 -3 -3 -4 -3 -4 -2 -4 -2 -5 -2 -5 -2 -5 -2 -5 -2 -5 -2 -5 -2 -6 -8 -29 -2 -6 -2 -6 -2 -5 -2 -5 -2 -5 -2 -5 -2 -5 -2 -4 -2 -4 -2 -4 -2 -4 -3 -3 -4 -4 -4 -4 -5 -4 -5 -3 -5 -3 -5 -3 -6 -2 -6 -2 -6 -2 -6 -2 -6 -1 -6 -1 -6 -1 -6 0 -6 0 -6 0 -6 1 -6 1 -6 1 -6 2 -6 2 -6 2 -5 3 -5 3 -5 4 -5 4 -4 4 -4 5 -1 2 -2 2 -2 3 -2 4 -1 3 -2 3 -3 6 -4 12 -2 11 -1 10 1 9 2 9 3 8 4 7 5 7 6 6 7 6 8 6 8 5 8 5 9 5 9 5 9 4 19 8 19 8 9 4 9 4 8 5 7 5 7 5 6 6 5 6 4 7 3 7 1 4 -1 0 -11 2 -12 4 -7 3 -7 3 -6 3 -1 0 -2 0 -3 0 -4 0 -2 0 -4 0 -2 0 -2 0 -4 1 -3 1 -3 1 -3 1 -3 1 -3 2 -3 2 -3 2 -3 2 0 0 3 0 3 0 3 0 3 1 5 1 2 1 3 2 -3 3 -5 1 -7 3 -3 1 -3 2 -3 2 -3 2 -3 2 -3 2 -3 2 -3 2 -3 2 -6 5 -1 1 1 0 3 1 3 0 3 0 2 0 5 0 2 0 -3 3 -2 3 -4 2 -4 2 -4 2 -4 2 -3 2 -2 1 -2 1 -1 1 -2 1 -3 3 -1 1 -2 3 -2 3 -1 2 -1 2 0 2 0 2 0 1 1 0 1 1 1 0 1 0 1 0 1 0 3 0 1 0 -3 6 -4 8 -1 3 -9 -1 -5 -1 -10 0 -5 0 -2 0 -2 0 -2 0 -2 0 -2 1 -2 1 -2 1 -2 1 -2 1 -2 1 -2 2 -2 2 -2 2 -2 2 -2 2 0 1 3 0 5 0 6 0 3 0 5 0 3 0 3 1 3 1 2 1 2 1 2 2 1 1 3 3 -6 1 -2 0 -1 0 -2 1 -1 1 -1 1 -3 2 -1 1 -2 2 -2 2 -2 3 -2 3 -2 3 -4 6 -4 6 -2 3 2 0 4 -1 4 -1 13 -5 4 -1 -1 2 -1 4 0 0 -2 1 -3 3 -1 2 -3 3 -1 2 -2 4 -1 2 -2 4 -1 2 -1 2 -1 2 -1 2 -1 2 -1 2 -1 6 0 2 0 4 0 4 7 -5 9 -7 4 -3 2 -2 1 2 -1 2 -4 8 -4 9 -4 9 -3 9 -3 9 -3 9 -3 9 -2 9 -2 9 -2 9 -1 6 -1 1 -2 2 -5 4 -5 5 -3 3 -1 -2 -3 -8 -6 -17 -3 -8 -3 -8 -7 -16 -4 -8 -8 -17 -19 -42 -4 -8 -12 -25 -8 -17 -4 -9 -9 -17 -4 -9 -3 -5 -3 -6 -4 -7 -4 -7 -2 -4 -2 -4 -2 -4 -2 -4 -3 -4 -2 -3 -5 -7 -3 -3 -3 -3 -3 -3 -3 -3 -3 -2 -3 -2 -3 -2 -3 -1 -3 -1 -3 -1 -3 0 -4 0 -4 0 -4 1 -4 1 -4 2 -3 2 -3 2 -3 2 -2 2 -2 3 -2 3 -2 3 -2 3 -1 3 -1 3 -1 3 -1 3 -1 4 -1 3 0 4 0 4 0 4 0 4 0 4 0 8 0 7 0 4 1 7 1 7 1 6 2 14 1 8 1 8 2 8 4 15 4 15 5 15 5 15 5 15 3 7 3 7 0 0 4 9 0 1 2 4 3 7 3 7 3 7 7 13 3 7 4 6 3 6 0 0 1 2 -2 1 -1 -1 0 -1 -4 -4 -6 -5 -6 -5 -6 -5 -7 -5 -7 -5 -7 -5 -7 -5 -8 -5 -3 -2 -1 -1 -1 0 -3 -2 -8 -4 -8 -4 -4 -2 -1 -1 -1 -1 -2 -1 -8 -4 -8 -3 -8 -3 -3 -1 0 0 0 0 -4 -2 -1 0 0 0 -6 -2 -6 -2 -5 -2 -1 0 -2 -1 -7 -2 -3 -1 -3 -1 -5 -1 -1 0 -1 0 -1 0 -1 0 -1 0 -2 0 -5 0 0 0 -7 0 -6 1 -6 1 -5 2 -5 2 -4 2 -4 2 -4 3 -3 3 -3 3 -3 3 -2 4 -2 4 -1 4 -1 4 -1 4 0 4 0 4 0 4 1 5 1 4 1 4 1 4 2 4 2 4 2 4 3 4 3 4 3 4 3 3 4 3 4 3 20 15 9 6 8 6 14 11 7 5 6 5 6 4 6 4 7 4 7 5 8 5 8 5 9 5 8 5 1 1 2 2 -1 2 -4 -2 -2 0 -2 0 -2 0 -3 0 -3 0 -6 0 -3 1 -4 0 -4 1 -4 1 -4 1 -4 1 -4 1 -4 1 -4 1 -4 1 -4 1 -4 1 -3 2 -3 1 -3 2 -3 2 -3 2 -3 2 -2 2 -2 2 -2 2 -2 2 -1 2 -2 5 -2 4 -1 4 0 4 1 4 1 4 2 3 3 3 3 3 4 3 4 3 5 3 5 2 5 2 6 2 6 2 6 2 12 3 6 1 6 1 6 1 6 1 6 1 11 2 10 2 8 2 7 1 1 0 0 2 -2 2 -1 1 -4 3 -5 3 -5 3 -5 3 -3 2 -1 1 -2 1 -4 3 -3 4 -2 2 -2 2 -1 2 -3 4 -1 2 -2 5 -1 2 -1 5 -1 8 0 7 1 6 2 6 4 5 5 5 6 4 7 4 8 3 8 2 9 2 10 1 10 1 11 1 11 0 7 0 -1 1 -5 8 -5 8 -3 6 -3 5 -2 5 -2 4 -1 4 -1 3 0 3 0 2 0 2 1 2 1 1 1 1 -4 7 -5 11 -5 11 -4 11 -4 11 -4 11 -3 11 -3 11 -2 11 0 2 -2 -5 -3 5 -4 7 -4 7 -3 7 -3 6 -3 6 -1 3 -2 6 -1 3 -1 3 -2 7 -1 3 -1 7 -1 3 -1 7 0 4 0 8 0 4 0 8 0 3 3 -1 5 -2 10 -5 5 -2 5 -2 3 -1 2 -1 2 -1 1 0 1 5 1 2 -1 5 -1 5 -1 5 0 5 0 5 0 5 0 5 0 5 0 5 1 5 0 2 1 5 1 2 1 2 1 2 1 2 2 5 0 1 1 -1 2 -2 2 -2 5 -7 3 -5 2 -2 1 2 5 8 5 8 5 7 6 7 6 7 6 7 6 6 7 6 7 6 7 6 7 6 8 5 8 5 8 5 8 5 8 5 8 4 8 4 9 4 8 4 9 4 9 3 9 3 9 3 9 3 9 3 9 3 9 2 9 2 1 0zm82 -739l-16 23 -6 9 -6 9 -6 9 -6 9 -6 9 -3 3 -3 4 -3 3 -3 3 -3 3 -7 6 -3 3 -7 6 -2 1 -1 -1 -1 -1 1 -1 4 -3 4 -4 3 -4 3 -4 2 -5 2 -5 2 -5 1 -6 1 -5 0 -1 0 -1 1 -5 1 -6 0 -6 0 -13 0 -7 0 0 7 -2 9 -2 9 -3 9 -3 9 -3 9 -3 5 -2z"/>
 </g>
</svg>
