<?xml version="1.0" encoding="UTF-8"?>
<!DOCTYPE svg PUBLIC "-//W3C//DTD SVG 1.1//EN" "http://www.w3.org/Graphics/SVG/1.1/DTD/svg11.dtd">
<!-- Creator: CorelDRAW X6 -->
<svg xmlns="http://www.w3.org/2000/svg" xml:space="preserve" width="30px" height="41px" version="1.1" style="shape-rendering:geometricPrecision; text-rendering:geometricPrecision; image-rendering:optimizeQuality; fill-rule:evenodd; clip-rule:evenodd"
viewBox="0 0 571 784"
 xmlns:xlink="http://www.w3.org/1999/xlink">
 <defs>
  <style type="text/css">
   <![CDATA[
    .fil0 {fill:#E6E6E6}
   ]]>
  </style>
 </defs>
 <g id="Layer_x0020_1">
  <metadata id="CorelCorpID_0Corel-Layer"/>
  <path class="fil0" d="M198 619l0 0 1 2 1 2 1 1 1 1 1 1 2 2 2 1 1 1 2 1 1 1 0 0 0 3 0 2 1 4 1 4 1 4 1 4 1 4 1 4 1 4 1 4 0 2 0 4 0 2 0 2 0 2 0 2 0 2 0 2 0 1 0 1 0 1 0 0 0 0 0 0 0 0 0 0 0 0 0 0 -1 0 -1 0 -3 0 -4 1 -3 0 -3 0 -3 0 -3 0 -3 0 -3 0 -3 0 -3 0 -3 0 -3 0 -3 0 -4 -1 -1 0 -1 0 -1 0 -1 0 -3 -1 -1 -1 -2 -1 -2 -1 -2 -1 -2 -1 -4 -3 -4 -3 -4 -2 -2 -1 -2 -1 -2 -1 -2 -1 -1 0 -1 0 -1 0 -1 0 -2 0 -3 0 -3 0 -5 0 -4 0 -2 0 -2 0 -4 0 -2 0 -2 0 -2 0 -2 0 -2 1 -2 1 -2 1 -1 1 -1 1 -1 1 -1 1 -1 1 -1 1 -1 1 -1 1 0 1 0 1 0 2 0 2 0 1 0 1 0 1 1 1 1 1 1 1 1 1 1 1 1 1 1 1 1 1 1 0 1 0 3 1 1 0 1 0 3 0 1 0 1 0 4 0 2 0 2 0 2 0 3 0 3 0 3 0 3 0 3 0 3 0 3 0 3 0 3 0 3 1 3 1 3 1 1 0 1 0 1 1 3 1 1 1 1 1 3 2 -5 0 -3 0 -3 0 -3 0 -4 1 -4 1 -4 1 -2 0 -2 0 -2 0 -2 1 -2 1 -2 1 -2 1 -2 1 -2 1 -1 1 -1 1 -1 1 -1 1 -1 1 -1 1 -1 1 -1 1 -1 1 0 1 0 1 0 1 0 1 0 2 0 2 0 2 0 2 1 2 1 2 1 2 1 2 1 2 1 2 1 2 1 1 1 1 1 1 1 1 1 1 1 1 1 1 1 1 1 1 1 0 1 0 1 0 1 0 1 0 1 -1 1 -1 2 -2 1 -1 0 0 0 0 0 0 0 -1 0 -1 0 -1 0 -2 0 -1 0 -1 0 -1 0 -1 0 -1 0 -1 0 -1 0 -1 0 -1 0 -1 0 -1 1 -1 1 -1 1 0 1 -1 1 0 1 0 1 0 2 -1 2 -1 2 -1 2 -1 4 -1 4 -1 3 -1 3 -1 5 -2 5 -2 5 -2 5 -2 2 -1 2 -1 2 -1 2 -1 2 -1 2 0 2 0 3 0 1 1 0 1 0 1 0 1 0 1 0 2 -1 3 -1 4 -1 4 0 2 0 2 0 2 0 2 0 2 0 2 0 1 0 1 0 1 0 1 1 1 1 1 1 1 1 1 1 0 2 0 2 0 2 0 2 0 3 -1 3 -1 2 -1 2 -1 2 -1 1 -1 1 -1 1 -1 0 -1 0 -1 0 -1 0 -1 0 -1 0 -1 -1 -1 -1 -2 -1 -2 -2 -3 -2 -3 -1 -2 -1 -2 -1 -1 -1 -2 -1 -1 -1 -1 0 -1 0 -1 0 -1 0 -1 0 -1 1 -1 1 -1 1 -1 1 0 1 0 2 -1 3 -1 3 -1 1 -1 1 -1 1 0 1 0 1 -1 0 0 0 -1 0 -1 0 -1 0 -1 0 -1 0 -1 0 -1 0 0 0 0 0 0 0 0 -1 -1 -1 -1 -1 -1 -1 -1 -1 -1 -1 -1 -1 -1 -2 -3 -1 -1 -1 -1 -1 -1 -1 -1 0 -1 0 -1 0 -1 -1 -3 0 -2 0 -2 0 -2 0 -4 0 -2 0 -2 0 -4 0 -4 0 -4 0 -4 0 -2 0 -2 1 -4 0 -2 0 -2 0 -1 1 0 1 0 2 -1 1 0 1 0 1 0 1 0 1 -1 1 -1 1 -1 1 -1 1 -1 2 -2 0 0 3 0 9 0 9 -1 9 -1 9 -2 5 -1 1 1 1 1 1 1 1 1 1 1 1 1 1 1 1 1 1 0 1 0 1 0 2 0 1 0 3 0 2 0 3 0 2 0 1 0 1 1 5 5 2 2 2 2 3 3 7 6 3 3 3 3 3 3 3 3 3 3 3 3 1 2 1 2 2 3 2 2 1 1 0 1 0 0 0 0 0 1 0 1 0 0 0 0 -1 1 -1 1 -2 2 -3 3 -4 5 -2 2 -2 2 -2 2 -2 2 -2 2 -2 2 -1 1 -1 1 -1 1 -1 1 -2 1 -2 1 -2 1 -1 0 -1 1 -1 0 -2 0 -2 0 -4 1 -2 0 -2 0 -2 0 -10 1 -2 0 -5 1 -2 0 -1 0 -1 0 -1 0 -2 1 -1 0 -1 0 -1 1 -2 1 -2 1 -3 2 -3 2 -1 1 -3 2 -1 1 -1 1 -1 1 -1 1 -1 1 -1 1 -1 1 -1 1 -1 1 -1 1 -1 1 -1 1 -1 1 -1 1 0 1 0 1 0 1 0 1 0 1 0 1 1 1 1 1 1 1 1 1 1 1 1 1 1 1 1 0 1 0 1 0 1 0 1 0 1 0 1 0 1 0 3 -1 1 -1 1 -1 1 -1 1 -1 1 -1 1 -1 1 -1 1 -1 2 -2 2 -2 2 -2 1 -1 2 -2 2 -2 2 -2 2 -2 2 -2 2 -2 2 -2 2 -1 1 -1 1 -1 1 -1 3 -1 1 -1 1 -1 1 0 1 0 1 0 1 0 1 0 1 0 1 0 1 0 4 -1 -4 3 -2 2 -2 2 -3 2 -3 2 -3 3 -1 1 -1 1 -1 1 -1 1 -1 2 -1 2 -1 1 -1 2 -1 2 -1 1 -1 1 -1 1 -1 1 -1 1 0 1 0 1 0 1 0 1 0 1 0 1 0 1 1 1 1 1 1 1 1 1 1 1 1 1 1 1 1 1 2 1 2 1 2 1 2 1 2 1 2 1 2 1 2 0 2 0 2 0 2 0 2 0 2 0 1 0 1 0 1 -1 1 -1 1 -1 1 -1 1 -1 1 -1 0 -2 0 -2 0 -1 0 -1 0 -1 0 -1 0 0 0 0 -1 -1 -1 -1 -1 -2 -1 -1 -2 -2 -1 -1 0 -1 0 -1 0 -1 0 -1 0 -1 0 -1 0 -1 0 -1 0 -1 0 -1 0 -1 0 -1 0 -1 0 -1 1 -2 1 -2 1 -2 1 -2 2 -3 4 -6 2 -2 3 -4 3 -4 3 -4 3 -4 1 -2 2 -2 2 -2 3 -4 2 -2 2 -2 2 -2 1 1 1 1 1 1 1 1 1 1 1 1 1 1 1 2 2 3 2 3 1 2 1 2 1 2 1 1 1 1 1 1 1 1 1 1 1 1 1 1 1 0 1 0 1 0 1 0 1 0 1 -1 2 -1 2 -1 2 -2 2 -2 2 -2 1 -2 1 -2 1 -2 0 -2 0 -1 0 -1 0 -1 -1 -1 -1 -1 -1 -1 -1 -1 -1 -1 -1 -1 -1 -1 -2 -1 -3 -1 -5 -2 -2 -1 -2 -1 -2 -1 -1 -1 -1 -1 -1 -1 -1 -1 -1 -1 -1 -1 0 -1 0 -1 0 -1 0 -1 0 -1 0 -1 0 -1 0 -1 0 -1 0 -1 3 -5 1 -1 1 -1 0 -1 0 -1 0 -1 0 -1 0 -1 0 -1 0 -1 0 -1 0 -1 -1 -1 0 0 0 0 -1 -1 -1 -1 -1 -1 -1 0 -2 0 -2 0 -2 0 -5 -1 -2 -1 -2 -1 -2 -1 -1 0 -1 0 -1 0 -1 -1 -2 -2 -1 -1 -3 -3 -1 -1 -1 -1 -1 -1 -3 -3 -2 -3 -1 -2 -1 -2 -1 -2 -1 -2 -1 -2 -1 -2 -1 -2 -1 -2 -1 -2 -1 -2 -1 -1 1 0 1 -1 1 -1 1 -1 1 -1 1 -1 1 -1 1 -1 1 -1 1 -1 1 -1 0 -1 1 -3 0 -1 0 -1 0 -1 0 -3 0 -3 1 -1 8 -5 8 -5 7 -6 5 -5 2 -1 2 -1 2 -1 2 -1 2 -1 2 -1 2 -1 2 -1 2 -1 2 -1 2 -2 3 -3 3 -3 3 -3 1 -2 1 -2 1 -2 1 -2 1 -2 1 -1 1 -1 0 -1 -1 1 -2 1 -1 1 -1 1 -1 0 3 -5 1 -1 1 0 3 -1 3 -2 1 -1 3 -2 1 -1 3 -2 1 -1 1 -1 1 -1 1 -1 2 -2 1 -1 2 -3 1 -1 2 -2 1 -2 1 -1 0 -1 1 -1 0 -1 0 -1 0 -1 0 0 0 -1 0 0 0 0 0 0 0 0 -1 0 -1 0 -1 0 -1 0 -1 0 -2 0 -2 0 -2 0 -2 0 -2 2 0 -1 3 -9 3 -9 3 -9 2 -9 2 0 2 1 2 0 2 0 2 0 2 0 2 0 2 0 2 0 2 -1 1 -1 -2 0 1 -1 2 -1 2 -1 2 -2 1 -1 1 -1 1 -1 1 -2 1 -1 1 -1 1 -2 0 -1 0 -1 0 -1 0 -2 0 -1 0 -1 0 -2 0 -1 0 -1 0 -1 0 -2 0 -1 -1 -2 0 -1 0 -1 0 -1 0 -1 -2 -3 -2 -3 -1 -2 -1 -2 0 -1 0 -2 0 -1 0 -1 0 -1 0 -1 0 -1 0 -1 0 -1 1 -1 1 0 1 -1 1 0 1 0 1 0 1 0 1 0 1 0 2 0 4 0 4 0 2 0 2 0 2 0 2 0 2 0 2 -1 2 -1 2 -1 1 0 1 0 1 -1 1 -1 1 -1 1 -1 1 -1 1 -1 1 -1 1 -1 1 -1 1 -1 1 -1 1 -1 1 -1 1 -1 1 -1 1 -2 0 -1 0 -1 0 -1 0 -1 0 -1 0 -1 0 -1 0 -1 0 -1 0 -1 0 -1 0 -1 -1 -2 -1 -1 -1 -2 -1 -1 -1 -1 -1 -1 -1 -1 -3 -2 -2 -1 -2 -1 -2 -1 -3 -1 -2 -1 -1 0 1 -1 3 -2 3 -2 3 -2 3 -2 3 -2 3 -3 3 -3 3 -2 3 -3 4 -4 7 -8 4 -4 4 -4 4 -4 3 -4 6 -8 3 -4 2 -2 2 -2 2 -3 2 -3 2 -3 2 -3 2 -3 2 -3 2 -3 2 -3 2 -3 2 -3 1 -3 1 -3 1 -3 1 -3 1 -3 1 -3 1 -3 0 -3 0 -3 0 -3 0 -3 -1 -3 -1 -3 -1 -2 -1 -2 -2 -2 -1 -1 -1 -1 -1 -1 -1 -1 -1 -1 -1 -1 -1 0 -2 0 -2 0 -2 0 -2 0 -2 0 -2 0 -2 0 -2 0 -2 0 -3 1 -2 1 -2 1 -3 1 -2 1 -3 2 -3 2 -1 1 -1 1 -1 1 -1 1 -1 1 -3 2 -3 2 -1 0 0 0 0 -2 0 -3 0 -3 0 -2 0 -5 0 -3 0 -2 0 -2 0 -2 0 -2 -1 -2 -1 -2 -1 -2 -1 -2 -1 -2 -1 -2 -1 -2 -1 -2 -1 -2 -1 -1 -1 -1 -2 -3 -1 -1 -1 -1 -1 -1 -1 -1 -1 -1 -1 -1 -1 -1 -1 -1 -1 -1 -1 -1 -1 -1 -1 0 -1 0 -1 0 -1 0 -1 0 -1 0 -1 0 -1 0 -1 0 -1 1 -1 1 -1 1 -1 1 -1 1 -1 1 -1 1 -1 2 -2 3 -2 3 -1 2 -1 -1 -1 -1 -1 0 -1 0 -1 0 -1 0 -1 0 -1 0 -1 0 -1 1 -1 1 -2 1 -2 1 -2 1 -2 1 -2 1 -2 1 -2 1 -2 1 -1 1 -1 1 0 0 -1 -6 -1 -3 -1 -3 -1 -3 -1 -3 -1 -3 -1 -3 -1 -2 -1 -2 -1 -2 -1 -2 -1 -1 -1 -1 -1 -1 -1 -1 -2 -1 -2 -1 -2 0 -2 0 -2 0 -2 0 -2 0 -2 1 -2 1 -2 1 -1 1 -1 1 -1 1 -1 1 -1 1 -1 2 -1 2 -1 2 -1 2 -1 2 -1 2 -1 2 -1 2 -1 2 -1 2 -1 2 -2 6 -1 4 -1 4 -1 4 -1 4 -1 4 0 4 0 4 -1 9 0 9 0 9 0 5 0 16 -1 2 -4 6 -4 6 -4 6 0 0 0 0 -2 2 -1 2 -1 2 -2 2 -2 2 -2 2 -2 2 -2 2 0 0 -2 2 0 0 -1 1 0 0 -1 1 -2 3 -2 2 -4 4 -4 4 -2 2 -4 4 -2 2 -2 2 -3 2 -3 2 -2 1 -2 1 -2 1 -1 1 -2 1 -2 1 -2 1 -2 1 -1 0 -3 2 -3 1 -2 1 -2 0 -1 0 -2 0 0 0 -2 0 -1 0 -1 0 -1 -1 -3 -3 -1 -1 -1 -1 -1 -1 -1 -1 -1 -1 -1 -1 0 0 1 0 2 0 2 0 2 0 2 0 2 0 2 0 2 0 2 -1 2 -1 1 -1 2 -1 1 -1 1 -1 1 -1 1 -1 1 -1 1 -1 1 -1 0 0 0 0 0 0 1 -1 0 0 1 -1 0 0 1 -1 0 0 0 0 1 -1 1 -2 1 -2 1 -1 1 -1 1 -1 1 -1 0 -1 0 -1 0 -1 0 -1 0 -1 0 -1 1 -2 0 -2 0 -2 0 -2 0 -2 0 -2 0 -2 0 -2 -1 -5 -1 -3 -1 -4 0 -2 0 -2 -1 -2 -1 -2 -1 -2 -1 -2 -1 -2 -1 -2 -1 -2 -2 -5 -1 -2 -1 -1 1 0 5 -1 2 -1 2 -1 2 -1 2 -1 1 0 0 0 1 1 1 1 1 1 1 1 1 1 1 1 1 1 1 2 1 2 0 1 0 0 1 -1 1 -1 0 -1 0 -1 0 -1 0 -1 0 -1 0 -2 0 -1 0 -1 0 -1 0 -1 0 -1 -1 -4 3 3 1 1 1 1 1 1 1 1 1 1 1 2 0 0 1 -1 1 -1 0 -1 0 -1 0 -1 0 -1 0 -1 0 -1 0 -1 0 -1 0 -1 0 -1 0 -1 0 -1 0 -1 0 -1 0 0 0 0 0 0 -2 -2 3 1 1 0 1 0 1 0 1 1 1 1 1 1 1 1 1 1 1 0 0 -3 0 -5 0 -3 0 -1 0 -1 0 -1 0 -1 -1 -1 -1 -1 -1 -1 -1 -1 -2 -2 3 0 1 0 1 0 3 1 1 0 1 0 0 0 -1 -2 -1 -4 -1 -2 -1 -2 -1 -2 0 -1 0 -1 0 -1 0 -1 0 -1 -1 -1 0 -1 -1 -1 -1 -1 -1 0 0 0 0 -5 0 -6 0 -6 -1 -6 -1 -6 -1 -6 -2 -6 -2 -6 -2 -5 -2 -5 -1 -2 4 5 1 1 1 1 1 1 2 2 2 2 2 1 2 1 2 1 2 0 2 0 2 0 2 0 2 -1 2 -1 2 -1 2 -1 2 -1 1 -1 1 -1 1 -1 1 -2 1 -2 1 -2 1 -2 0 -2 0 -2 0 -2 0 -2 0 -1 -1 -1 -1 -1 -1 -1 -1 -1 -2 -1 -1 -1 0 0 -1 0 0 -1 0 0 0 0 1 0 2 0 1 0 1 0 1 0 0 0 0 0 1 0 1 0 0 0 1 0 0 0 0 0 1 0 0 0 0 0 0 0 0 0 0 0 0 0 0 0 0 0 1 -1 0 0 0 0 0 0 0 0 0 0 0 0 0 0 1 -1 1 -1 1 -1 0 0 0 0 0 -1 0 0 1 -1 1 -1 1 -1 1 -1 1 -3 0 -1 0 -1 0 -1 0 -1 0 -1 0 -1 0 0 0 0 0 0 0 -1 0 -1 0 -1 0 -1 -1 -2 -1 -2 -1 -1 -1 -1 -1 -1 -1 -1 -1 -1 -1 -1 -1 -1 -1 -1 -1 -1 -1 -1 -1 0 -1 0 -1 0 -1 0 -1 0 -2 0 -1 0 -2 0 -1 0 -1 0 -5 1 -6 1 -2 0 -2 0 -2 0 -1 0 -1 0 -2 0 -1 0 0 0 -1 0 -1 -1 0 0 0 0 0 -1 0 0 0 -1 0 0 0 0 0 0 0 -1 0 0 1 -1 1 -1 1 -1 1 -1 1 -1 2 -1 2 -1 2 -1 4 -3 2 -2 2 -2 1 -1 1 -1 1 -1 1 -1 1 -1 1 -1 1 -1 1 -1 1 -1 1 -1 1 -2 0 -1 0 -1 0 -1 0 -1 0 -1 0 -1 0 -1 0 -1 0 -1 0 -1 -1 -1 -1 -1 -1 -2 -1 -2 -1 -1 -1 -1 -1 -1 -1 -1 -1 -1 -1 -1 -1 -1 -1 -1 -1 -1 -1 -1 -1 0 -1 0 -1 0 -1 0 -1 0 -1 0 -1 0 -1 0 -1 0 -1 0 -1 0 -1 1 -1 1 -1 1 -1 1 -1 1 -3 2 -1 1 -1 1 0 1 -1 1 -1 1 -1 2 -1 1 -1 3 -2 3 -2 4 -3 8 -2 4 -1 4 -1 3 -1 3 -1 3 -1 2 0 1 0 1 0 0 -1 0 -2 -1 -2 -1 -2 -1 -1 -1 -1 -1 -1 -2 -1 -2 -1 -2 -1 -2 -1 -2 -1 -2 -1 -2 -1 -3 -1 -3 -1 -3 -4 -14 -1 -3 -1 -3 -1 -3 -1 -2 -1 -2 -1 -2 -1 -2 -1 -2 -1 -2 -1 -2 -1 -2 -1 -1 -2 -2 -2 -2 -2 -2 -2 -2 -2 -1 -3 -1 -3 -1 -3 -1 -3 -1 -3 -1 -3 -1 -3 0 -3 0 -3 0 -3 0 -3 0 -3 0 -3 0 -3 1 -3 1 -3 1 -3 1 -2 1 -2 1 -2 2 -2 2 -2 2 -2 2 -1 1 -1 1 -1 2 -1 2 -1 1 -1 1 -1 3 -2 6 -1 5 0 5 0 4 1 4 1 4 2 3 2 3 3 3 3 3 4 3 4 2 4 2 4 2 4 2 4 2 9 4 9 4 4 2 4 2 4 2 3 2 3 2 3 3 2 3 2 3 1 3 0 2 -1 0 -5 1 -5 2 -3 1 -3 2 -3 2 0 0 -1 0 -2 0 -2 0 -1 0 -2 0 -1 0 -1 0 -2 0 -2 0 -2 1 -2 1 -1 1 -1 1 -1 1 -1 1 -1 1 0 0 2 0 2 0 2 0 2 0 2 1 1 0 2 1 -2 1 -2 1 -3 1 -2 1 -2 1 -2 1 -2 1 -1 1 -1 1 -1 1 -1 1 -1 1 -3 2 -1 1 0 0 1 0 1 0 2 0 1 0 2 0 1 0 -1 1 -1 1 -2 1 -2 1 -2 1 -2 1 -2 1 -1 1 -1 0 -1 1 -1 1 -1 1 -1 1 -1 1 -1 2 0 1 0 1 0 1 0 1 0 1 0 0 1 0 1 0 1 0 1 0 1 0 1 0 1 0 -1 3 -2 4 -1 1 -4 0 -2 0 -5 0 -2 0 -1 0 -1 0 -1 0 -1 0 -1 0 -1 0 -1 0 -1 0 -1 1 -1 1 -1 1 -1 1 -1 1 -1 1 -1 1 0 0 2 0 3 0 3 0 1 0 3 0 1 0 1 0 1 0 1 0 1 1 1 1 1 0 1 1 -3 0 -1 0 -1 0 -1 0 -1 0 -1 0 -1 1 -1 0 -1 1 -1 1 -1 1 -1 1 -1 1 -2 3 -2 3 -1 2 1 0 2 -1 2 -1 6 -2 2 -1 -1 1 -1 2 0 0 -1 1 -1 1 -1 1 -1 2 -1 1 -1 2 -1 1 -1 2 0 1 0 1 0 1 0 1 0 1 0 1 -1 3 0 1 0 2 0 2 3 -2 4 -3 2 -1 1 -1 0 1 0 1 -2 4 -2 4 -2 4 -2 4 -1 4 -1 4 -1 4 -1 4 -1 4 -1 4 -1 3 0 0 -1 1 -2 2 -2 2 -1 2 0 -1 -1 -4 -3 -8 -2 -4 -2 -4 -3 -8 -2 -4 -4 -8 -9 -20 -2 -4 -6 -12 -4 -8 -2 -4 -4 -8 -2 -4 -1 -3 -2 -3 -2 -3 -2 -3 -1 -2 -1 -2 -1 -2 -1 -2 -1 -2 -1 -2 -3 -3 -1 -1 -1 -1 -1 -1 -1 -1 -1 -1 -1 -1 -1 -1 -2 -1 -2 -1 -2 0 -2 0 -2 0 -2 0 -2 0 -2 1 -2 1 -1 1 -1 1 -1 1 -1 1 -1 1 -1 1 -1 1 -1 1 -1 1 -1 1 -1 2 0 2 0 2 0 2 0 2 0 2 0 2 0 2 0 2 0 4 0 3 0 2 0 3 0 3 0 3 1 6 1 4 1 4 1 4 2 7 2 7 2 7 2 7 3 7 1 3 1 3 0 0 2 4 0 0 1 2 1 3 1 3 2 3 3 6 2 3 2 3 2 3 0 0 0 1 -1 1 -1 -1 0 0 -2 -2 -3 -3 -3 -3 -3 -3 -3 -2 -3 -2 -3 -2 -3 -2 -4 -2 -1 -1 0 0 0 0 -2 -1 -4 -2 -4 -2 -2 -1 0 0 -1 0 -1 0 -4 -2 -4 -2 -4 -2 -2 -1 0 0 0 0 -2 -1 -1 0 0 0 -3 -1 -3 -1 -3 -1 0 0 -1 0 -3 -1 -1 0 -1 0 -2 0 -1 0 0 0 -1 0 -1 0 0 0 -1 0 -2 0 0 0 -3 0 -3 0 -3 1 -3 1 -2 1 -2 1 -2 1 -2 1 -2 1 -1 1 -1 2 -1 2 -1 2 -1 2 -1 2 0 2 0 2 0 2 0 2 0 2 0 2 1 2 1 2 1 2 1 2 1 2 1 2 1 2 1 2 2 2 2 2 2 1 9 7 4 3 4 3 7 5 3 2 3 2 3 2 3 2 3 2 3 2 4 2 4 2 4 3 4 2 1 0 1 1 -1 1 -2 -1 -1 0 -1 0 -1 0 -1 0 -1 0 -3 0 -2 0 -2 0 -2 0 -2 0 -2 0 -2 0 -2 1 -2 1 -2 1 -2 1 -2 1 -2 1 -2 1 -2 1 -2 1 -1 1 -1 1 -1 1 -1 1 -1 1 -1 1 -1 1 -1 1 -1 2 -1 2 0 2 0 2 0 2 1 2 1 2 1 2 1 1 2 1 2 1 2 1 2 1 2 1 3 1 3 1 3 1 6 2 3 1 3 1 3 1 3 1 3 1 5 1 5 1 4 1 3 1 0 0 0 1 -1 1 -1 0 -2 1 -2 1 -2 1 -2 1 -2 1 -1 0 -1 1 -2 2 -2 2 -1 1 -1 1 -1 1 -1 2 -1 1 -1 2 0 1 -1 2 -1 4 0 3 1 3 1 3 2 2 2 2 3 2 3 2 4 1 4 1 4 1 5 1 5 0 5 0 5 0 3 0 0 1 -2 4 -2 4 -2 3 -1 2 -1 2 -1 2 -1 2 0 2 0 1 0 1 0 1 0 1 0 1 0 0 -2 3 -3 5 -2 5 -2 5 -2 5 -2 5 -2 5 -1 5 -1 5 0 1 -1 -3 -1 2 -2 3 -2 3 -2 3 -1 3 -1 3 -1 1 -1 3 -1 1 0 2 -1 3 0 2 -1 3 0 2 0 3 0 2 0 4 0 2 0 4 0 1 2 -1 2 -1 5 -2 2 -1 2 -1 1 0 1 0 1 0 0 0 1 2 0 1 0 2 0 2 0 2 0 2 0 2 0 2 0 2 0 2 0 2 0 2 0 1 1 2 0 1 0 1 0 1 0 1 1 2 0 0 0 0 1 -1 1 -1 3 -3 2 -2 1 -1 0 1 2 4 2 4 2 3 3 3 3 3 3 3 3 3 3 3 3 3 3 3 3 3 4 2 4 2 4 2 4 2 4 2 4 2 4 2 4 2 4 2 4 2 4 2 4 2 4 1 4 1 4 1 4 1 4 1 4 1 1 0zm39 -347l-8 11 -3 4 -3 4 -3 4 -3 4 -3 4 -1 2 -1 2 -1 2 -1 2 -1 1 -3 3 -2 1 -3 3 -1 1 0 0 0 0 0 0 2 -2 2 -2 1 -2 1 -2 1 -2 1 -2 1 -3 1 -3 0 -2 0 0 0 -1 0 -2 0 -3 0 -3 0 -6 0 -3 0 0 3 -1 4 -1 4 -1 4 -1 4 -1 4 -1 2 -1z"/>
 </g>
</svg>
