<?xml version="1.0" encoding="UTF-8"?>
<!DOCTYPE svg PUBLIC "-//W3C//DTD SVG 1.1//EN" "http://www.w3.org/Graphics/SVG/1.1/DTD/svg11.dtd">
<!-- Creator: CorelDRAW X6 -->
<svg xmlns="http://www.w3.org/2000/svg" xml:space="preserve" width="30px" height="41px" version="1.1" style="shape-rendering:geometricPrecision; text-rendering:geometricPrecision; image-rendering:optimizeQuality; fill-rule:evenodd; clip-rule:evenodd"
viewBox="0 0 1226 1681"
 xmlns:xlink="http://www.w3.org/1999/xlink">
 <defs>
  <style type="text/css">
   <![CDATA[
    .fil12 {fill:#5F372E}
    .fil6 {fill:#777D71}
    .fil9 {fill:#82867C}
    .fil0 {fill:#876661}
    .fil5 {fill:#8C8F86}
    .fil3 {fill:#91948C}
    .fil1 {fill:#969487}
    .fil2 {fill:#ACB0A7}
    .fil4 {fill:#B784B1}
    .fil8 {fill:#C091B9}
    .fil11 {fill:#D45A62}
    .fil10 {fill:#E27273}
    .fil14 {fill:#ECA526}
    .fil7 {fill:#EEBA5E}
    .fil13 {fill:#F3D073}
   ]]>
  </style>
 </defs>
 <g id="Layer_x0020_1">
  <metadata id="CorelCorpID_0Corel-Layer"/>
  <g id="_841445216">
   <polygon class="fil0" points="449,1317 449,1322 449,1326 449,1331 449,1336 449,1341 450,1345 450,1350 451,1355 451,1359 452,1364 453,1369 454,1374 456,1383 458,1392 460,1402 462,1411 463,1421 465,1430 466,1435 466,1439 467,1444 467,1449 467,1454 468,1458 468,1463 467,1468 467,1472 467,1476 467,1480 467,1482 466,1485 466,1486 465,1487 465,1488 464,1488 464,1489 463,1489 463,1490 462,1490 461,1491 459,1491 457,1491 451,1492 444,1494 438,1495 432,1495 427,1496 421,1497 416,1498 410,1499 404,1499 399,1499 393,1500 388,1499 385,1499 382,1499 379,1499 377,1498 374,1498 371,1498 368,1497 366,1496 363,1495 360,1495 358,1494 355,1493 350,1490 345,1488 341,1486 336,1483 327,1478 318,1472 314,1469 309,1467 305,1464 300,1462 296,1460 291,1458 288,1457 286,1457 284,1456 281,1455 277,1455 271,1454 265,1453 257,1453 254,1453 250,1453 246,1453 242,1453 238,1453 234,1454 230,1454 226,1455 222,1455 218,1456 214,1457 210,1458 207,1459 203,1460 200,1462 197,1463 194,1465 192,1467 189,1469 187,1472 186,1474 184,1477 183,1480 183,1483 182,1486 182,1490 183,1493 183,1495 184,1498 186,1500 187,1503 189,1505 191,1506 193,1508 195,1509 198,1511 200,1512 203,1513 206,1514 209,1514 212,1515 215,1516 218,1516 221,1516 224,1516 227,1517 230,1517 233,1516 239,1516 244,1516 249,1515 253,1515 259,1514 265,1513 271,1512 277,1512 283,1512 289,1512 295,1513 301,1513 304,1514 307,1514 310,1515 313,1516 316,1516 319,1517 322,1518 325,1519 328,1520 331,1521 334,1522 337,1523 340,1524 342,1526 345,1527 348,1529 342,1529 336,1529 329,1530 322,1530 314,1531 306,1533 302,1533 298,1534 294,1535 290,1536 287,1537 283,1538 279,1540 275,1541 272,1542 268,1544 265,1545 262,1547 259,1549 256,1551 253,1553 251,1555 249,1557 247,1559 245,1562 244,1564 243,1567 242,1570 242,1573 242,1577 242,1580 242,1584 243,1587 244,1591 245,1595 247,1598 248,1602 250,1606 252,1609 254,1613 256,1616 259,1620 261,1623 264,1626 267,1628 270,1631 272,1633 275,1635 278,1636 281,1638 284,1638 287,1639 290,1639 293,1638 296,1637 299,1636 302,1634 305,1631 306,1630 306,1629 307,1628 308,1627 308,1626 308,1625 309,1624 309,1623 309,1620 309,1618 309,1615 309,1613 309,1610 309,1608 309,1605 309,1603 309,1602 309,1600 309,1599 310,1598 310,1597 310,1596 311,1594 312,1593 312,1592 313,1591 315,1590 316,1589 317,1588 318,1587 320,1586 322,1585 325,1583 328,1581 332,1580 336,1578 344,1576 352,1573 359,1571 365,1569 375,1566 385,1562 395,1559 406,1555 411,1554 416,1552 421,1551 426,1550 431,1548 436,1547 441,1547 446,1546 447,1548 448,1551 448,1553 448,1556 447,1559 447,1563 446,1566 446,1570 444,1577 442,1585 442,1589 441,1592 440,1596 440,1600 439,1603 439,1607 439,1610 440,1613 440,1616 441,1619 443,1621 444,1623 447,1624 449,1626 452,1627 456,1627 460,1627 465,1627 470,1626 476,1624 482,1623 487,1621 491,1618 495,1616 498,1614 500,1611 502,1608 503,1606 503,1603 503,1600 503,1597 502,1594 501,1590 500,1587 498,1584 497,1581 493,1574 489,1567 487,1564 485,1561 483,1558 481,1554 480,1551 479,1548 478,1545 477,1542 477,1540 477,1537 478,1535 479,1532 480,1531 481,1530 482,1529 483,1528 484,1528 486,1527 487,1526 488,1525 495,1523 501,1520 504,1519 507,1517 508,1516 510,1515 511,1514 512,1513 513,1512 514,1511 514,1509 515,1508 515,1506 516,1504 516,1503 516,1501 515,1500 515,1499 515,1497 514,1496 513,1494 511,1491 510,1489 507,1486 505,1483 503,1480 501,1477 498,1474 496,1471 494,1468 492,1465 491,1462 490,1461 489,1460 489,1458 488,1457 488,1454 487,1451 486,1447 486,1444 485,1440 485,1436 484,1432 484,1428 484,1424 483,1420 483,1416 483,1411 483,1407 483,1403 483,1398 483,1394 484,1390 484,1385 484,1381 485,1377 485,1373 486,1368 487,1364 488,1360 489,1356 490,1353 491,1349 492,1345 493,1342 494,1338 496,1335 498,1332 "/>
   <polygon class="fil1" points="419,1319 422,1323 424,1328 427,1332 431,1336 432,1338 434,1340 435,1342 437,1344 439,1345 441,1347 443,1348 444,1350 446,1351 448,1353 450,1354 453,1355 455,1356 457,1357 459,1358 462,1358 464,1359 467,1359 469,1360 472,1360 475,1360 478,1360 481,1360 484,1360 486,1359 488,1359 490,1359 492,1358 493,1357 495,1357 497,1356 499,1355 501,1354 503,1353 505,1352 506,1351 508,1350 510,1348 511,1347 513,1346 514,1344 516,1343 517,1341 519,1340 521,1336 524,1333 526,1329 528,1326 530,1322 531,1319 "/>
   <polygon class="fil2" points="866,745 857,743 847,742 839,743 830,744 821,746 813,748 805,751 797,755 789,759 781,764 774,769 766,774 758,780 751,785 743,791 736,797 729,803 721,808 713,813 706,818 698,823 691,828 683,831 675,835 667,837 658,839 650,841 641,841 632,841 623,839 614,837 604,833 599,831 595,828 590,826 586,822 583,819 579,815 577,811 574,807 571,803 569,798 567,793 566,788 564,783 563,778 562,773 561,768 561,762 560,757 560,752 560,746 560,741 560,735 561,730 561,724 562,719 562,714 563,708 564,703 565,698 566,693 567,689 568,684 569,676 571,669 573,661 575,653 577,646 578,638 580,630 582,623 583,617 585,612 586,606 587,600 588,594 589,589 590,583 591,578 591,572 591,567 592,562 592,557 592,553 591,548 591,544 590,540 589,536 588,533 587,530 585,527 583,525 582,523 579,521 577,520 574,519 571,519 568,519 564,520 560,521 556,523 552,526 547,529 545,530 543,531 541,533 539,535 538,536 536,538 534,540 533,542 531,544 530,546 529,548 528,550 525,554 523,558 521,563 519,568 517,572 515,577 512,586 508,596 505,602 501,607 497,613 493,619 489,624 485,630 480,635 476,641 472,646 467,651 463,656 458,661 454,667 449,672 444,676 439,681 430,690 421,699 411,708 402,717 393,726 384,734 375,743 366,752 357,761 348,770 339,780 330,789 321,798 312,807 304,817 295,826 287,836 279,845 271,855 263,865 256,875 249,885 241,895 234,905 228,915 221,926 215,936 210,947 204,958 199,969 195,980 191,991 187,1002 184,1013 181,1024 179,1036 177,1047 176,1059 175,1071 175,1082 176,1094 177,1106 179,1118 182,1130 185,1142 190,1154 194,1166 200,1179 204,1187 209,1195 214,1202 219,1210 225,1217 231,1224 237,1230 243,1237 250,1243 257,1249 264,1255 271,1260 279,1266 287,1271 295,1276 303,1280 311,1285 319,1289 327,1293 336,1297 345,1301 353,1305 362,1308 371,1311 380,1314 388,1317 397,1320 406,1323 415,1325 424,1327 432,1330 441,1332 462,1336 482,1339 503,1341 523,1341 544,1341 564,1339 584,1337 604,1333 623,1329 643,1323 662,1317 680,1310 698,1301 716,1292 733,1282 750,1272 766,1260 782,1248 797,1235 812,1221 826,1207 839,1192 851,1176 863,1160 874,1143 884,1126 893,1108 902,1089 909,1070 916,1051 921,1031 926,1011 929,995 932,977 934,968 936,959 937,949 939,939 940,929 941,919 943,908 943,898 944,888 944,877 944,867 944,857 943,847 942,837 941,828 939,819 936,810 933,801 930,793 925,785 920,778 915,772 909,765 902,760 894,755 886,751 876,747 "/>
   <polygon class="fil2" points="178,1030 174,1037 170,1044 167,1051 163,1057 160,1064 157,1070 156,1074 155,1077 153,1080 152,1083 151,1087 150,1090 149,1093 148,1097 148,1100 147,1104 146,1107 146,1111 145,1114 145,1118 145,1122 144,1126 144,1130 144,1134 144,1138 144,1142 149,1140 154,1138 159,1136 164,1133 169,1131 174,1129 177,1128 179,1127 182,1126 184,1126 183,1131 182,1136 181,1142 180,1147 180,1152 179,1157 179,1162 179,1167 179,1170 179,1172 180,1175 180,1177 180,1180 181,1182 181,1185 182,1187 182,1190 183,1192 184,1195 185,1197 186,1199 187,1202 188,1204 189,1207 191,1205 193,1202 195,1200 197,1198 201,1193 204,1188 208,1183 211,1178 213,1176 215,1173 217,1171 219,1169 "/>
   <polygon class="fil2" points="773,1242 776,1242 779,1242 783,1241 786,1240 790,1239 794,1238 797,1237 801,1235 805,1233 809,1230 813,1228 816,1225 820,1223 824,1220 828,1217 831,1214 835,1210 839,1207 842,1204 845,1200 849,1197 852,1193 854,1189 857,1186 860,1182 862,1179 864,1176 866,1172 868,1169 869,1166 870,1163 871,1160 866,1163 861,1165 858,1166 856,1167 853,1168 851,1169 848,1170 845,1171 842,1172 840,1172 837,1173 834,1173 831,1173 828,1174 835,1171 841,1168 847,1165 854,1163 860,1160 866,1157 872,1154 878,1150 881,1149 884,1147 887,1145 890,1143 893,1141 895,1139 898,1137 901,1135 903,1133 906,1131 908,1128 911,1126 913,1123 915,1120 918,1118 920,1115 923,1110 926,1106 927,1104 928,1102 929,1100 930,1099 930,1097 930,1096 931,1095 931,1093 931,1092 931,1091 930,1090 930,1089 929,1089 928,1088 927,1087 926,1087 925,1086 924,1086 922,1086 921,1085 917,1085 913,1085 908,1085 903,1085 "/>
   <polygon class="fil0" points="650,1322 653,1326 656,1330 659,1334 662,1337 665,1341 668,1344 671,1348 675,1351 678,1355 681,1358 685,1361 688,1364 696,1371 703,1377 710,1383 717,1390 724,1396 731,1403 735,1406 738,1409 741,1413 745,1416 748,1420 751,1423 753,1427 756,1431 761,1438 764,1443 765,1445 766,1447 766,1448 766,1449 766,1449 766,1450 766,1451 766,1452 765,1452 765,1453 764,1454 762,1456 758,1460 753,1466 748,1471 744,1476 740,1480 736,1485 733,1489 729,1494 725,1497 722,1501 720,1503 718,1505 716,1506 714,1508 711,1510 709,1511 707,1512 704,1514 702,1515 699,1516 696,1517 693,1518 690,1519 687,1520 684,1521 680,1522 675,1523 670,1523 665,1524 660,1524 650,1525 639,1525 634,1526 629,1526 624,1527 619,1528 617,1528 614,1529 612,1530 610,1530 607,1531 605,1532 603,1533 600,1534 596,1536 591,1539 586,1542 580,1546 577,1548 574,1551 571,1553 568,1556 565,1558 562,1561 559,1564 556,1567 553,1570 550,1573 548,1576 546,1579 543,1582 542,1585 540,1588 538,1591 537,1594 536,1597 536,1600 536,1603 536,1606 536,1609 537,1612 539,1615 541,1618 543,1621 545,1623 547,1625 549,1626 552,1628 554,1628 557,1629 559,1629 562,1629 565,1629 568,1628 570,1628 573,1627 576,1626 579,1625 582,1623 584,1622 587,1620 589,1619 592,1617 595,1615 597,1613 599,1611 604,1608 608,1604 611,1601 614,1598 618,1594 622,1590 627,1586 631,1582 636,1578 641,1574 646,1571 651,1568 654,1567 657,1565 660,1564 662,1562 665,1561 668,1560 671,1559 674,1558 677,1557 680,1556 683,1555 686,1554 689,1553 692,1553 695,1552 698,1552 694,1555 689,1559 683,1564 678,1569 673,1574 667,1580 664,1583 662,1586 659,1589 657,1592 654,1596 652,1599 649,1602 647,1605 645,1609 644,1612 642,1615 640,1619 639,1622 638,1625 637,1628 637,1631 636,1634 636,1637 636,1640 637,1643 638,1646 639,1649 640,1652 642,1654 644,1657 647,1659 650,1662 653,1664 656,1667 659,1669 663,1671 666,1673 670,1674 674,1676 678,1677 682,1678 686,1679 690,1680 693,1680 697,1681 701,1681 704,1680 708,1680 711,1679 714,1678 716,1676 719,1674 721,1672 723,1669 724,1667 725,1663 726,1659 726,1658 726,1657 726,1656 725,1655 725,1654 725,1653 724,1651 724,1650 722,1648 721,1646 719,1645 718,1643 716,1641 714,1639 713,1637 711,1635 711,1634 710,1633 710,1631 709,1630 709,1629 708,1628 708,1627 708,1625 708,1624 708,1622 708,1621 709,1619 709,1618 710,1616 710,1614 711,1612 712,1609 714,1606 716,1602 718,1599 723,1592 728,1585 732,1579 736,1574 741,1565 747,1556 754,1547 760,1538 763,1534 766,1529 769,1525 773,1521 776,1517 780,1513 783,1510 787,1506 789,1508 790,1509 792,1511 794,1513 796,1516 797,1519 799,1522 801,1525 804,1532 807,1539 809,1543 810,1546 812,1550 814,1553 816,1556 818,1559 820,1561 822,1564 824,1566 827,1567 829,1568 832,1569 834,1569 837,1568 840,1567 843,1565 847,1562 850,1559 854,1555 858,1550 861,1545 864,1541 866,1537 868,1533 869,1529 869,1526 868,1522 868,1520 866,1517 865,1515 863,1512 860,1510 857,1508 854,1506 851,1505 848,1503 841,1500 833,1497 830,1496 826,1495 823,1493 820,1492 817,1490 814,1488 811,1487 809,1485 807,1483 806,1480 805,1478 804,1475 804,1474 805,1473 805,1471 805,1470 806,1469 806,1467 807,1466 808,1464 811,1459 815,1453 816,1450 817,1447 818,1445 818,1443 819,1442 819,1440 819,1439 819,1437 819,1436 818,1434 818,1433 817,1431 816,1430 814,1428 814,1427 813,1427 812,1426 811,1426 808,1424 806,1423 802,1422 799,1421 796,1420 792,1420 788,1419 785,1418 781,1417 778,1415 774,1414 771,1413 770,1412 769,1411 768,1411 766,1410 764,1408 761,1406 759,1403 756,1401 754,1398 751,1395 748,1392 745,1390 743,1386 740,1383 737,1380 735,1377 732,1373 729,1370 727,1366 724,1363 722,1359 720,1355 717,1352 715,1348 713,1344 711,1341 709,1337 707,1333 706,1330 704,1326 703,1322 702,1319 700,1315 700,1312 699,1308 698,1305 "/>
   <polygon class="fil3" points="1081,568 1076,580 1071,593 1066,605 1060,618 1054,630 1048,642 1042,654 1035,666 1029,678 1022,690 1014,701 1007,713 999,724 992,735 988,741 984,746 980,752 976,757 969,765 962,774 955,782 948,791 944,795 941,799 937,803 933,807 929,811 925,815 921,819 917,823 912,827 908,830 904,834 899,837 895,840 890,844 885,847 881,849 876,852 871,855 866,857 861,859 856,861 851,863 846,865 840,866 836,867 830,868 827,869 824,870 821,870 818,870 817,870 815,870 814,870 813,870 811,870 810,870 809,869 808,869 807,868 806,867 805,866 804,866 803,864 802,863 802,862 802,861 802,860 802,859 802,858 802,857 803,855 804,853 806,850 807,848 809,845 811,842 815,837 819,832 821,829 823,827 824,825 825,824 827,819 830,815 832,810 835,805 839,795 843,786 847,776 851,766 855,756 859,746 863,737 867,728 870,719 874,710 877,701 880,692 883,683 886,674 889,665 892,656 895,647 897,637 900,628 902,619 904,609 906,600 910,586 913,572 916,558 919,543 923,529 927,514 929,507 931,499 933,492 935,485 938,478 940,471 943,463 945,456 948,449 951,442 954,436 958,429 961,422 964,416 968,410 972,403 976,397 980,391 984,386 989,380 992,377 995,374 998,371 1001,369 1004,367 1007,365 1010,364 1014,362 1017,361 1020,361 1023,360 1026,360 1030,360 1033,361 1036,361 1039,362 1042,363 1045,364 1048,366 1051,367 1054,369 1057,371 1060,373 1062,375 1065,377 1068,380 1070,383 1073,385 1075,388 1077,391 1079,394 1081,397 1084,403 1087,408 1089,413 1091,418 1093,423 1095,428 1096,434 1098,439 1099,444 1100,450 1100,455 1101,460 1101,466 1101,471 1101,477 1101,482 1101,487 1100,493 1099,498 1099,504 1098,509 1097,515 1096,520 1094,526 1093,531 1091,536 1090,542 1088,547 1087,552 1085,558 1083,563 "/>
   <polygon class="fil3" points="871,745 869,749 866,753 864,756 862,759 859,763 857,766 854,770 851,773 848,776 845,780 840,785 834,791 831,793 828,796 825,799 822,802 818,805 815,807 812,810 808,812 805,815 801,817 798,818 794,820 791,821 788,822 785,823 782,823 779,823 776,822 773,821 771,820 769,818 767,815 765,812 764,808 764,806 763,805 763,803 763,802 763,800 763,798 763,797 764,795 764,792 765,788 767,785 768,781 771,774 774,767 776,764 777,761 778,758 779,755 780,751 780,747 781,744 781,740 782,732 783,725 783,717 784,709 784,701 784,694 785,684 785,674 785,665 786,655 786,645 786,635 787,626 787,616 787,606 787,596 788,587 788,577 788,567 788,558 788,548 788,538 788,529 788,519 789,510 789,500 790,491 790,481 791,472 792,462 793,453 795,443 796,434 798,425 800,415 802,406 803,401 805,397 806,392 807,388 809,383 811,378 813,373 815,369 818,364 820,360 823,357 826,353 829,350 832,347 835,344 838,342 841,340 845,338 848,336 852,335 855,335 859,334 862,334 865,335 869,335 872,336 876,338 879,340 882,342 885,345 888,348 891,352 894,356 897,361 899,366 902,372 904,379 907,386 909,393 911,400 913,407 915,414 917,421 918,428 920,435 921,442 922,449 923,457 924,464 924,471 925,478 925,486 926,493 926,500 926,508 926,515 926,522 925,530 925,537 924,544 923,552 923,559 922,566 921,573 920,581 918,588 917,595 916,602 914,611 912,620 910,630 908,639 906,648 904,657 901,667 899,676 896,685 893,694 892,698 890,703 889,707 887,712 885,716 884,720 882,725 880,729 878,733 875,737 873,741 "/>
   <polygon class="fil3" points="1153,670 1146,679 1138,688 1130,697 1123,705 1115,714 1107,722 1099,731 1091,739 1085,744 1080,750 1074,755 1069,761 1063,766 1057,771 1052,776 1046,781 1040,787 1034,792 1029,797 1023,802 1017,808 1012,813 1006,818 1000,824 995,829 990,834 985,839 979,843 976,846 973,848 970,850 967,852 964,854 961,856 958,857 955,859 952,860 948,862 945,863 942,864 938,864 935,865 932,865 928,865 925,865 921,865 918,865 914,864 911,863 907,861 904,860 900,858 897,856 895,854 893,852 891,850 890,847 889,845 889,842 888,840 888,837 888,834 889,831 889,828 890,825 891,821 892,818 893,815 895,812 896,809 898,805 899,802 903,796 906,790 910,784 913,779 915,774 918,769 921,763 924,756 927,750 930,744 934,737 937,731 941,725 944,718 947,712 951,706 954,699 958,693 961,687 965,680 968,674 972,668 979,656 985,644 993,632 1000,620 1004,614 1007,608 1011,602 1015,596 1019,591 1023,585 1027,579 1031,574 1036,568 1040,563 1044,557 1049,552 1053,547 1058,541 1063,536 1067,531 1072,526 1077,521 1082,516 1087,512 1092,507 1098,502 1103,498 1109,493 1111,492 1114,490 1117,488 1119,486 1122,484 1126,482 1129,481 1132,479 1136,477 1139,476 1143,474 1146,473 1150,471 1154,470 1157,469 1161,468 1165,467 1169,467 1172,466 1176,466 1180,466 1183,466 1187,466 1190,467 1194,468 1197,469 1200,470 1203,471 1206,473 1209,475 1211,478 1214,480 1217,485 1220,490 1222,496 1224,501 1225,507 1226,513 1226,520 1225,526 1225,532 1223,539 1222,546 1220,553 1218,559 1215,566 1213,573 1210,580 1206,587 1203,593 1200,600 1196,607 1192,613 1188,619 1185,626 1181,631 1177,637 1173,643 1169,648 1166,653 1159,662 "/>
   <polygon class="fil4" points="440,698 438,696 436,694 435,692 433,690 431,688 430,686 428,684 426,682 423,677 421,672 418,666 415,661 412,656 410,650 407,645 405,639 400,629 396,620 392,612 388,603 385,595 381,587 378,579 375,571 371,562 368,554 365,546 362,537 359,529 355,521 352,512 348,504 345,496 341,488 337,479 333,471 329,462 326,454 322,446 318,437 314,429 310,421 306,412 302,404 298,395 294,387 289,378 285,369 281,361 276,352 273,346 270,340 266,333 262,326 260,323 258,319 256,315 253,312 251,308 248,304 245,301 243,298 240,295 237,292 234,289 231,286 227,284 224,282 221,280 217,278 214,277 210,276 207,276 203,276 199,276 195,277 192,278 188,280 184,281 181,283 179,286 176,288 174,291 172,293 170,296 168,299 167,302 165,305 164,309 163,312 162,316 162,319 161,323 161,327 160,331 160,334 160,338 160,342 160,346 160,349 160,353 160,357 161,364 162,371 163,378 164,384 165,391 166,399 168,407 169,414 171,422 173,430 175,437 177,445 180,452 182,460 185,467 187,474 190,482 193,489 196,496 199,504 202,510 205,517 208,524 211,531 214,538 217,544 221,551 224,557 228,564 232,571 235,577 239,584 243,590 247,597 251,604 256,610 254,605 252,600 249,594 246,588 242,583 238,577 233,572 228,566 222,560 216,555 209,549 203,544 196,539 188,534 181,529 173,524 165,519 158,515 150,511 142,507 134,503 126,499 118,496 111,493 103,490 96,488 89,486 82,484 76,483 70,482 64,482 59,481 52,482 46,483 40,484 34,485 29,487 25,490 20,492 17,495 13,498 10,501 8,505 6,509 4,513 2,517 1,521 0,525 0,530 0,534 0,539 1,543 2,548 3,552 4,557 6,561 8,565 11,570 13,574 16,578 20,582 23,585 27,588 31,591 41,599 51,606 60,613 68,619 75,624 82,629 89,634 95,639 102,643 108,648 115,652 122,657 130,662 139,667 148,672 158,678 157,677 155,677 153,676 151,676 149,676 146,675 143,675 140,676 137,676 133,676 129,677 126,678 122,678 118,679 114,680 110,681 106,683 102,684 98,685 95,687 91,688 87,690 84,691 80,693 77,695 74,696 72,698 69,700 67,702 65,703 64,705 62,707 60,712 58,717 58,721 58,725 58,729 60,733 62,737 65,740 68,743 72,746 76,749 81,752 86,754 91,757 96,759 102,761 108,763 114,764 120,766 127,768 133,769 139,770 145,772 151,773 162,775 171,777 180,778 186,780 186,780 186,780 186,781 186,781 185,782 184,783 179,786 174,789 169,791 165,794 161,796 160,797 158,798 156,800 154,802 152,804 151,805 149,808 147,810 146,812 145,814 143,816 142,819 141,821 140,823 139,826 138,828 137,830 136,839 136,846 137,853 140,859 144,865 148,870 155,874 161,877 169,880 178,883 187,885 197,886 208,887 219,888 230,888 241,888 253,887 265,886 277,885 289,883 300,882 312,879 323,877 333,875 343,872 353,869 362,866 370,863 377,860 383,857 389,854 393,850 "/>
   <polygon class="fil5" points="396,620 392,612 388,603 385,595 381,587 378,579 375,571 371,562 368,554 365,546 362,537 359,529 355,521 352,512 348,504 345,496 341,488 337,479 333,471 329,462 326,454 322,446 318,437 314,429 310,421 306,412 302,404 298,395 294,387 289,378 285,369 281,361 276,352 273,346 270,340 266,333 262,326 260,323 258,319 256,315 253,312 251,308 248,304 245,301 243,298 240,295 237,292 234,289 231,286 227,284 224,282 221,280 217,278 214,277 210,276 207,276 203,276 199,276 195,277 192,278 188,280 184,281 181,283 179,286 176,288 174,291 172,293 170,296 168,299 167,302 165,305 164,309 163,312 162,316 162,319 161,323 161,327 160,331 160,334 160,338 160,342 160,346 160,349 160,353 160,357 161,364 162,371 163,378 164,384 165,391 166,399 168,407 169,414 171,422 173,430 175,437 177,445 180,452 182,460 185,467 187,474 190,482 193,489 196,496 199,504 202,512 206,521 210,529 214,538 218,546 223,554 227,563 232,571 228,566 223,562 219,558 214,554 209,549 204,545 198,541 193,537 187,533 181,529 175,526 170,522 163,518 157,515 151,512 145,508 139,505 133,502 127,500 121,497 115,495 109,492 103,490 98,488 92,487 87,485 82,484 77,483 72,482 67,482 63,482 59,481 52,482 46,483 40,484 34,485 29,487 25,490 20,492 17,495 13,498 10,501 8,505 6,509 4,513 2,517 1,521 0,525 0,530 0,534 0,539 1,543 2,548 3,552 4,557 6,561 8,565 11,570 13,574 16,578 20,582 23,585 27,588 31,591 41,599 51,606 60,613 68,619 75,624 82,629 89,634 95,639 102,643 108,648 115,652 122,657 130,662 139,667 148,672 158,678 157,677 155,677 153,676 151,676 149,676 146,675 143,675 140,676 137,676 133,676 129,677 126,678 122,678 118,679 114,680 110,681 106,683 102,684 98,685 95,687 91,688 87,690 84,691 80,693 77,695 74,696 72,698 69,700 67,702 65,703 64,705 62,707 60,712 58,717 58,721 58,725 58,729 60,733 62,737 65,740 68,743 72,746 76,749 81,752 86,754 91,757 96,759 102,761 108,763 114,764 120,766 127,768 133,769 139,770 145,772 151,773 162,775 171,777 180,778 186,780 186,780 186,780 186,781 186,781 185,782 184,783 179,786 174,789 169,791 165,794 161,796 160,797 158,798 156,800 154,802 152,804 151,805 149,808 147,810 146,812 145,814 143,816 142,819 141,821 140,823 139,826 138,828 137,830 136,839 136,846 137,853 140,859 144,865 148,870 155,874 161,877 169,880 178,883 187,885 197,886 208,887 219,888 230,888 241,888 253,887 265,886 277,885 289,883 300,882 312,879 323,877 333,875 343,872 353,869 362,866 370,863 377,860 383,857 389,854 393,850 440,698 438,696 436,694 435,692 433,690 431,688 430,686 428,684 426,682 423,677 421,672 418,666 415,661 412,656 410,650 407,645 405,639 400,629 "/>
   <polygon class="fil6" points="440,698 438,696 436,694 434,691 432,689 430,686 428,684 426,681 424,678 423,675 421,672 419,669 418,666 414,660 411,653 407,650 403,647 399,644 395,641 391,637 388,634 384,630 380,627 377,623 373,620 370,616 366,612 363,608 360,605 357,601 354,597 352,593 349,590 347,587 345,583 343,580 341,577 339,573 337,569 334,562 330,555 327,548 324,541 321,533 318,526 315,518 312,511 309,504 306,496 302,489 299,482 298,492 298,502 297,512 297,523 297,529 297,534 297,540 297,545 298,551 298,557 298,562 299,568 300,573 300,579 301,584 302,590 303,595 304,601 305,606 306,611 308,616 310,621 311,626 313,631 315,636 317,641 320,645 322,649 319,646 315,642 312,638 308,635 301,627 295,618 291,614 288,610 284,607 281,603 277,599 274,596 270,593 267,590 267,593 267,595 267,598 268,601 268,604 269,607 270,610 270,612 271,615 272,618 273,621 274,623 275,626 276,629 277,631 279,634 281,639 284,644 287,649 290,654 293,659 297,663 300,668 304,672 302,670 300,669 298,667 296,666 294,665 292,664 290,662 288,661 283,659 278,657 273,655 267,653 257,650 246,647 241,645 236,643 232,642 227,640 223,638 218,636 214,634 209,631 201,626 192,621 183,616 175,611 171,609 166,607 162,605 158,603 161,607 164,612 167,616 170,621 174,625 178,630 181,634 185,638 189,643 193,647 197,651 201,655 206,659 210,662 215,666 219,669 224,673 229,676 234,679 238,682 243,684 249,687 254,689 259,691 264,693 269,695 275,697 280,698 286,699 291,700 297,700 302,700 299,703 296,705 293,708 290,710 287,711 284,713 281,715 278,716 274,717 271,718 268,719 265,720 261,721 258,721 255,722 251,722 245,723 238,724 231,725 224,725 217,726 211,728 207,728 204,729 200,730 197,731 198,733 200,735 202,736 204,738 207,739 209,741 212,742 215,743 218,744 221,745 224,746 227,747 230,747 234,748 237,749 240,749 244,749 247,750 251,750 254,750 258,750 261,750 264,750 268,750 271,750 274,749 277,749 280,749 282,748 285,748 287,747 289,746 286,750 282,754 278,757 275,761 271,765 268,769 264,774 261,778 254,786 248,795 244,799 240,803 237,807 233,810 235,810 237,810 240,810 242,810 244,810 247,810 249,810 251,809 256,808 261,807 266,806 271,804 275,802 280,800 285,799 290,797 298,793 306,789 303,794 299,798 295,802 291,807 287,811 283,815 279,818 275,822 271,826 266,829 262,833 257,836 252,840 248,843 243,846 238,849 241,849 244,850 247,850 249,850 255,851 261,852 266,854 272,855 277,857 283,858 288,860 294,861 300,862 305,864 311,865 317,866 320,866 323,867 325,867 328,867 332,867 336,867 339,867 343,867 346,868 350,868 353,868 357,868 363,866 369,864 374,861 379,859 383,857 387,855 389,854 390,853 392,852 393,850 "/>
   <polygon class="fil7" points="198,432 196,427 194,420 193,416 192,412 191,408 191,404 190,400 190,396 189,394 189,392 189,391 190,389 190,387 190,385 190,384 191,382 191,381 192,379 193,378 194,377 195,375 197,374 198,373 200,373 201,372 202,372 204,372 205,372 207,372 208,373 209,373 211,374 212,375 213,376 214,377 216,378 218,381 220,384 222,387 224,390 228,396 231,401 229,394 227,386 225,381 224,376 223,371 223,366 222,364 222,361 222,359 222,357 222,354 223,352 223,350 223,348 224,346 225,344 226,343 227,342 228,340 230,339 231,338 233,338 234,338 235,338 236,338 238,338 239,338 240,338 241,338 242,338 245,339 247,340 249,342 252,343 255,345 257,347 260,349 262,352 265,354 267,357 270,359 273,362 271,360 270,358 269,355 268,353 266,348 263,343 260,337 256,331 255,328 253,325 251,322 249,319 246,316 244,313 242,310 240,307 237,304 235,302 232,299 229,297 227,295 224,293 221,291 218,290 215,289 212,288 209,288 206,288 202,288 199,289 196,290 192,291 190,293 187,295 185,296 183,298 181,301 179,303 177,305 176,308 175,311 173,313 172,316 172,319 171,322 170,325 170,329 169,332 169,335 169,338 169,341 169,345 169,351 169,358 170,364 170,370 171,375 172,380 172,385 173,389 174,393 175,398 176,398 177,399 178,399 179,400 181,401 182,402 182,402 183,403 185,405 187,408 188,410 190,412 191,415 192,418 194,420 195,423 197,428 "/>
   <polygon class="fil7" points="61,562 59,560 57,559 56,557 55,556 54,554 53,553 52,552 52,550 52,549 52,548 52,547 52,546 53,544 53,543 54,543 55,542 56,541 57,540 58,539 60,539 61,538 63,538 64,538 66,537 67,537 69,537 71,537 72,537 74,537 76,537 77,537 79,538 77,535 75,533 72,531 70,529 67,526 65,524 62,522 61,520 60,519 59,518 58,516 58,515 58,514 57,513 57,511 57,510 58,509 58,507 59,506 59,504 60,503 62,501 63,500 65,498 66,497 68,495 65,495 61,495 58,494 55,494 50,495 45,495 41,496 37,497 33,499 29,500 26,502 23,505 21,507 18,510 16,512 15,515 13,518 12,521 11,525 11,528 10,531 10,535 11,538 11,542 12,545 13,549 14,552 15,555 17,559 19,562 21,565 23,568 25,571 28,574 31,576 34,579 34,579 34,579 35,577 35,574 36,572 37,570 38,568 39,566 39,565 40,564 41,563 42,563 42,562 43,562 44,561 45,561 46,560 47,560 48,560 50,560 51,560 52,560 54,560 55,560 56,560 58,561 59,561 "/>
   <polygon class="fil7" points="84,720 82,719 81,718 80,717 79,715 79,714 78,713 78,712 78,710 78,709 78,708 78,706 79,705 79,704 80,703 81,701 82,700 79,701 76,703 74,704 72,706 70,707 68,709 67,710 66,712 65,713 65,714 64,716 63,717 63,718 63,719 63,721 63,722 63,723 63,724 63,725 63,726 63,727 64,728 64,729 65,730 65,731 66,732 67,733 67,734 69,736 71,738 73,739 76,741 78,742 81,744 80,742 79,740 78,738 77,737 76,735 76,733 75,732 75,730 75,729 75,728 75,728 76,727 76,726 76,725 77,725 77,724 78,723 78,723 79,722 80,722 81,721 82,721 83,720 "/>
   <polygon class="fil7" points="194,853 192,853 190,853 188,853 187,853 185,852 184,852 182,852 181,851 179,851 178,850 177,849 176,848 175,848 174,847 173,846 173,845 172,844 171,843 171,842 171,841 171,839 171,838 171,837 171,836 171,834 172,833 172,832 173,830 174,829 175,827 176,826 178,824 175,825 173,825 171,825 170,825 168,825 166,825 164,825 163,824 161,823 160,823 159,822 157,821 156,820 155,819 155,817 154,816 153,818 152,820 151,822 150,824 149,826 148,828 147,830 147,832 146,834 146,837 146,839 145,841 145,844 146,846 146,848 147,850 147,852 148,854 149,856 150,857 151,859 153,861 154,862 156,864 157,865 159,866 161,867 163,869 165,870 168,871 170,872 173,872 175,873 178,874 180,875 183,875 186,876 189,877 192,877 195,877 194,876 192,875 191,874 190,872 189,871 189,869 188,868 188,866 188,865 188,863 188,861 189,860 190,858 191,856 192,855 "/>
   <polygon class="fil8" points="563,762 571,763 578,763 585,762 592,762 599,760 607,758 614,756 621,753 628,750 636,746 643,742 650,738 657,733 664,728 671,723 677,717 684,712 690,706 697,700 703,694 709,688 715,682 720,676 725,670 731,664 736,658 740,652 745,646 749,641 753,636 756,630 759,626 768,612 776,599 785,586 794,572 802,559 811,545 820,532 830,519 834,512 839,505 844,499 849,492 854,486 859,480 864,473 869,467 874,461 879,455 884,449 890,443 895,437 901,432 906,426 912,421 915,418 918,415 921,413 924,410 927,408 931,405 934,403 937,401 941,399 944,397 947,396 951,394 954,393 957,392 960,391 963,391 966,391 969,391 972,392 975,393 977,394 979,396 981,398 983,401 985,404 987,407 988,411 989,415 990,420 990,426 991,432 991,438 991,446 990,453 990,460 989,467 988,474 988,481 987,488 985,495 984,503 983,510 981,517 979,524 977,531 975,538 972,545 970,552 967,558 964,565 960,572 957,578 953,584 949,591 945,597 941,603 936,609 931,615 926,620 920,626 914,631 908,636 902,641 895,646 902,643 907,640 913,637 918,634 923,631 929,629 934,626 939,624 944,621 949,618 954,616 960,613 965,610 971,607 978,604 984,600 990,598 997,594 1005,590 1014,586 1019,583 1024,581 1030,579 1035,577 1041,575 1047,573 1052,571 1058,570 1064,568 1070,567 1076,565 1081,564 1087,564 1093,563 1098,563 1103,563 1108,564 1113,565 1118,566 1123,568 1127,570 1131,573 1134,576 1137,580 1139,583 1141,586 1142,589 1142,593 1142,596 1141,600 1140,604 1139,608 1137,612 1135,616 1133,620 1130,624 1127,629 1124,633 1121,637 1117,641 1113,645 1110,649 1106,653 1102,657 1094,665 1087,672 1080,678 1073,684 1068,689 1064,692 1060,695 1057,698 1053,701 1049,704 1042,709 1035,714 1027,719 1019,724 1012,728 1004,733 997,737 989,742 981,747 974,751 967,756 959,761 956,764 952,767 949,770 945,772 949,772 953,772 956,772 960,772 964,772 968,772 972,772 976,772 980,773 984,773 988,774 992,775 996,775 1000,776 1004,777 1008,778 1012,779 1016,780 1020,781 1024,783 1028,784 1032,785 1036,787 1040,788 1043,789 1047,791 1051,793 1054,794 1058,796 1061,798 1064,799 1068,801 1070,803 1072,804 1074,806 1076,808 1078,810 1079,812 1081,814 1082,816 1083,818 1084,821 1084,823 1085,825 1086,828 1086,830 1086,833 1086,836 1086,838 1086,841 1085,843 1085,846 1084,849 1083,851 1082,854 1081,856 1080,858 1078,861 1077,863 1075,865 1074,867 1072,869 1070,871 1068,873 1066,874 1064,876 1062,877 1060,878 1058,879 1056,880 1054,881 1052,882 1047,884 1043,885 1039,887 1034,888 1030,889 1025,889 1020,890 1016,890 1007,891 998,892 994,892 991,892 988,893 986,893 984,894 982,895 980,895 979,896 978,897 977,898 976,900 975,901 975,902 975,903 975,905 975,906 976,908 976,909 977,911 977,913 979,916 981,919 985,927 990,934 991,936 992,939 993,941 993,943 994,946 995,948 995,950 996,953 996,955 996,958 996,960 996,963 996,965 996,968 996,970 995,972 995,975 994,977 994,980 993,982 992,984 991,987 990,989 989,991 988,993 986,995 985,998 984,1000 982,1001 980,1003 978,1005 976,1007 973,1010 969,1012 965,1014 960,1015 956,1016 952,1016 947,1016 942,1016 937,1015 932,1014 928,1012 923,1011 918,1009 912,1007 907,1004 902,1002 897,999 892,996 887,993 883,990 878,987 873,984 868,981 864,978 855,971 847,966 840,960 834,956 835,963 837,971 839,978 841,986 841,990 842,994 843,998 843,1002 843,1006 844,1010 844,1014 844,1018 843,1022 843,1026 842,1029 841,1033 840,1036 839,1040 837,1043 835,1046 833,1049 830,1052 828,1054 824,1057 821,1059 817,1061 813,1063 808,1064 803,1066 798,1067 793,1067 788,1068 782,1068 777,1068 772,1067 766,1066 761,1065 755,1064 750,1062 744,1061 739,1059 734,1056 728,1054 723,1052 718,1049 712,1046 707,1043 702,1040 697,1037 692,1034 687,1031 683,1028 678,1024 674,1021 669,1017 665,1014 661,1011 658,1007 654,1004 650,1000 645,995 640,990 635,985 630,979 626,973 621,968 616,962 612,956 608,950 604,944 600,938 596,932 592,925 589,919 585,913 582,906 579,899 576,893 574,886 571,879 569,872 567,865 565,858 563,851 561,844 560,837 559,830 558,823 557,815 556,808 556,801 556,793 "/>
   <polygon class="fil2" points="563,762 571,763 578,763 585,762 592,762 599,760 607,758 614,756 621,753 628,750 636,746 643,742 650,738 657,733 664,728 671,723 677,717 684,712 690,706 697,700 703,694 709,688 715,682 720,676 725,670 731,664 736,658 740,652 745,646 749,641 753,636 756,630 759,626 768,612 776,599 785,586 794,572 802,559 811,545 820,532 830,519 834,512 839,505 844,499 849,492 854,486 859,480 864,473 869,467 874,461 879,455 884,449 890,443 895,437 901,432 906,426 912,421 915,418 918,415 921,413 924,410 927,408 931,405 934,403 937,401 941,399 944,397 947,396 951,394 954,393 957,392 960,391 963,391 966,391 969,391 972,392 975,393 977,394 979,396 981,398 983,401 985,404 987,407 988,411 989,415 990,420 990,426 991,432 991,438 991,446 990,453 990,460 989,467 988,474 988,481 987,488 985,495 984,503 983,510 981,517 979,524 977,531 975,538 972,545 970,552 967,558 964,565 960,572 957,578 953,584 949,591 945,597 941,603 936,609 931,615 926,620 920,626 914,631 908,636 902,641 895,646 902,643 907,640 913,637 918,634 923,631 929,629 934,626 939,624 944,621 949,618 954,616 960,613 965,610 971,607 978,604 984,600 990,598 997,594 1005,590 1014,586 1019,583 1024,581 1030,579 1035,577 1041,575 1047,573 1052,571 1058,570 1064,568 1070,567 1076,565 1081,564 1087,564 1093,563 1098,563 1103,563 1108,564 1113,565 1118,566 1123,568 1127,570 1131,573 1134,576 1137,580 1139,583 1141,586 1142,589 1142,593 1142,596 1141,600 1140,604 1139,608 1137,612 1135,616 1133,620 1130,624 1127,629 1124,633 1121,637 1117,641 1113,645 1110,649 1106,653 1102,657 1094,665 1087,672 1080,678 1073,684 1068,689 1064,692 1060,695 1057,698 1053,701 1049,704 1042,709 1035,714 1027,719 1019,724 1012,728 1004,733 997,737 989,742 981,747 974,751 967,756 959,761 956,764 952,767 949,770 945,772 949,772 953,772 956,772 960,772 964,772 968,772 972,772 976,772 980,773 984,773 988,774 992,775 996,775 1000,776 1004,777 1008,778 1012,779 1016,780 1020,781 1024,783 1028,784 1032,785 1036,787 1040,788 1043,789 1047,791 1051,793 1054,794 1058,796 1061,798 1064,799 1068,801 1070,803 1072,804 1074,806 1076,808 1078,810 1079,812 1081,814 1082,816 1083,818 1084,821 1084,823 1085,825 1086,828 1086,830 1086,833 1086,836 1086,838 1086,841 1085,843 1085,846 1084,849 1083,851 1082,854 1081,856 1080,858 1078,861 1077,863 1075,865 1074,867 1072,869 1070,871 1068,873 1066,874 1064,876 1062,877 1060,878 1058,879 1056,880 1054,881 1052,882 1047,884 1043,885 1039,887 1034,888 1030,889 1025,889 1020,890 1016,890 1007,891 998,892 994,892 991,892 988,893 986,893 984,894 982,895 980,895 979,896 978,897 977,898 976,900 975,901 975,902 975,903 975,905 975,906 976,908 976,909 977,911 977,913 979,916 981,919 985,927 990,934 991,936 992,939 993,941 993,943 994,946 995,948 995,950 996,953 996,955 996,958 996,960 996,963 996,965 996,968 996,970 995,972 995,975 994,977 994,980 993,982 992,984 991,987 990,989 989,991 988,993 986,995 985,998 984,1000 982,1001 980,1003 978,1005 976,1007 973,1010 969,1012 965,1014 960,1015 956,1016 952,1016 947,1016 942,1016 937,1015 932,1014 928,1012 923,1011 918,1009 912,1007 907,1004 902,1002 897,999 892,996 887,993 883,990 878,987 873,984 868,981 864,978 855,971 847,966 840,960 834,956 835,963 837,971 839,978 841,986 841,990 842,994 843,998 843,1002 843,1006 844,1010 844,1014 844,1018 843,1022 843,1026 842,1029 841,1033 840,1036 839,1040 837,1043 835,1046 833,1049 830,1052 828,1054 824,1057 821,1059 817,1061 813,1063 808,1064 803,1066 798,1067 793,1067 788,1068 782,1068 777,1068 772,1067 766,1066 761,1065 755,1064 750,1062 744,1061 739,1059 734,1056 728,1054 723,1052 718,1049 712,1046 707,1043 702,1040 697,1037 692,1034 687,1031 683,1028 678,1024 674,1021 669,1017 665,1014 661,1011 658,1007 654,1004 650,1000 645,995 640,990 635,985 630,979 626,973 621,968 616,962 612,956 608,950 604,944 600,938 596,932 592,925 589,919 585,913 582,906 579,899 576,893 574,886 571,879 569,872 567,865 565,858 563,851 561,844 560,837 559,830 558,823 557,815 556,808 556,801 556,793 "/>
   <polygon class="fil2" points="1137,580 1134,576 1131,573 1127,570 1123,568 1118,566 1113,565 1108,564 1103,563 1098,563 1093,563 1087,564 1081,564 1076,565 1070,567 1064,568 1058,570 1052,571 1047,573 1041,575 1035,577 1030,579 1024,581 1019,583 1014,586 1005,590 997,594 990,598 984,600 978,604 971,607 965,610 960,613 954,616 949,618 944,621 939,624 934,626 929,629 923,631 918,634 913,637 907,640 902,643 895,646 902,641 908,636 914,631 920,626 926,620 931,615 936,609 941,603 945,597 949,591 953,584 957,578 960,572 964,565 967,558 970,552 972,545 975,538 977,531 979,524 981,517 983,510 984,503 985,495 987,488 988,481 988,474 989,467 990,460 990,453 991,446 991,438 991,432 990,426 990,420 989,415 988,411 987,407 985,404 983,401 981,398 979,396 977,394 975,393 972,392 969,391 966,391 963,391 960,391 957,392 954,393 951,394 947,396 944,397 941,399 937,401 934,403 931,405 927,408 924,410 921,413 918,415 915,418 912,421 906,426 901,432 895,437 890,443 884,449 879,455 874,461 869,467 864,473 859,480 854,486 849,492 844,499 839,505 834,512 830,519 820,532 811,545 802,559 794,572 785,586 776,599 768,612 759,626 757,630 754,634 750,638 747,643 743,648 740,653 736,658 732,663 730,669 728,675 726,680 724,686 722,692 719,698 717,704 714,709 711,715 707,720 706,722 704,725 702,727 700,730 698,732 696,735 694,737 692,739 690,741 688,743 686,745 684,747 687,747 690,747 693,747 696,747 700,746 703,746 706,745 710,744 713,743 716,742 720,741 723,740 727,738 730,737 733,735 737,734 743,731 750,727 756,723 763,720 769,716 775,712 780,708 786,704 786,703 787,702 788,701 789,700 790,699 791,699 792,698 794,698 792,699 790,701 788,702 786,704 784,706 783,708 782,710 780,712 778,716 776,721 774,725 772,729 770,734 768,737 765,742 763,746 760,751 757,755 754,759 751,762 748,766 744,769 741,773 737,776 734,779 730,782 726,785 721,788 717,790 712,793 721,793 730,794 740,795 750,795 761,796 772,796 778,796 783,796 789,796 794,796 800,796 806,795 811,795 817,794 822,793 827,793 832,792 837,790 842,789 847,788 851,786 855,784 859,782 863,780 867,777 870,774 866,778 862,781 859,785 856,788 849,795 843,802 840,806 837,809 833,813 830,816 826,819 822,822 820,824 818,826 816,827 813,828 808,831 804,834 799,836 794,838 789,840 785,842 780,844 775,846 770,847 765,849 760,850 755,851 745,853 734,855 737,857 739,859 741,860 743,861 746,863 749,864 751,865 754,866 757,868 760,869 763,870 766,870 769,871 772,872 775,873 778,874 781,874 785,875 788,875 791,876 794,876 797,876 800,877 804,877 807,877 810,877 813,877 815,877 818,876 821,876 824,876 826,875 823,878 820,880 817,883 814,885 811,887 808,889 806,891 803,892 800,894 797,895 795,896 792,898 789,899 786,900 783,900 781,901 778,902 775,902 772,902 769,903 766,903 763,903 760,903 757,902 754,902 751,902 747,901 744,901 740,900 737,899 733,898 729,897 729,901 729,904 729,907 729,911 729,914 730,917 730,921 731,924 732,928 732,931 733,935 734,938 735,942 736,945 737,948 738,952 741,959 744,965 747,972 750,978 753,984 756,990 760,996 763,1002 762,1000 761,999 759,997 758,995 754,990 749,985 743,980 738,974 731,969 725,963 722,960 719,958 715,955 712,953 709,951 706,949 703,947 700,946 698,944 695,943 693,942 691,942 689,942 687,942 686,942 684,943 683,945 681,947 681,950 680,952 680,955 680,958 680,961 681,964 681,967 682,971 684,974 685,978 686,982 688,985 690,989 692,993 694,996 696,1000 698,1004 701,1007 705,1014 710,1020 714,1026 718,1031 720,1033 721,1035 723,1036 724,1038 719,1036 713,1035 707,1033 700,1031 694,1028 686,1025 679,1022 672,1019 675,1022 679,1025 683,1027 686,1030 690,1033 694,1036 699,1038 703,1041 707,1043 711,1046 715,1048 720,1050 724,1052 729,1054 733,1056 738,1058 742,1060 747,1061 751,1063 756,1064 760,1065 765,1066 769,1067 774,1067 778,1068 782,1068 787,1068 791,1068 796,1067 800,1066 804,1065 808,1064 813,1063 817,1061 821,1059 824,1057 828,1054 830,1052 833,1049 835,1046 837,1043 839,1040 840,1036 841,1033 842,1029 843,1026 843,1022 844,1018 844,1014 844,1010 843,1006 843,1002 843,998 842,994 841,990 841,986 839,978 837,971 835,963 834,956 840,960 847,966 855,971 864,978 868,981 873,984 878,987 883,990 887,993 892,996 897,999 902,1002 907,1004 912,1007 918,1009 923,1011 928,1012 932,1014 937,1015 942,1016 947,1016 952,1016 956,1016 960,1015 965,1014 969,1012 973,1010 976,1007 978,1005 980,1003 982,1001 984,1000 985,998 986,995 988,993 989,991 990,989 991,987 992,984 993,982 994,980 994,977 995,975 995,972 996,970 996,968 996,965 996,963 996,960 996,958 996,955 996,953 995,950 995,948 994,946 993,943 993,941 992,939 991,936 990,934 985,927 981,919 979,916 977,913 977,911 976,909 976,908 975,906 975,905 975,903 975,902 975,901 976,900 977,898 978,897 979,896 980,895 982,895 984,894 986,893 988,893 991,892 994,892 998,892 1007,891 1016,890 1020,890 1025,889 1030,889 1034,888 1039,887 1043,885 1047,884 1052,882 1054,881 1056,880 1058,879 1060,878 1062,877 1064,876 1066,874 1068,873 1070,871 1072,869 1074,867 1075,865 1077,863 1078,861 1080,858 1081,856 1082,854 1083,851 1084,849 1085,846 1085,843 1086,841 1086,838 1086,836 1086,833 1086,830 1086,828 1085,825 1084,823 1084,821 1083,818 1082,816 1081,814 1079,812 1078,810 1076,808 1074,806 1072,804 1070,803 1068,801 1064,799 1061,798 1058,796 1054,794 1051,793 1047,791 1043,789 1040,788 1036,787 1032,785 1028,784 1024,783 1020,781 1016,780 1012,779 1008,778 1004,777 1000,776 996,775 992,775 988,774 984,773 980,773 976,772 972,772 968,772 964,772 960,772 956,772 953,772 949,772 945,772 949,770 952,767 956,764 959,761 967,756 974,751 981,747 989,742 997,737 1004,733 1012,728 1019,724 1027,719 1035,714 1042,709 1049,704 1053,701 1057,698 1060,695 1064,692 1068,689 1073,684 1080,678 1087,672 1094,665 1102,657 1106,653 1110,649 1113,645 1117,641 1121,637 1124,633 1127,629 1130,624 1133,620 1135,616 1137,612 1139,608 1140,604 1141,600 1142,596 1142,593 1142,589 1141,586 1139,583 "/>
   <polygon class="fil9" points="712,793 717,790 721,788 726,785 730,782 734,779 737,776 741,773 744,769 748,766 751,762 754,759 757,755 760,751 763,746 765,742 768,737 770,734 772,729 774,725 776,721 778,716 780,712 782,710 783,708 784,706 786,704 780,708 775,712 769,716 763,720 756,723 750,727 743,731 737,734 733,735 730,737 727,738 723,740 720,741 716,742 713,743 710,744 706,745 703,746 700,746 696,747 693,747 690,747 687,747 684,747 686,745 688,743 690,741 692,739 694,737 696,735 698,732 700,730 702,727 704,725 706,722 707,720 711,715 714,709 717,704 719,698 722,692 724,686 726,680 728,675 730,669 732,663 725,671 718,679 714,683 710,687 706,691 702,695 698,699 694,703 690,707 685,710 681,714 677,718 672,721 668,725 663,728 659,732 654,735 649,738 645,741 640,743 635,746 630,749 626,751 621,753 616,755 611,757 606,758 602,760 597,761 592,762 588,762 585,762 581,763 578,763 574,763 571,763 567,762 563,762 556,793 556,800 556,806 557,813 557,819 558,826 559,832 560,839 562,845 563,851 565,857 566,864 568,870 570,876 573,882 575,888 577,894 580,901 584,909 587,916 591,923 595,930 600,937 604,944 608,951 613,957 618,964 623,970 628,977 634,983 639,989 645,995 650,1000 653,1003 655,1005 658,1007 660,1010 663,1012 666,1014 669,1017 672,1019 679,1022 686,1025 694,1028 700,1031 707,1033 713,1035 719,1036 724,1038 723,1036 721,1035 720,1033 718,1031 714,1026 710,1020 705,1014 701,1007 698,1004 696,1000 694,996 692,993 690,989 688,985 686,982 685,978 684,974 682,971 681,967 681,964 680,961 680,958 680,955 680,952 681,950 681,947 683,945 684,943 686,942 687,942 689,942 691,942 693,942 695,943 698,944 700,946 703,947 706,949 709,951 712,953 715,955 719,958 722,960 725,963 731,969 738,974 743,980 749,985 754,990 758,995 759,997 761,999 762,1000 763,1002 760,996 756,990 753,984 750,978 747,972 744,965 741,959 738,952 737,948 736,945 735,942 734,938 733,935 732,931 732,928 731,924 730,921 730,917 729,914 729,911 729,907 729,904 729,901 729,897 733,898 737,899 740,900 744,901 747,901 751,902 754,902 757,902 760,903 763,903 766,903 769,903 772,902 775,902 778,902 781,901 783,900 786,900 789,899 792,898 795,896 797,895 800,894 803,892 806,891 808,889 811,887 814,885 817,883 820,880 823,878 826,875 824,876 821,876 818,876 815,877 813,877 810,877 807,877 804,877 800,877 797,876 794,876 791,876 788,875 785,875 781,874 778,874 775,873 772,872 769,871 766,870 763,870 760,869 757,868 754,866 751,865 749,864 746,863 743,861 741,860 739,859 737,857 734,855 745,853 755,851 760,850 765,849 770,847 775,846 780,844 785,842 789,840 794,838 799,836 804,834 808,831 813,828 816,827 818,826 820,824 822,822 826,819 830,816 833,813 837,809 840,806 843,802 849,795 856,788 859,785 862,781 866,778 870,774 867,777 863,780 859,782 855,784 851,786 847,788 842,789 837,790 832,792 827,793 822,793 817,794 811,795 806,795 800,796 794,796 789,796 783,796 778,796 772,796 761,796 750,795 740,795 730,794 721,793 "/>
   <polygon class="fil5" points="556,791 555,797 555,804 555,811 555,818 555,825 556,831 556,838 558,845 559,852 560,859 562,866 564,873 566,880 569,887 572,894 574,901 577,908 581,915 584,922 588,929 592,936 596,943 600,949 604,956 609,962 614,969 619,975 624,981 629,987 635,993 640,999 646,1005 649,1008 653,1011 656,1015 660,1018 664,1021 669,1025 673,1028 677,1032 682,1035 687,1038 692,1042 697,1045 702,1048 708,1051 713,1054 719,1057 724,1060 730,1062 736,1064 741,1066 747,1068 753,1070 759,1071 764,1073 770,1073 776,1074 782,1074 788,1074 793,1074 799,1073 805,1072 810,1071 813,1070 816,1069 818,1067 821,1066 823,1065 825,1064 828,1062 830,1061 831,1060 833,1058 835,1056 837,1055 838,1053 839,1051 841,1050 842,1048 843,1046 844,1044 845,1042 846,1040 846,1038 847,1036 848,1034 848,1032 849,1029 849,1027 849,1025 850,1023 850,1018 850,1014 850,1011 850,1008 849,1005 849,1001 847,995 845,987 843,980 842,974 840,967 838,962 839,962 840,963 847,968 855,974 863,980 872,985 876,988 881,991 885,994 890,997 895,999 899,1002 904,1004 909,1007 913,1009 918,1011 923,1012 928,1014 932,1015 937,1016 941,1017 946,1017 950,1017 954,1017 959,1016 963,1015 967,1014 971,1012 974,1010 978,1007 973,1009 969,1010 965,1011 960,1012 956,1012 952,1012 948,1012 943,1012 939,1011 935,1010 931,1009 927,1008 923,1006 919,1005 915,1003 911,1001 907,999 903,997 899,994 895,992 891,990 887,987 884,984 880,982 873,977 866,972 859,967 853,962 823,940 827,957 829,965 831,973 833,981 835,989 836,997 837,1001 837,1005 837,1009 838,1012 838,1016 838,1019 838,1023 837,1026 837,1029 836,1032 836,1035 835,1038 834,1041 832,1043 831,1046 829,1048 827,1050 825,1053 823,1055 821,1056 818,1058 815,1060 811,1061 808,1062 803,1063 799,1064 794,1065 790,1065 785,1065 780,1065 775,1064 770,1063 765,1062 760,1061 755,1060 750,1058 745,1056 740,1054 735,1052 730,1049 724,1047 719,1044 714,1041 709,1038 704,1035 699,1032 694,1028 690,1025 685,1022 680,1018 676,1014 671,1011 667,1007 663,1003 659,1000 655,996 650,990 644,985 639,979 634,973 629,967 624,961 619,955 615,949 610,943 606,937 602,931 598,924 594,918 590,911 587,905 584,898 581,892 578,885 575,879 572,872 570,865 568,859 566,852 564,845 562,838 561,832 559,825 558,818 557,811 557,804 556,798 "/>
   <polygon class="fil7" points="992,833 993,833 994,833 996,833 997,834 998,834 999,835 1000,836 1001,837 1002,839 1003,840 1004,842 1005,843 1006,845 1007,847 1007,849 1008,851 1009,853 1009,855 1010,857 1010,859 1010,861 1010,864 1010,866 1010,868 1010,870 1010,872 1010,874 1009,876 1009,878 1008,880 1007,882 1006,883 1014,883 1021,882 1025,882 1029,881 1032,881 1036,880 1039,879 1043,878 1047,877 1050,875 1053,874 1057,872 1058,871 1060,870 1061,869 1063,868 1065,866 1066,865 1068,863 1069,861 1071,859 1072,857 1073,855 1074,853 1075,851 1076,849 1077,847 1077,845 1078,842 1078,840 1078,838 1079,836 1078,834 1078,831 1078,829 1078,827 1077,825 1077,823 1076,821 1075,819 1074,817 1073,815 1071,814 1070,812 1068,810 1067,809 1065,808 1063,806 1059,804 1054,802 1050,800 1046,798 1041,796 1036,794 1031,792 1026,791 1027,792 1027,794 1028,796 1028,797 1028,799 1028,800 1027,802 1027,804 1026,805 1026,807 1025,809 1024,810 1023,812 1022,813 1021,815 1019,816 1018,818 1017,819 1015,821 1014,822 1012,823 1010,825 1009,826 1007,827 1005,828 1003,829 1001,830 1000,831 998,831 996,832 994,833 "/>
   <polygon class="fil7" points="927,952 926,956 925,961 924,965 923,970 922,972 921,975 920,977 919,979 918,980 918,981 917,982 916,983 915,983 914,984 913,985 912,986 910,987 908,987 906,988 904,988 901,989 899,989 896,989 893,988 899,991 904,994 909,997 914,1000 917,1001 919,1002 922,1003 924,1004 927,1005 930,1006 932,1007 935,1008 937,1008 940,1009 942,1009 945,1009 947,1009 949,1009 952,1009 954,1009 956,1009 959,1008 961,1007 963,1006 965,1005 967,1004 969,1003 971,1001 972,1000 974,999 975,997 977,995 978,994 979,992 980,990 981,988 982,987 983,985 984,983 985,981 985,979 986,977 986,975 987,973 987,971 987,969 987,966 987,964 987,962 987,960 987,958 987,956 987,954 986,952 986,950 985,948 984,946 984,944 983,942 982,941 981,940 981,938 980,937 980,936 979,938 978,940 977,942 976,943 974,945 973,946 972,948 970,949 969,950 967,951 966,952 964,953 963,954 961,955 959,956 957,957 956,957 954,958 952,958 950,958 948,958 946,958 944,958 943,958 941,958 939,957 937,957 935,956 933,955 931,954 929,953 "/>
   <polygon class="fil7" points="896,506 900,503 903,501 906,498 910,496 911,495 913,494 915,493 917,493 919,492 920,492 922,491 924,491 925,493 926,495 926,497 926,499 927,501 927,503 927,505 927,506 926,508 926,510 926,512 925,514 925,516 924,517 923,519 923,521 926,518 929,516 931,515 934,513 937,512 939,512 941,511 943,511 945,511 947,512 949,513 950,513 951,515 953,516 954,518 955,520 956,522 957,524 957,526 958,528 958,531 958,534 959,536 959,539 959,542 958,545 958,548 958,551 957,554 957,557 956,560 955,563 957,560 959,556 961,553 962,549 964,546 965,542 967,538 968,535 969,531 971,527 972,524 973,520 975,512 977,505 978,497 979,489 981,482 981,474 982,467 983,459 983,451 983,444 983,438 983,433 983,428 982,424 981,420 980,416 978,413 977,411 975,408 973,406 971,405 969,404 967,403 964,402 962,402 959,402 957,403 954,403 951,404 948,405 945,406 942,408 939,409 936,411 933,413 931,415 928,417 925,419 922,421 919,424 917,426 914,428 909,433 904,438 900,443 895,447 890,452 886,458 882,463 877,468 879,468 880,467 882,467 884,467 886,467 888,467 890,467 891,467 893,468 894,468 895,469 896,470 897,471 898,472 899,473 899,474 900,475 900,477 900,478 900,479 901,481 901,482 900,484 900,486 900,489 899,492 898,499 "/>
   <polygon class="fil7" points="1125,586 1122,583 1120,581 1117,579 1114,577 1111,575 1107,574 1104,573 1100,572 1097,572 1093,571 1089,571 1085,571 1081,571 1077,572 1072,572 1068,573 1064,574 1060,575 1055,576 1051,577 1047,579 1042,580 1038,581 1034,583 1026,586 1018,589 1011,592 1004,596 1007,596 1010,597 1012,598 1013,598 1014,599 1016,600 1017,601 1018,602 1019,603 1020,604 1021,605 1022,606 1023,607 1023,609 1024,610 1024,611 1025,613 1025,614 1025,615 1025,616 1025,618 1025,619 1025,620 1024,621 1024,622 1024,623 1023,624 1021,626 1020,628 1018,630 1017,631 1015,633 1013,634 1011,636 1010,638 1008,640 1011,640 1014,640 1017,640 1019,641 1021,641 1023,642 1025,643 1027,643 1029,644 1030,645 1031,646 1032,647 1033,648 1034,650 1034,651 1035,652 1035,653 1035,655 1035,656 1035,658 1034,659 1033,661 1033,662 1032,664 1031,665 1029,667 1028,669 1026,670 1025,672 1023,673 1021,675 1019,677 1020,678 1021,678 1023,679 1024,680 1025,681 1026,682 1027,683 1027,684 1028,685 1028,687 1029,688 1029,689 1029,690 1029,691 1029,693 1029,694 1029,695 1029,696 1029,698 1028,699 1027,702 1026,705 1024,707 1023,710 1021,713 1018,716 1023,713 1029,709 1034,706 1039,703 1043,699 1048,695 1053,692 1058,688 1062,684 1067,680 1072,675 1079,669 1086,663 1092,656 1096,653 1099,649 1103,645 1106,641 1109,638 1112,634 1115,630 1118,626 1120,623 1122,619 1124,615 1126,611 1127,608 1128,604 1129,601 1129,598 1128,594 1128,591 1126,588 "/>
   <polygon class="fil2" points="641,544 645,543 650,541 654,540 658,538 662,537 667,535 671,533 674,531 678,528 682,526 686,523 689,520 692,517 695,514 698,511 701,508 707,499 712,491 716,481 720,471 722,460 724,449 725,437 725,425 725,413 724,401 722,388 720,376 717,364 714,352 709,340 705,328 699,317 693,306 687,296 680,286 673,277 665,269 656,262 647,256 638,250 629,246 618,243 608,241 597,241 586,241 575,244 563,247 556,250 549,254 542,257 536,262 529,266 522,271 516,277 509,282 503,288 497,295 491,301 485,308 480,315 474,322 469,330 465,338 460,345 456,353 452,361 449,369 446,378 444,386 442,394 440,402 439,411 438,419 438,427 438,435 439,443 441,451 443,458 446,466 449,472 452,477 455,482 459,487 463,492 467,497 472,501 477,506 482,510 488,514 494,518 500,521 506,525 512,528 519,531 526,534 533,536 540,539 547,541 554,542 561,544 569,545 576,546 583,547 591,548 598,548 605,548 612,548 620,547 627,546 634,545 "/>
   <polygon class="fil2" points="464,363 461,363 459,363 456,363 454,363 448,363 443,363 438,362 433,362 428,362 423,362 420,362 418,362 415,362 413,363 411,364 408,364 406,365 404,366 402,367 400,369 398,370 396,372 394,374 392,376 390,379 389,382 394,381 400,381 403,381 405,381 408,381 411,381 413,381 416,381 418,382 421,383 423,384 426,385 427,386 428,386 429,387 430,388 428,388 427,389 425,389 423,389 422,390 420,391 419,391 418,392 416,393 415,394 414,395 412,396 410,399 408,401 405,404 403,407 401,410 399,413 395,419 392,425 394,425 396,424 398,423 401,423 405,421 409,420 414,418 418,417 422,415 427,414 425,415 423,416 422,417 420,418 418,420 417,421 415,423 414,424 412,426 411,428 409,429 408,431 407,433 406,435 405,437 403,439 402,441 401,443 400,445 400,447 399,449 398,451 397,453 397,455 396,457 396,459 395,462 395,464 395,466 395,468 395,470 395,472 404,465 413,458 417,455 421,452 426,449 430,446 432,445 435,444 437,443 439,442 442,441 444,440 447,439 449,438 452,438 454,437 457,437 460,436 462,436 465,436 468,436 471,436 "/>
   <polygon class="fil10" points="733,193 732,193 731,193 730,192 729,192 729,191 728,191 728,190 728,190 728,189 728,188 728,187 728,187 728,186 729,185 729,184 730,183 732,181 734,179 736,177 739,174 741,172 745,169 748,167 752,164 757,161 762,157 766,154 770,151 773,149 775,147 777,146 778,144 780,142 782,140 783,138 785,136 786,134 788,132 789,130 790,128 790,126 791,124 791,121 792,119 792,116 792,114 792,111 791,108 790,105 790,102 788,99 787,96 785,92 784,89 782,85 779,82 777,80 775,77 773,75 770,73 768,71 765,69 762,68 759,67 757,66 754,65 751,64 748,64 745,64 742,64 739,64 735,64 732,65 729,66 726,67 723,68 720,69 717,71 714,72 711,74 708,76 705,78 702,81 700,83 698,85 697,86 696,88 695,91 693,93 692,96 690,100 688,103 685,110 682,119 679,127 675,135 672,144 669,152 666,159 663,165 661,171 659,175 658,176 657,177 656,178 656,178 652,177 649,175 646,173 643,170 640,167 637,163 635,159 632,155 630,151 628,146 626,141 624,136 622,130 620,125 619,119 617,114 614,102 611,90 609,85 607,79 605,73 604,68 602,63 600,58 598,53 596,48 594,44 591,40 589,36 586,33 582,29 578,25 573,21 568,18 563,15 557,12 552,9 546,7 540,5 534,3 528,2 521,1 515,0 509,0 502,0 496,0 490,1 484,2 478,3 472,5 466,7 460,10 455,13 449,16 444,19 440,23 435,28 431,33 427,38 424,44 421,50 418,56 414,68 412,79 411,89 412,99 414,108 417,116 421,124 426,131 432,137 439,143 447,149 455,154 464,159 473,164 482,169 491,173 510,181 529,190 538,194 546,199 554,203 562,208 568,213 574,219 579,225 583,231 586,238 587,246 587,254 586,262 590,257 593,253 597,250 601,248 605,247 609,246 613,246 617,247 621,248 626,249 630,252 635,254 640,257 644,261 649,264 653,268 658,273 662,277 667,282 671,286 679,295 687,304 694,313 701,320 704,324 707,326 709,329 711,331 717,335 722,339 727,341 733,343 738,345 743,346 748,346 753,346 757,345 761,344 766,342 770,340 773,338 777,335 780,332 783,329 786,326 788,322 790,319 791,315 793,311 793,308 794,304 794,300 793,297 792,293 791,290 789,287 787,285 784,282 780,280 776,279 780,280 783,280 786,281 790,281 793,281 795,280 798,280 801,279 803,278 806,276 808,275 810,273 812,271 814,269 816,267 817,264 819,262 820,259 822,256 823,254 824,251 824,248 825,245 826,242 826,239 826,236 826,233 826,230 826,227 826,224 825,221 824,218 823,214 822,211 821,208 820,205 818,202 817,200 815,198 813,196 812,194 810,193 808,192 806,191 804,190 802,189 800,188 798,188 795,187 793,187 791,187 788,187 786,187 783,187 781,188 778,188 767,190 755,192 751,193 748,193 744,194 741,194 739,194 736,194 734,194 "/>
   <polygon class="fil11" points="768,265 770,269 772,273 774,276 775,278 776,280 776,282 777,285 778,287 778,289 778,291 778,294 778,296 778,298 777,301 777,302 776,303 775,305 775,306 774,307 773,308 772,309 771,310 770,311 769,312 768,313 767,314 766,315 765,315 763,316 762,316 760,317 757,318 754,319 751,319 748,319 746,319 743,319 740,318 736,317 732,316 729,314 725,312 722,310 718,307 715,304 712,301 709,298 706,294 703,291 700,287 695,279 689,271 686,267 683,263 680,260 678,256 675,252 672,249 669,246 666,243 662,241 659,238 656,237 652,235 648,234 645,233 641,233 636,233 640,231 643,229 646,227 650,225 653,223 656,221 660,219 663,217 661,217 659,216 657,216 655,215 652,215 648,215 645,215 641,215 638,215 635,216 632,217 629,218 626,219 623,220 616,222 609,224 609,219 608,215 608,210 608,204 608,199 608,194 608,189 607,184 606,189 604,194 603,199 601,204 599,209 598,214 596,218 594,223 593,218 592,214 590,209 589,205 587,201 584,198 582,194 579,191 576,188 573,186 569,183 566,181 562,179 558,177 554,175 550,173 545,172 541,170 537,169 532,167 523,164 514,162 510,160 505,159 501,158 496,156 492,154 488,153 484,151 480,149 477,148 475,146 473,145 470,143 468,142 466,140 463,138 461,136 459,134 457,132 455,130 453,128 451,126 449,124 447,121 445,119 444,116 442,114 441,111 439,109 438,106 437,104 436,101 435,98 434,96 433,93 432,90 432,87 431,85 431,82 431,79 431,76 431,74 431,72 431,70 432,68 433,64 434,59 435,55 437,50 438,46 440,41 443,37 445,32 448,28 450,24 453,20 456,16 458,14 460,12 461,10 463,8 459,10 456,12 452,14 449,16 446,19 442,21 439,24 436,27 433,30 431,33 428,36 426,40 424,44 422,48 420,52 418,56 414,68 412,79 411,89 412,99 414,108 417,116 421,124 426,131 432,137 439,143 447,149 455,154 464,159 473,164 482,169 491,173 510,181 529,190 538,194 546,199 554,203 562,208 568,213 574,219 579,225 583,231 586,238 587,246 587,254 586,262 590,257 593,253 597,250 601,248 605,247 609,246 613,246 617,247 621,248 626,249 630,252 635,254 640,257 644,261 649,264 653,268 658,273 662,277 667,282 671,286 679,295 687,304 694,313 701,320 704,324 707,326 709,329 711,331 717,335 722,339 727,341 733,343 738,345 743,346 748,346 753,346 757,345 761,344 766,342 770,340 773,338 777,335 780,332 783,329 786,326 788,322 790,319 791,315 793,311 793,308 794,304 794,300 793,297 792,293 791,290 789,287 787,285 784,282 780,280 776,279 780,280 783,280 786,281 789,281 792,281 795,280 797,280 800,279 802,278 805,277 807,275 809,274 811,272 813,270 815,268 816,266 818,264 819,261 820,259 822,256 823,254 824,251 824,248 825,245 825,242 826,239 826,236 826,234 826,231 826,228 826,225 825,222 824,228 822,233 821,236 820,239 819,242 818,244 817,247 815,249 814,251 813,254 811,256 809,258 808,260 806,261 804,263 802,264 801,266 799,267 796,268 794,269 792,269 790,270 787,270 785,270 782,270 779,269 777,269 774,268 771,267 "/>
   <polygon class="fil12" points="607,397 607,399 607,400 606,401 606,403 605,404 605,405 604,406 603,407 602,408 601,409 600,409 599,410 597,410 596,411 595,411 593,411 592,411 590,411 589,410 588,410 587,409 585,409 584,408 583,407 583,406 582,405 581,404 580,403 580,401 580,400 579,399 579,397 579,396 580,395 580,393 580,392 581,391 582,390 583,389 583,388 584,387 585,386 587,385 588,385 589,384 590,384 592,384 593,383 595,384 596,384 597,384 599,385 600,385 601,386 602,387 603,388 604,389 605,390 605,391 606,392 606,393 607,395 607,396 "/>
   <polygon class="fil12" points="499,364 499,365 499,366 498,368 498,369 497,370 497,371 496,372 495,373 494,374 493,375 492,376 490,376 489,377 488,377 487,377 485,377 484,377 482,377 481,377 480,376 479,376 477,375 476,374 475,373 474,372 474,371 473,370 472,369 472,368 472,366 471,365 471,364 471,362 472,361 472,359 472,358 473,357 474,356 474,355 475,354 476,353 477,352 479,351 480,351 481,350 482,350 484,350 485,350 487,350 488,350 489,350 490,351 492,351 493,352 494,353 495,354 496,355 497,356 497,357 498,358 498,359 499,361 499,362 "/>
   <polygon class="fil2" points="547,258 545,257 543,257 541,256 539,256 538,256 536,256 534,255 532,255 530,256 529,256 527,256 525,256 521,257 518,258 515,259 511,260 508,262 505,263 502,265 499,267 496,269 494,272 497,272 500,271 504,272 507,272 510,272 513,273 515,273 516,274 518,275 519,275 515,276 512,277 508,279 504,280 501,282 497,283 494,285 491,287 488,289 484,291 481,293 478,295 475,297 472,300 470,302 467,305 468,305 470,306 471,306 473,307 474,307 476,307 478,308 479,308 481,308 483,308 485,307 486,307 490,307 493,306 490,307 487,309 483,311 479,312 476,314 472,316 468,318 465,320 463,321 461,322 460,324 458,325 457,326 455,328 454,329 453,331 452,332 451,334 450,336 449,338 449,339 448,342 448,344 448,346 449,347 450,347 452,348 453,348 455,349 456,349 457,349 459,349 460,349 462,349 463,349 465,348 466,348 468,347 469,346 470,346 "/>
   <polygon class="fil2" points="711,431 713,431 715,431 718,432 720,432 722,433 723,434 725,435 727,436 728,437 729,438 731,439 732,441 733,442 734,444 735,445 736,447 737,449 738,450 738,452 739,454 740,458 741,462 743,470 745,477 743,476 740,475 737,474 734,474 732,473 729,473 726,472 723,472 725,475 727,478 728,481 730,484 731,487 732,489 733,492 733,495 734,498 734,501 734,504 734,508 734,514 734,522 731,520 728,518 725,517 722,515 719,513 715,511 714,510 712,510 711,509 709,508 710,509 711,510 711,511 712,512 713,513 713,515 714,516 714,517 714,519 715,520 715,521 715,523 715,526 715,529 714,532 714,535 713,538 712,541 711,544 710,546 709,549 707,551 705,549 703,546 701,544 699,541 697,538 695,536 693,533 691,531 692,533 693,535 693,538 693,540 693,543 693,545 693,548 693,550 692,552 692,555 691,557 690,559 689,561 688,563 687,564 685,566 684,562 682,559 680,556 678,552 676,549 674,546 671,544 669,541 666,538 663,536 662,535 660,534 659,533 657,532 656,531 654,531 652,530 650,529 649,529 647,528 645,528 643,528 "/>
   <polygon class="fil3" points="371,747 369,750 366,753 363,756 361,758 355,763 349,768 343,773 337,778 331,783 325,788 319,794 312,801 305,807 298,814 291,821 285,828 278,835 271,842 265,850 259,857 252,865 246,872 241,880 235,887 230,895 225,903 221,908 218,913 216,918 214,922 213,926 212,929 211,932 211,935 211,937 212,939 213,941 214,942 216,943 218,944 220,945 223,945 225,946 228,945 231,945 234,945 238,945 241,944 245,943 249,943 256,941 264,939 271,937 279,936 280,940 282,944 283,949 284,953 286,958 287,962 288,967 290,971 292,975 294,979 295,981 296,983 297,985 298,987 299,989 301,991 302,992 304,994 305,995 307,997 309,998 311,999 313,1001 316,1002 318,1003 320,1004 322,1004 325,1005 327,1005 329,1006 331,1006 334,1006 336,1006 338,1006 340,1005 342,1005 344,1004 346,1004 348,1003 350,1002 352,1001 354,1000 356,999 357,997 359,996 360,994 362,993 363,991 364,989 365,987 366,985 367,983 368,981 368,978 371,982 374,985 378,988 381,991 385,993 390,996 394,998 399,1000 404,1002 409,1003 414,1005 419,1006 424,1007 429,1007 434,1007 439,1007 444,1007 449,1006 454,1005 458,1004 462,1002 466,1001 470,998 473,996 477,992 479,989 482,985 484,981 485,976 486,971 486,966 486,960 489,965 492,969 495,972 499,976 504,979 508,982 513,984 518,986 524,988 529,990 535,991 540,992 546,993 552,993 557,993 563,992 568,991 573,990 578,989 582,987 587,985 590,982 594,979 597,976 599,972 601,968 603,963 604,958 604,953 603,948 602,941 600,935 611,936 623,938 628,939 634,939 637,939 639,939 642,939 645,939 647,939 650,938 653,938 655,937 657,936 660,935 662,934 664,933 666,931 668,929 670,928 672,925 674,923 675,920 677,918 678,914 680,911 681,907 681,903 682,899 682,895 683,892 683,888 682,884 682,881 681,877 680,874 679,870 678,867 676,864 675,860 673,857 671,854 669,851 667,848 665,845 662,842 660,839 657,836 655,833 652,831 649,828 646,825 644,823 641,821 638,818 635,816 632,814 623,808 614,801 609,798 604,795 599,792 594,789 589,786 584,783 579,781 574,778 572,777 569,776 566,775 564,774 561,774 559,773 556,772 553,772 "/>
   <polygon class="fil6" points="316,821 319,820 323,818 327,817 330,816 334,815 338,814 340,813 341,813 343,813 345,813 344,816 343,820 343,823 342,826 342,830 342,833 342,837 342,840 342,844 342,847 342,850 343,854 343,857 344,860 345,864 346,867 352,864 360,861 364,859 368,857 372,855 376,853 380,851 383,849 387,847 390,844 393,842 396,840 397,838 399,837 400,836 401,835 406,840 412,845 417,850 423,855 426,857 429,860 432,862 435,864 439,866 442,868 445,869 449,871 447,865 444,858 442,851 440,844 439,840 438,837 437,833 437,829 436,826 436,822 436,821 437,819 437,817 437,816 444,819 450,822 457,825 463,828 469,830 475,833 482,835 488,837 494,839 500,841 506,843 513,845 519,846 526,848 533,850 540,851 536,848 531,844 529,842 526,840 524,838 521,836 519,834 517,832 515,829 514,827 513,826 512,825 511,823 511,822 510,821 510,819 509,818 509,817 513,820 517,823 522,827 527,830 529,831 532,833 535,834 537,835 540,837 543,838 545,839 548,840 551,841 554,842 557,843 559,844 562,845 565,845 568,846 571,846 573,847 576,847 579,847 582,847 584,847 587,846 590,846 592,845 591,843 590,841 589,839 588,837 585,833 583,829 579,824 577,820 575,818 574,816 573,813 572,811 576,813 580,815 584,817 588,819 593,820 598,822 603,824 608,825 614,826 619,828 624,828 630,829 635,830 641,830 643,830 646,830 648,830 651,830 649,827 646,825 644,823 642,821 639,819 637,817 634,816 632,814 623,808 614,801 609,798 604,795 599,792 594,789 589,786 584,783 579,781 574,778 572,777 569,776 566,775 564,774 561,774 559,773 556,772 553,772 381,749 380,749 378,750 376,752 373,754 371,755 369,757 364,761 360,765 356,769 351,774 347,778 343,783 340,787 336,792 332,797 329,802 325,807 322,811 319,816 "/>
   <polygon class="fil2" points="611,809 613,807 614,806 614,804 615,802 616,801 616,799 616,797 616,796 616,794 615,792 615,791 614,789 613,787 613,786 612,784 611,782 608,779 606,776 603,773 600,770 595,765 590,761 587,758 584,755 581,752 579,750 576,747 574,745 572,742 570,739 570,738 569,737 568,735 568,734 567,732 566,730 566,729 565,727 565,723 564,719 564,715 563,711 563,706 563,702 564,697 564,693 565,688 565,684 566,680 567,675 568,671 569,667 570,663 571,658 573,650 576,641 578,633 581,624 583,616 586,607 587,603 588,599 589,594 590,590 591,586 591,582 592,577 592,573 592,570 593,568 593,565 592,563 592,560 592,558 592,555 591,552 591,550 590,547 590,544 589,542 588,539 587,537 586,535 585,533 583,531 582,529 581,527 579,525 578,524 576,523 574,522 572,521 570,520 567,520 565,520 563,520 560,520 557,521 555,522 552,524 550,525 548,526 547,527 545,528 543,529 542,531 540,532 539,534 536,537 533,541 531,544 528,548 523,556 519,564 517,568 514,572 512,575 510,579 503,587 497,596 491,605 484,614 478,623 471,632 465,640 458,649 456,653 453,656 450,659 447,663 444,666 440,669 437,672 434,674 427,680 420,686 417,689 413,691 410,694 407,697 399,705 391,712 384,719 376,726 368,733 360,740 353,747 345,755 343,756 341,759 338,762 335,765 334,767 333,769 332,771 331,772 331,773 330,774 330,775 330,775 330,776 330,777 330,778 331,778 331,779 332,780 333,780 334,781 335,781 337,782 338,782 340,782 341,782 343,782 345,781 347,781 351,780 355,779 358,778 362,777 366,776 369,775 372,773 375,772 377,771 379,770 377,774 375,778 373,782 371,786 370,790 369,794 368,799 367,803 367,807 367,812 366,816 367,820 367,825 367,829 368,834 368,838 371,838 373,838 376,837 378,837 380,836 382,836 384,835 386,834 388,833 390,831 392,830 394,829 395,827 397,825 399,824 400,822 404,818 407,815 410,811 413,807 416,803 419,799 422,795 425,792 425,794 426,797 426,799 427,801 427,804 428,806 429,808 430,810 431,812 432,814 433,816 434,818 436,820 437,821 439,823 440,825 442,826 444,828 446,830 447,831 449,832 451,834 453,835 455,836 459,839 463,841 468,843 472,844 473,837 473,830 473,823 473,815 473,808 473,800 474,793 474,786 478,789 481,792 485,795 489,798 494,801 499,805 503,807 508,810 511,812 513,813 516,814 518,815 521,816 524,817 526,818 529,819 531,819 534,820 536,820 539,821 541,821 544,821 546,821 549,821 548,819 548,817 548,815 548,812 547,808 547,804 547,799 547,795 546,793 546,791 545,790 544,788 547,790 550,792 553,795 557,797 562,800 566,803 569,804 571,805 574,807 576,808 579,809 582,810 584,811 587,812 589,812 591,813 594,813 596,814 598,814 601,814 603,813 605,813 606,812 608,811 610,810 "/>
   <polygon class="fil2" points="606,1322 608,1325 610,1327 612,1330 614,1332 616,1334 619,1336 621,1338 624,1339 627,1341 630,1342 633,1343 636,1344 639,1345 642,1346 646,1346 649,1347 652,1347 656,1347 659,1348 663,1347 666,1347 669,1347 673,1347 676,1346 679,1346 683,1345 686,1344 689,1343 692,1342 695,1341 698,1340 701,1339 705,1337 708,1335 712,1333 715,1331 717,1329 720,1326 722,1324 724,1322 726,1319 727,1317 728,1314 729,1312 730,1309 731,1306 731,1303 732,1300 732,1298 732,1295 732,1292 732,1288 732,1282 731,1275 731,1269 730,1262 729,1254 729,1247 "/>
   <polygon class="fil10" points="525,544 527,543 528,543 529,543 531,543 532,543 533,543 534,544 535,545 536,546 537,547 538,548 539,549 540,551 541,552 541,554 542,555 543,559 544,562 545,565 546,569 546,572 546,574 546,577 546,578 546,580 546,582 546,583 545,585 544,588 543,590 542,593 541,596 539,599 538,601 534,606 531,611 529,614 528,617 526,619 525,622 524,627 522,631 521,636 520,641 518,646 517,651 517,656 516,660 515,665 514,670 514,675 514,681 514,683 514,686 514,688 514,691 514,693 515,696 515,698 516,701 517,703 517,706 518,708 519,710 520,712 521,715 523,717 524,719 525,721 527,723 529,725 531,726 533,728 535,729 537,731 539,732 543,734 547,736 550,737 554,738 557,739 561,740 565,741 568,741 572,741 575,741 579,741 583,741 586,740 590,739 593,738 597,737 600,736 603,735 607,733 610,732 613,730 616,728 619,726 622,723 625,721 628,719 630,716 633,713 635,710 638,707 640,704 642,701 644,699 645,696 646,694 648,691 649,689 650,687 651,684 652,682 653,679 654,677 654,674 655,672 656,667 657,662 657,657 658,652 658,647 658,642 658,637 657,632 657,626 656,621 655,613 653,605 652,600 651,595 650,591 648,586 647,581 645,576 644,571 642,565 640,561 638,556 635,551 633,546 630,542 628,538 625,534 622,530 618,527 615,524 612,521 608,519 604,517 600,516 596,515 591,515 587,515 582,516 577,518 572,520 570,521 565,524 557,528 549,532 540,536 532,540 527,543 "/>
   <polygon class="fil11" points="656,621 655,613 653,605 652,600 651,595 650,591 648,586 647,581 645,576 644,571 642,565 640,561 638,556 635,551 633,546 630,542 628,538 625,534 622,530 618,527 615,524 612,521 608,519 604,517 600,516 596,515 591,515 587,515 582,516 577,518 572,520 570,521 565,524 557,528 549,532 540,536 532,540 527,543 525,544 527,543 528,543 529,543 531,543 532,543 533,543 534,544 535,545 536,546 537,547 538,548 539,549 540,551 541,552 541,554 542,555 543,559 544,562 545,565 546,569 546,572 546,574 546,577 546,578 546,580 546,581 548,580 550,578 551,577 553,576 555,575 557,575 559,574 561,573 565,572 569,571 573,570 577,570 579,569 582,569 584,569 586,569 588,570 591,570 593,571 595,571 597,572 599,572 601,573 603,574 605,575 606,576 608,578 610,579 611,580 613,582 614,583 616,585 617,586 618,588 620,590 621,592 622,594 623,596 624,598 625,600 627,604 629,608 630,611 630,613 631,616 631,618 632,621 632,623 633,626 633,629 633,631 633,634 634,637 634,639 633,645 633,650 632,655 631,661 630,666 629,671 628,674 627,676 626,679 626,681 625,683 624,686 622,688 621,690 620,693 618,696 617,699 615,701 613,704 611,707 609,710 607,712 605,715 603,717 601,720 598,722 596,725 594,727 592,729 590,732 587,734 584,737 581,739 578,741 580,741 582,740 585,740 587,740 589,739 592,739 594,738 596,737 599,736 601,736 603,735 605,734 607,733 610,731 612,730 614,729 616,728 618,726 620,725 622,723 624,722 626,720 627,719 629,717 631,715 633,713 634,711 636,709 638,707 639,705 641,703 642,701 644,699 645,696 646,694 648,691 649,689 650,687 651,684 652,682 653,679 654,677 654,674 655,672 656,667 657,662 657,657 658,652 658,647 658,642 658,637 657,632 657,626 "/>
   <polygon class="fil10" points="408,540 401,542 395,544 389,547 383,551 378,555 373,560 368,565 364,571 360,577 357,583 354,590 351,597 349,604 347,611 345,618 345,625 344,632 344,639 345,645 346,652 348,658 350,664 353,669 356,674 360,678 364,682 369,685 375,688 381,689 388,690 396,690 404,690 411,688 416,686 422,684 426,681 430,678 434,674 437,670 440,665 442,661 444,655 446,650 447,644 448,638 449,632 450,626 450,620 451,607 451,595 451,588 451,582 452,576 452,570 453,564 453,559 454,554 455,549 457,544 459,540 461,536 463,532 "/>
   <polygon class="fil11" points="408,540 404,541 401,542 398,543 394,544 391,546 388,548 385,550 382,552 379,554 376,557 374,559 371,562 369,565 366,568 364,571 362,574 360,579 358,584 357,589 356,593 355,596 355,598 354,601 354,603 354,605 354,608 354,610 354,612 354,617 354,622 355,626 356,630 358,634 359,638 361,641 363,644 365,646 368,649 371,651 373,653 376,654 379,656 383,657 386,658 390,659 393,659 397,660 401,660 404,659 408,659 412,659 416,658 420,657 424,656 428,655 432,653 436,652 439,650 443,648 447,646 447,642 448,639 449,635 449,631 450,623 450,615 451,607 451,599 451,591 451,583 452,575 452,568 453,564 453,561 453,557 454,554 455,551 456,548 457,545 458,542 459,539 460,537 462,534 463,532 "/>
   <polygon class="fil13" points="461,404 464,403 471,400 476,399 481,397 487,395 494,393 497,392 500,391 504,390 507,389 511,388 514,388 517,387 521,387 524,387 527,387 530,387 533,387 536,387 539,388 541,389 544,390 546,391 548,393 551,395 553,397 555,400 558,402 561,406 563,409 566,413 568,417 571,421 573,425 576,429 578,434 580,439 583,444 585,449 587,454 589,459 591,464 593,469 595,474 596,479 598,484 599,489 600,494 601,499 601,504 602,509 602,513 602,518 602,522 601,526 600,530 597,534 594,538 590,542 586,546 581,550 575,554 568,558 562,562 554,566 547,569 538,573 530,576 521,580 512,583 503,586 494,589 485,592 475,595 466,598 457,600 448,602 438,605 430,607 421,609 412,610 404,612 397,613 389,614 383,615 376,616 376,614 377,608 378,600 379,589 380,582 381,576 382,568 384,560 385,552 387,544 389,535 391,527 394,518 396,509 399,500 402,491 406,482 409,473 413,464 417,456 422,448 426,440 431,433 437,426 442,420 448,414 455,409 "/>
   <polygon class="fil13" points="550,508 555,515 560,521 565,526 571,531 576,534 582,537 588,539 594,541 600,542 606,542 612,542 617,541 623,539 628,537 633,535 638,532 642,529 646,525 650,521 653,517 655,512 658,507 659,502 660,497 660,492 660,486 658,481 656,475 653,469 650,463 645,458 639,452 637,450 635,448 633,447 630,445 628,444 626,443 624,442 622,441 620,440 618,440 615,439 613,439 609,438 605,438 596,437 587,437 585,437 583,436 580,436 578,436 575,435 573,434 570,434 568,433 "/>
   <polygon class="fil13" points="461,408 458,403 456,399 453,396 450,394 447,392 444,392 441,392 438,394 435,395 432,398 429,401 426,404 424,408 422,412 420,416 418,420 417,425 416,430 415,435 415,439 415,444 416,448 417,452 419,456 421,460 424,463 428,465 432,467 437,469 443,469 450,469 457,468 "/>
   <polygon class="fil0" points="619,488 618,493 616,497 614,501 611,505 609,509 606,513 603,516 599,520 596,523 593,526 589,529 585,531 582,534 578,536 574,539 570,541 566,543 563,545 559,546 556,548 549,551 543,553 535,556 531,557 531,557 530,557 529,558 528,558 528,559 527,559 527,560 526,561 526,562 525,562 525,563 525,564 525,565 525,566 525,567 525,567 525,568 526,569 526,570 527,571 527,571 528,572 529,572 529,573 530,573 531,573 531,574 532,574 533,574 534,574 535,574 536,574 537,573 540,572 545,571 550,569 554,568 557,566 561,565 564,563 568,561 572,559 576,557 581,555 585,552 589,550 593,547 597,544 602,541 606,537 610,534 613,530 617,526 620,522 624,518 627,513 629,509 632,504 634,498 636,493 636,492 636,491 636,490 636,490 636,489 636,488 635,487 635,486 635,486 634,485 634,484 633,484 632,483 632,483 631,483 630,482 629,482 628,482 627,482 627,482 626,482 625,482 624,483 623,483 623,483 622,484 621,484 621,485 620,486 620,487 619,487 "/>
   <polygon class="fil5" points="399,1069 393,1073 388,1076 385,1078 382,1079 379,1080 376,1081 374,1083 371,1083 367,1084 364,1085 361,1085 358,1086 354,1086 351,1086 349,1086 348,1085 347,1085 345,1085 342,1084 340,1083 337,1082 334,1080 332,1079 329,1077 327,1076 324,1074 322,1073 319,1071 317,1070 315,1070 313,1069 312,1069 311,1069 310,1069 309,1069 307,1069 306,1070 304,1070 301,1072 297,1074 294,1076 290,1078 289,1079 287,1080 285,1080 284,1081 282,1081 280,1081 278,1081 276,1081 274,1082 272,1081 270,1081 268,1081 266,1081 264,1081 262,1080 260,1080 258,1079 256,1078 254,1078 253,1077 251,1076 249,1075 248,1074 247,1073 245,1072 244,1071 243,1070 241,1068 240,1067 239,1065 238,1064 237,1063 236,1061 235,1060 235,1058 234,1056 232,1053 231,1050 230,1046 230,1043 229,1039 229,1036 229,1032 229,1029 229,1026 228,1030 228,1034 227,1038 226,1042 226,1047 225,1051 225,1055 224,1059 224,1061 224,1063 224,1065 225,1067 225,1069 225,1071 226,1073 226,1075 227,1076 228,1078 229,1080 230,1082 232,1084 233,1086 235,1088 237,1089 239,1091 240,1092 243,1094 245,1095 247,1096 249,1097 251,1098 254,1099 256,1100 259,1101 261,1102 264,1102 266,1103 269,1103 272,1103 274,1103 277,1103 280,1103 282,1103 285,1103 287,1102 290,1102 292,1101 294,1100 297,1099 299,1098 301,1096 303,1095 305,1093 307,1092 308,1090 310,1087 314,1090 319,1092 324,1094 330,1097 333,1098 336,1099 339,1100 342,1100 345,1101 348,1102 351,1102 354,1103 357,1103 360,1103 363,1103 366,1103 369,1103 372,1102 375,1101 377,1100 380,1099 382,1098 385,1096 387,1094 389,1092 391,1090 393,1087 394,1084 397,1085 400,1087 402,1088 405,1090 408,1091 410,1091 412,1092 413,1092 415,1092 416,1092 417,1092 419,1092 420,1092 422,1092 423,1091 424,1091 426,1091 427,1090 428,1089 429,1089 431,1088 432,1087 433,1086 434,1084 435,1083 437,1082 435,1083 434,1083 433,1084 432,1085 431,1085 429,1085 428,1086 427,1086 425,1086 424,1086 422,1086 421,1086 419,1086 418,1086 416,1085 415,1085 413,1084 412,1084 411,1083 409,1082 408,1082 407,1081 406,1080 405,1079 403,1078 402,1077 402,1076 401,1075 400,1073 400,1072 399,1071 "/>
   <polygon class="fil5" points="754,1107 755,1110 755,1112 754,1115 754,1117 754,1119 753,1121 752,1123 751,1125 750,1127 749,1129 748,1131 746,1133 745,1134 743,1136 741,1137 740,1138 738,1139 736,1140 734,1141 732,1142 730,1143 727,1143 725,1143 723,1143 721,1143 719,1143 717,1143 714,1143 712,1142 710,1141 708,1140 706,1139 705,1142 704,1144 702,1146 701,1148 700,1150 699,1151 697,1153 696,1154 695,1155 693,1155 692,1156 691,1156 689,1157 688,1157 686,1157 685,1157 681,1156 678,1156 674,1155 671,1154 667,1154 663,1153 661,1153 658,1153 656,1153 654,1153 653,1156 652,1159 650,1162 649,1164 647,1167 645,1169 643,1171 641,1172 639,1174 636,1175 634,1176 631,1176 628,1177 626,1177 623,1178 620,1178 617,1177 614,1177 611,1177 608,1176 606,1175 603,1174 600,1173 597,1172 595,1170 592,1169 590,1167 588,1165 585,1163 583,1161 582,1159 580,1157 581,1160 582,1163 583,1166 585,1168 586,1170 588,1173 590,1175 592,1176 594,1178 597,1180 599,1181 602,1183 605,1184 609,1185 612,1186 616,1187 619,1188 622,1189 626,1189 630,1190 634,1190 638,1190 640,1190 642,1190 644,1190 646,1189 648,1189 650,1188 652,1188 653,1187 655,1186 657,1186 658,1185 659,1184 661,1182 662,1181 663,1180 664,1178 664,1176 665,1174 665,1172 666,1170 667,1171 668,1172 670,1173 672,1173 673,1174 675,1174 677,1175 678,1175 680,1176 682,1176 684,1176 686,1176 687,1176 689,1176 691,1176 693,1175 694,1175 696,1175 698,1174 699,1174 701,1173 702,1172 703,1171 705,1170 706,1169 707,1168 708,1167 709,1165 710,1164 711,1162 711,1161 712,1159 713,1159 714,1160 715,1160 716,1161 717,1161 719,1162 720,1162 721,1162 724,1162 727,1161 730,1161 732,1160 735,1159 738,1158 741,1157 743,1155 745,1154 748,1153 749,1151 751,1149 752,1147 754,1145 755,1143 756,1140 757,1137 757,1135 758,1132 758,1129 758,1126 758,1123 758,1120 757,1117 757,1115 756,1112 755,1110 "/>
   <polygon class="fil5" points="387,1226 384,1230 382,1234 381,1235 380,1237 379,1238 378,1239 377,1240 375,1241 374,1242 374,1242 373,1242 372,1243 371,1243 370,1243 369,1243 368,1243 365,1243 362,1242 359,1242 357,1241 355,1240 354,1239 352,1238 351,1237 350,1236 349,1235 347,1232 344,1230 343,1228 342,1226 340,1225 339,1223 338,1226 337,1229 336,1231 334,1233 332,1234 330,1236 328,1237 325,1238 322,1238 319,1239 316,1239 313,1238 310,1238 307,1237 304,1236 301,1235 298,1234 295,1232 292,1230 289,1228 287,1226 284,1224 282,1221 280,1219 279,1216 277,1213 276,1210 276,1207 276,1203 276,1200 277,1196 278,1192 276,1195 275,1198 273,1202 272,1205 271,1208 270,1211 269,1214 269,1217 268,1218 268,1220 268,1221 268,1223 268,1224 269,1226 269,1228 269,1229 270,1231 270,1232 271,1234 272,1235 273,1237 273,1238 275,1240 276,1241 277,1243 278,1244 280,1246 281,1247 283,1248 285,1249 287,1250 289,1252 291,1253 293,1253 295,1254 298,1255 300,1256 302,1256 305,1257 307,1257 309,1258 312,1258 314,1258 316,1258 319,1258 321,1257 323,1257 325,1256 327,1256 329,1255 331,1254 333,1252 334,1251 336,1250 337,1248 338,1246 339,1248 340,1251 341,1253 343,1255 344,1256 345,1258 347,1259 348,1261 350,1262 352,1263 353,1264 355,1264 357,1265 359,1265 360,1265 362,1265 364,1265 366,1265 368,1265 370,1264 372,1264 374,1263 375,1262 377,1261 379,1260 381,1259 383,1257 384,1256 386,1254 388,1253 389,1251 391,1249 393,1251 395,1253 397,1255 400,1257 402,1259 404,1261 406,1262 409,1263 410,1263 411,1264 413,1264 414,1265 415,1265 416,1265 418,1265 419,1265 421,1265 422,1265 423,1264 425,1264 426,1264 428,1263 430,1262 431,1262 433,1261 434,1260 436,1259 437,1258 438,1257 439,1256 440,1255 441,1254 442,1253 443,1252 444,1251 444,1250 446,1248 447,1245 447,1243 448,1240 448,1237 449,1234 450,1229 451,1223 449,1226 448,1228 447,1231 445,1233 443,1236 442,1238 440,1239 438,1241 436,1242 434,1244 432,1245 430,1246 428,1246 426,1247 424,1247 422,1247 419,1247 417,1247 415,1247 413,1246 410,1245 408,1245 406,1243 404,1242 401,1241 399,1239 397,1237 395,1235 393,1233 391,1231 389,1228 "/>
   <polygon class="fil5" points="588,1305 587,1308 586,1310 585,1313 583,1315 582,1316 580,1317 578,1318 576,1319 573,1319 571,1319 569,1319 567,1319 564,1318 562,1317 560,1316 557,1315 555,1314 553,1313 551,1311 550,1310 548,1308 547,1306 545,1305 544,1303 544,1301 543,1299 543,1297 543,1296 544,1294 545,1292 546,1291 547,1289 547,1287 545,1290 544,1293 542,1296 541,1299 540,1301 540,1302 540,1303 539,1305 539,1306 539,1308 539,1309 539,1310 539,1312 539,1313 539,1314 540,1315 540,1317 541,1318 541,1319 542,1320 543,1321 544,1323 545,1324 547,1325 548,1326 550,1327 552,1328 554,1329 555,1329 556,1330 558,1330 561,1330 564,1330 567,1331 570,1331 573,1331 576,1330 579,1330 580,1330 582,1329 583,1329 583,1328 584,1328 585,1327 585,1327 586,1326 586,1325 585,1324 585,1323 584,1322 585,1324 586,1325 587,1326 588,1327 589,1328 590,1328 591,1329 592,1330 593,1330 594,1331 595,1331 596,1332 597,1332 598,1332 599,1332 600,1332 601,1332 602,1332 603,1332 605,1332 606,1331 607,1331 608,1330 609,1330 610,1329 611,1328 612,1328 613,1327 614,1326 615,1325 616,1324 617,1323 616,1323 615,1323 614,1323 613,1324 612,1324 611,1324 610,1323 608,1323 606,1323 603,1322 601,1321 599,1320 596,1318 594,1317 593,1316 593,1315 592,1314 591,1313 590,1312 590,1311 589,1310 589,1309 589,1308 588,1307 588,1306 "/>
   <polygon class="fil14" points="402,568 403,566 406,561 411,553 418,542 426,529 435,515 441,507 446,500 451,492 457,484 463,476 469,468 475,460 481,452 488,445 494,438 500,431 506,425 513,419 519,414 525,409 531,405 536,401 542,399 547,397 552,396 550,394 548,392 546,391 544,390 542,389 540,388 538,388 536,387 536,388 536,388 535,388 532,389 531,390 529,390 526,392 524,393 521,395 517,397 514,399 510,402 506,405 502,408 497,412 492,417 487,421 482,427 477,433 472,439 466,446 461,454 455,462 449,471 443,480 438,491 432,502 426,513 420,526 414,539 408,553 "/>
   <polygon class="fil5" points="615,261 615,262 615,264 615,265 615,267 615,273 616,279 617,285 617,291 617,294 618,297 618,300 618,302 617,300 616,298 615,296 614,294 611,290 609,287 606,283 604,279 603,277 602,275 601,273 600,271 598,275 596,280 595,284 593,289 592,291 591,294 591,296 590,299 590,301 590,304 590,306 590,308 589,306 589,304 588,301 588,299 586,295 584,290 584,288 583,286 582,284 582,282 581,279 581,277 580,275 580,272 579,273 578,274 577,276 575,277 574,278 573,280 572,281 571,283 570,286 568,289 567,292 566,295 566,291 566,287 566,283 567,279 568,275 569,271 569,268 570,264 567,264 564,265 561,265 558,266 555,267 553,268 550,269 547,270 548,269 550,267 551,266 553,264 555,263 556,261 558,260 560,259 562,258 564,257 566,256 568,256 570,255 572,255 574,255 577,255 575,265 588,260 589,279 598,259 610,276 "/>
  </g>
 </g>
</svg>
