<?xml version="1.0" encoding="UTF-8"?>
<!DOCTYPE svg PUBLIC "-//W3C//DTD SVG 1.1//EN" "http://www.w3.org/Graphics/SVG/1.1/DTD/svg11.dtd">
<!-- Creator: CorelDRAW X6 -->
<svg xmlns="http://www.w3.org/2000/svg" xml:space="preserve" width="30px" height="41px" version="1.1" style="shape-rendering:geometricPrecision; text-rendering:geometricPrecision; image-rendering:optimizeQuality; fill-rule:evenodd; clip-rule:evenodd"
viewBox="0 0 573 785"
 xmlns:xlink="http://www.w3.org/1999/xlink">
 <defs>
  <style type="text/css">
   <![CDATA[
    .fil11 {fill:#8C8C8C}
    .fil0 {fill:#A8A8A8}
    .fil6 {fill:#AAAAAA}
    .fil9 {fill:#B0B0B0}
    .fil13 {fill:#B5B5B5}
    .fil5 {fill:#B6B6B6}
    .fil1 {fill:#B9B9B9}
    .fil3 {fill:#BABABA}
    .fil10 {fill:#BEBEBE}
    .fil4 {fill:#C2C2C2}
    .fil7 {fill:#C7C7C7}
    .fil8 {fill:#C9C9C9}
    .fil2 {fill:#CACACA}
    .fil12 {fill:#CFCFCF}
   ]]>
  </style>
 </defs>
 <g id="Layer_x0020_1">
  <metadata id="CorelCorpID_0Corel-Layer"/>
  <g id="_841299440">
   <polygon class="fil0" points="210,615 210,618 210,620 210,622 210,624 210,626 210,629 210,631 211,633 211,635 211,638 212,640 212,642 213,646 214,651 215,655 216,660 216,664 217,668 218,670 218,673 218,675 218,677 218,679 218,681 218,684 218,686 218,688 218,690 218,691 218,693 218,694 218,695 217,695 217,695 217,696 217,696 217,696 216,696 216,696 215,697 215,697 214,697 211,697 207,698 205,698 202,699 199,699 197,700 194,700 192,700 189,701 186,701 184,701 181,701 180,701 179,701 177,700 176,700 175,700 173,700 172,700 171,699 170,699 168,698 167,698 166,697 164,696 161,695 159,694 157,693 153,691 149,688 147,687 145,685 142,684 140,683 138,682 136,681 135,681 134,681 133,680 131,680 129,680 127,679 124,679 120,679 119,679 117,679 115,679 113,679 111,679 109,679 107,679 106,680 104,680 102,680 100,681 98,681 97,682 95,682 94,683 92,684 91,685 90,686 89,687 88,688 87,689 86,690 86,691 85,693 85,695 85,696 85,697 86,699 86,700 87,701 87,702 88,703 89,704 90,705 91,705 92,706 94,707 95,707 96,707 98,708 99,708 101,708 102,708 103,709 105,709 106,709 108,709 109,709 112,709 114,708 116,708 118,708 121,707 124,707 127,707 129,707 132,707 135,707 138,707 141,707 142,707 144,708 145,708 146,708 148,709 149,709 151,709 152,710 153,710 155,711 156,711 157,712 159,712 160,713 161,714 163,714 160,714 157,715 154,715 150,715 147,716 143,716 141,717 139,717 138,717 136,718 134,718 132,719 130,719 129,720 127,721 125,721 124,722 122,723 121,724 120,725 118,726 117,727 116,728 115,729 115,730 114,731 114,732 113,734 113,735 113,737 113,738 113,740 114,742 114,743 115,745 115,747 116,749 117,750 118,752 119,754 120,755 121,757 122,758 123,760 125,761 126,762 127,763 129,764 130,765 131,765 133,766 134,766 136,766 137,766 139,765 140,764 141,763 142,762 143,762 143,761 143,761 144,760 144,760 144,759 144,759 144,758 144,757 144,756 144,755 144,754 144,753 144,751 144,750 144,749 144,748 144,748 144,747 145,747 145,746 145,746 145,745 146,745 146,744 146,743 147,743 148,742 148,742 149,741 150,741 150,741 152,740 153,739 155,738 157,738 161,736 164,735 168,734 170,733 175,732 180,730 185,728 190,727 192,726 194,725 197,725 199,724 202,724 204,723 206,723 208,723 209,723 209,725 209,726 209,727 209,729 209,730 209,732 208,733 208,737 207,741 206,742 206,744 206,746 205,748 205,749 205,751 205,752 205,754 206,755 206,756 207,757 208,758 209,759 210,760 211,760 213,760 215,760 217,760 220,760 223,759 225,758 228,757 230,756 231,755 233,754 234,753 234,752 235,750 235,749 235,748 235,746 235,745 234,743 234,742 233,740 232,739 230,735 228,732 227,731 227,729 226,728 225,726 224,725 224,723 223,722 223,721 223,719 223,718 223,717 224,716 224,716 225,715 225,715 226,714 226,714 227,713 228,713 228,713 231,712 234,710 236,710 237,709 238,709 238,708 239,708 239,707 240,707 240,706 240,705 241,705 241,704 241,703 241,702 241,701 241,701 241,700 240,700 240,699 240,698 239,697 238,696 237,694 236,693 235,692 234,690 233,689 232,687 231,686 230,685 229,683 229,683 229,682 228,681 228,681 228,679 228,678 227,676 227,675 227,673 227,671 226,669 226,667 226,665 226,664 226,662 226,660 226,658 226,656 226,654 226,651 226,649 226,647 226,645 227,643 227,641 227,639 227,638 228,636 228,634 229,632 229,630 230,629 230,627 231,625 232,624 232,623 "/>
   <polygon class="fil1" points="196,616 197,618 198,620 200,622 201,624 202,625 203,626 203,627 204,628 205,629 206,629 207,630 208,631 209,631 210,632 210,633 211,633 213,634 214,634 215,634 216,635 217,635 218,635 219,635 221,636 222,636 223,636 225,636 226,635 227,635 228,635 229,635 230,635 231,634 231,634 232,634 233,633 234,633 235,632 236,632 237,631 237,631 238,630 239,630 240,629 240,628 241,627 242,627 242,626 244,624 245,623 246,621 247,620 248,618 248,616 "/>
   <polygon class="fil2" points="405,348 400,347 396,347 392,347 388,348 384,348 380,350 376,351 372,353 369,355 365,357 361,359 358,362 354,364 351,367 347,370 344,372 340,375 337,378 333,380 330,382 326,385 323,387 319,388 315,390 312,391 308,392 304,393 300,393 296,393 291,392 287,391 282,389 280,388 278,387 276,386 274,384 272,383 271,381 269,379 268,377 267,375 266,373 265,371 264,368 264,366 263,364 263,361 262,359 262,356 262,354 262,351 262,349 262,346 262,344 262,341 262,338 262,336 263,333 263,331 264,329 264,326 264,324 265,322 265,320 266,316 267,313 268,309 269,305 269,302 270,298 271,295 272,291 273,288 273,286 274,283 274,280 275,278 275,275 276,273 276,270 276,267 276,265 277,263 277,260 276,258 276,256 276,254 276,252 275,251 275,249 274,248 273,246 273,245 272,244 271,243 270,243 268,243 267,242 265,243 264,243 262,244 260,244 258,246 255,247 255,248 254,248 253,249 252,250 251,251 250,251 250,252 249,253 248,254 248,255 247,256 247,257 245,259 244,261 243,263 242,265 242,267 241,270 239,274 238,279 236,281 234,284 232,286 230,289 228,292 226,294 224,297 222,299 220,302 218,304 216,307 214,309 212,312 210,314 207,316 205,318 201,323 197,327 192,331 188,335 184,339 179,343 175,347 171,352 167,356 162,360 158,364 154,369 150,373 146,377 142,382 138,386 134,391 130,395 127,400 123,404 120,409 116,413 113,418 110,423 106,428 103,433 101,438 98,443 95,448 93,453 91,458 89,463 87,468 86,473 85,479 84,484 83,489 82,495 82,500 82,506 82,511 83,517 84,522 85,528 87,534 89,539 91,545 94,551 96,555 98,558 100,562 102,565 105,569 108,572 111,575 114,578 117,581 120,584 123,586 127,589 130,591 134,594 138,596 141,598 145,600 149,602 153,604 157,606 161,608 165,610 169,611 173,613 177,614 182,616 186,617 190,618 194,619 198,620 202,621 206,622 216,624 225,626 235,626 245,627 254,627 264,626 273,625 282,623 291,621 300,618 309,615 318,612 326,608 335,604 343,599 351,594 358,589 366,583 373,577 379,571 386,564 392,557 398,550 403,542 408,534 413,526 417,518 421,509 425,500 428,491 430,482 433,472 434,465 436,457 436,452 437,448 438,443 439,439 439,434 440,429 440,425 441,420 441,415 441,410 441,405 441,401 441,396 440,391 440,387 439,383 438,378 436,374 434,371 432,367 430,364 428,361 425,358 421,355 418,353 414,351 409,349 "/>
   <polygon class="fil2" points="83,481 81,485 80,488 78,491 76,494 75,497 73,500 73,502 72,503 72,505 71,506 71,508 70,509 70,511 69,512 69,514 69,516 68,517 68,519 68,521 68,522 68,524 68,526 67,528 67,530 67,532 68,534 70,533 72,532 75,531 77,530 79,529 81,528 83,527 84,527 85,526 86,526 85,529 85,531 85,533 84,536 84,538 84,541 84,543 84,545 84,547 84,548 84,549 84,550 84,551 84,552 85,554 85,555 85,556 86,557 86,558 86,559 87,561 87,562 88,563 88,564 89,563 90,562 91,561 92,560 94,557 95,555 97,553 99,550 100,549 101,548 101,547 102,547 "/>
   <polygon class="fil2" points="361,580 363,580 364,580 366,580 367,580 369,579 371,579 373,578 374,577 376,576 378,575 380,574 382,573 383,571 385,570 387,569 389,567 390,566 392,564 394,562 395,561 397,559 398,557 399,556 401,554 402,553 403,551 404,549 405,548 405,546 406,545 407,543 407,542 405,543 402,545 401,545 400,546 399,546 397,547 396,547 395,547 394,548 392,548 391,548 390,548 388,548 387,548 390,547 393,546 396,545 399,543 402,542 405,541 408,539 410,538 412,537 413,536 414,535 416,534 417,533 418,532 420,531 421,530 422,529 423,528 424,527 426,526 427,525 428,524 429,522 430,521 431,519 433,517 433,516 434,515 434,514 434,513 435,513 435,512 435,511 435,511 435,510 435,510 435,509 434,509 434,509 434,508 433,508 433,508 432,508 432,507 431,507 430,507 429,507 427,507 424,507 422,507 "/>
   <polygon class="fil0" points="304,618 305,620 306,621 308,623 309,625 311,627 312,628 314,630 315,631 317,633 318,635 320,636 322,638 325,641 329,644 332,646 335,649 339,652 342,655 343,657 345,659 346,660 348,662 349,663 351,665 352,667 353,669 356,672 357,674 358,675 358,676 358,677 358,677 358,677 358,678 358,678 358,678 358,679 358,679 357,680 356,680 354,682 352,685 350,687 348,690 346,692 344,694 342,696 341,698 339,700 337,702 336,702 335,703 334,704 333,705 332,705 331,706 330,707 329,707 328,708 327,709 325,709 324,710 323,710 321,710 320,711 318,711 316,711 313,712 311,712 308,712 304,712 299,713 296,713 294,713 292,714 289,714 288,714 287,714 286,715 285,715 284,715 283,716 282,716 281,717 279,718 276,719 274,721 271,723 270,724 268,725 267,726 265,727 264,728 263,729 261,731 260,732 258,734 257,735 256,736 255,738 254,739 253,741 252,742 252,743 251,745 251,746 250,748 250,749 250,751 251,752 251,753 252,755 253,756 254,757 254,758 256,759 257,760 258,761 259,761 260,761 261,761 263,761 264,761 265,761 266,761 268,760 269,760 270,759 272,759 273,758 274,757 275,756 277,756 278,755 279,754 280,753 282,751 284,750 286,748 287,747 289,745 291,743 293,741 295,739 297,737 300,736 302,734 304,733 306,732 307,731 308,731 310,730 311,730 312,729 313,728 315,728 316,727 318,727 319,727 320,726 322,726 323,726 325,725 326,725 324,727 322,729 319,731 317,733 314,736 312,738 310,740 309,741 308,743 307,744 306,746 305,747 304,749 303,750 302,752 301,753 300,755 299,756 299,758 298,759 298,761 297,762 297,764 297,765 297,767 298,768 298,769 299,770 299,772 300,773 301,774 302,775 304,777 305,778 307,779 308,780 310,781 311,782 313,782 315,783 317,784 319,784 321,785 322,785 324,785 326,785 328,785 329,785 331,785 332,784 333,784 335,783 336,782 337,781 338,780 338,779 339,777 339,775 339,775 339,774 339,774 339,773 339,773 339,772 338,772 338,771 338,770 337,769 336,768 335,768 335,767 334,766 333,765 332,764 332,763 332,763 332,762 331,762 331,761 331,761 331,760 331,760 331,759 331,758 331,757 331,757 331,756 332,755 332,754 332,753 333,752 334,750 335,749 336,747 338,744 340,741 342,738 344,736 346,732 349,727 352,723 355,719 357,717 358,715 360,713 361,711 363,709 364,707 366,706 368,704 369,704 369,705 370,706 371,707 372,708 373,710 373,711 374,713 376,716 377,719 378,721 379,723 380,724 380,726 381,727 382,728 383,730 384,731 385,732 386,732 387,733 389,733 390,733 391,733 393,732 394,731 396,730 397,729 399,727 401,725 403,722 404,720 405,718 406,716 406,714 406,713 406,711 405,710 405,709 404,708 403,707 402,706 401,705 399,704 398,703 396,702 393,701 389,700 388,699 386,698 385,698 383,697 382,696 380,696 379,695 378,694 377,693 377,692 376,691 376,689 376,689 376,688 376,688 376,687 377,686 377,686 377,685 377,684 379,682 381,679 381,677 382,676 382,675 382,675 383,674 383,673 383,672 383,672 383,671 382,670 382,670 382,669 381,668 381,667 380,667 380,667 379,666 379,666 378,666 376,665 375,665 373,664 372,664 370,663 368,663 367,662 365,662 363,661 362,661 361,660 360,660 359,660 359,659 358,659 357,658 356,657 355,656 353,655 352,653 351,652 350,651 348,649 347,648 346,646 345,645 343,643 342,642 341,640 340,638 339,637 337,635 336,633 335,632 334,630 333,628 332,627 331,625 331,623 330,621 329,620 328,618 328,616 327,615 327,613 327,611 326,610 "/>
   <polygon class="fil3" points="505,265 503,271 500,277 498,283 495,289 493,294 490,300 487,306 484,311 481,317 477,322 474,328 471,333 467,338 463,344 462,346 460,349 458,351 456,354 453,358 450,362 446,366 443,370 441,371 440,373 438,375 436,377 434,379 432,381 430,383 428,385 426,386 424,388 422,390 420,391 418,393 416,394 414,396 412,397 409,398 407,399 405,400 402,402 400,402 398,403 395,404 393,405 391,405 388,406 387,406 385,406 384,407 382,407 382,407 381,407 380,407 380,407 379,406 378,406 378,406 377,406 377,406 376,405 376,405 376,404 375,404 375,403 375,403 375,402 375,402 375,401 375,401 375,401 375,400 376,399 376,397 377,396 378,395 379,394 381,391 383,389 384,388 384,387 385,386 385,385 387,383 388,381 389,378 390,376 392,372 394,367 396,362 398,358 400,353 402,349 403,345 405,340 407,336 408,332 410,328 411,324 413,319 414,315 416,311 417,306 418,302 419,298 420,294 422,289 423,285 424,280 425,274 427,267 428,261 430,254 431,247 433,240 434,237 435,233 436,230 437,227 438,223 439,220 441,217 442,213 443,210 444,207 446,204 447,200 449,197 451,194 452,191 454,189 456,186 458,183 460,180 462,178 463,176 465,175 466,173 468,172 469,171 471,171 472,170 474,169 475,169 477,169 478,168 480,168 481,168 483,169 484,169 485,169 487,170 488,170 490,171 491,172 493,172 494,173 495,174 496,175 498,176 499,178 500,179 501,180 502,181 503,183 504,184 505,186 507,188 508,190 509,193 510,195 511,198 512,200 512,203 513,205 513,208 514,210 514,213 514,215 515,218 515,220 515,223 514,225 514,228 514,230 514,233 513,235 513,238 512,240 512,243 511,246 511,248 510,251 509,253 509,256 508,258 507,261 506,263 "/>
   <polygon class="fil3" points="407,348 406,350 405,352 404,353 403,355 402,357 400,358 399,360 398,361 396,363 395,365 392,367 390,369 388,371 387,372 386,373 384,375 382,376 381,377 379,378 378,380 376,381 374,382 373,382 371,383 370,384 368,384 367,385 365,385 364,385 363,384 361,384 360,383 359,382 358,381 358,379 357,378 357,377 357,376 357,375 357,375 357,374 357,373 357,372 357,371 357,370 358,368 358,367 359,365 360,362 362,359 362,357 363,356 364,354 364,353 364,351 365,349 365,348 365,346 366,342 366,339 366,335 366,331 366,328 366,324 367,320 367,315 367,311 367,306 367,302 367,297 368,292 368,288 368,283 368,279 368,274 368,270 368,265 368,261 368,256 368,251 368,247 368,243 369,238 369,234 369,229 369,225 370,220 370,216 371,212 371,207 372,203 373,198 374,194 375,190 375,188 376,185 377,183 377,181 378,179 379,177 380,174 381,172 382,170 383,168 385,167 386,165 387,163 389,162 390,161 392,160 393,159 395,158 396,157 398,157 400,156 401,156 403,156 404,156 406,157 408,157 409,158 411,159 412,160 414,161 415,163 416,165 418,167 419,169 420,171 421,174 423,177 424,180 425,183 426,187 427,190 428,193 428,197 429,200 430,203 430,207 431,210 431,213 432,217 432,220 432,224 432,227 433,230 433,234 433,237 433,241 433,244 432,248 432,251 432,254 432,258 431,261 431,264 430,268 430,271 429,275 428,278 428,281 427,286 426,290 425,294 424,299 423,303 422,307 421,312 420,316 419,320 418,324 417,326 416,328 415,330 415,333 414,335 413,337 412,339 411,341 410,343 409,345 408,346 "/>
   <polygon class="fil3" points="539,313 535,317 532,321 528,326 525,330 521,334 517,338 513,341 510,345 507,348 505,350 502,353 499,355 497,358 494,360 491,363 489,365 486,368 483,370 481,372 478,375 475,377 473,380 470,382 467,385 465,387 463,390 460,392 457,394 456,395 455,396 453,397 452,398 451,399 449,400 448,401 446,401 445,402 443,403 442,403 440,404 439,404 437,404 435,404 434,404 432,404 431,404 429,404 427,404 426,403 424,402 422,402 421,401 419,400 418,399 417,398 417,397 416,396 416,395 415,394 415,392 415,391 415,390 415,388 416,387 416,385 416,384 417,382 418,381 418,379 419,378 420,376 420,375 422,372 423,369 425,366 427,364 428,362 429,360 430,357 432,353 433,351 435,348 436,345 438,342 440,339 441,336 443,333 444,330 446,327 448,324 449,321 451,318 452,315 454,312 457,306 460,301 464,295 467,290 469,287 471,284 473,281 474,279 476,276 478,273 480,271 482,268 484,265 486,263 488,260 490,258 492,255 494,253 497,251 499,248 501,246 503,244 506,241 508,239 510,237 513,235 516,233 518,231 519,230 520,229 522,228 523,227 524,226 526,225 528,225 529,224 531,223 532,222 534,222 536,221 537,220 539,220 541,219 543,219 544,218 546,218 548,218 550,218 551,218 553,218 555,218 556,218 558,219 559,219 561,220 562,220 564,221 565,222 566,223 567,224 569,227 570,229 571,232 572,234 572,237 573,240 573,243 573,246 572,249 572,252 571,255 570,258 569,261 568,265 567,268 565,271 564,274 562,277 561,280 559,283 557,287 555,289 554,292 552,295 550,298 548,300 547,303 545,305 542,309 "/>
   <polygon class="fil4" points="206,326 205,325 204,324 203,324 202,323 202,322 201,321 200,320 199,319 198,316 197,314 195,311 194,309 193,306 191,304 190,301 189,299 187,294 185,290 183,286 182,282 180,278 178,274 177,270 175,267 174,263 172,259 171,255 169,251 168,247 166,243 164,239 163,236 161,232 159,228 158,224 156,220 154,216 152,212 150,208 149,204 147,200 145,197 143,193 141,189 139,185 137,181 135,177 133,173 131,169 129,164 128,162 126,159 125,156 123,152 122,151 121,149 119,147 118,146 117,144 116,142 115,141 113,139 112,138 111,136 109,135 108,134 106,133 105,132 103,131 102,130 100,129 98,129 97,129 95,129 93,129 91,129 90,130 88,131 86,132 85,132 84,133 82,135 81,136 80,137 79,138 79,140 78,141 77,143 77,144 76,146 76,148 76,149 75,151 75,153 75,154 75,156 75,158 75,160 75,162 75,163 75,165 75,167 75,170 76,173 76,176 76,179 77,183 78,186 78,190 79,194 80,197 81,201 82,204 83,208 84,211 85,215 86,218 87,222 89,225 90,229 91,232 93,235 94,239 96,242 97,245 99,248 100,251 102,254 103,257 105,260 107,264 108,267 110,270 112,273 114,276 116,279 117,282 119,285 119,283 118,280 117,278 115,275 113,272 111,270 109,267 106,264 104,262 101,259 98,257 95,254 91,252 88,249 85,247 81,245 77,243 74,241 70,239 66,237 63,235 59,233 55,232 52,230 48,229 45,228 42,227 38,226 35,226 33,225 30,225 27,225 24,225 21,226 19,226 16,227 14,228 12,229 10,230 8,231 6,233 5,234 4,236 3,238 2,240 1,241 1,243 0,245 0,247 0,250 0,252 0,254 1,256 1,258 2,260 3,262 4,264 5,266 6,268 8,270 9,272 11,273 12,275 14,276 19,280 24,283 28,286 32,289 35,292 38,294 41,296 44,299 47,301 51,303 54,305 57,307 61,309 65,312 69,314 74,317 73,317 73,316 72,316 71,316 69,316 68,316 67,316 65,316 64,316 62,316 60,316 59,317 57,317 55,317 53,318 51,318 50,319 48,320 46,320 44,321 42,322 41,322 39,323 38,324 36,325 35,325 34,326 32,327 31,328 30,329 30,330 29,330 28,333 27,335 27,337 27,339 27,341 28,343 29,344 30,346 32,347 34,349 36,350 38,351 40,352 42,354 45,355 48,356 51,356 53,357 56,358 59,359 62,359 65,360 68,361 70,361 76,362 80,363 84,364 87,364 87,364 87,365 87,365 87,365 86,365 86,366 84,367 82,369 79,370 77,371 75,372 75,372 74,373 73,374 72,375 71,376 70,376 70,377 69,378 68,379 68,380 67,381 66,383 66,384 65,385 65,386 65,387 64,388 63,392 63,395 64,399 65,402 67,404 69,406 72,408 75,410 79,411 83,413 88,414 92,414 97,415 102,415 107,415 113,415 118,415 124,414 129,414 135,413 140,412 146,411 151,410 156,409 160,407 165,406 169,405 173,403 176,402 179,400 182,399 184,397 "/>
   <polygon class="fil5" points="185,290 183,286 182,282 180,278 178,274 177,270 175,267 174,263 172,259 171,255 169,251 168,247 166,243 164,239 163,236 161,232 159,228 158,224 156,220 154,216 152,212 150,208 149,204 147,200 145,197 143,193 141,189 139,185 137,181 135,177 133,173 131,169 129,164 128,162 126,159 125,156 123,152 122,151 121,149 119,147 118,146 117,144 116,142 115,141 113,139 112,138 111,136 109,135 108,134 106,133 105,132 103,131 102,130 100,129 98,129 97,129 95,129 93,129 91,129 90,130 88,131 86,132 85,132 84,133 82,135 81,136 80,137 79,138 79,140 78,141 77,143 77,144 76,146 76,148 76,149 75,151 75,153 75,154 75,156 75,158 75,160 75,162 75,163 75,165 75,167 75,170 76,173 76,176 76,179 77,183 78,186 78,190 79,194 80,197 81,201 82,204 83,208 84,211 85,215 86,218 87,222 89,225 90,229 91,232 93,235 95,239 96,243 98,247 100,251 102,255 104,259 106,263 108,267 106,265 104,263 102,261 100,259 98,257 95,255 93,253 90,251 87,249 85,247 82,246 79,244 76,242 74,241 71,239 68,238 65,236 62,235 59,233 56,232 54,231 51,230 48,229 46,228 43,227 41,227 38,226 36,226 34,225 31,225 29,225 27,225 24,225 21,226 19,226 16,227 14,228 12,229 10,230 8,231 6,233 5,234 4,236 3,238 2,240 1,241 1,243 0,245 0,247 0,250 0,252 0,254 1,256 1,258 2,260 3,262 4,264 5,266 6,268 8,270 9,272 11,273 12,275 14,276 19,280 24,283 28,286 32,289 35,292 38,294 41,296 44,299 47,301 51,303 54,305 57,307 61,309 65,312 69,314 74,317 73,317 73,316 72,316 71,316 69,316 68,316 67,316 65,316 64,316 62,316 60,316 59,317 57,317 55,317 53,318 51,318 50,319 48,320 46,320 44,321 42,322 41,322 39,323 38,324 36,325 35,325 34,326 32,327 31,328 30,329 30,330 29,330 28,333 27,335 27,337 27,339 27,341 28,343 29,344 30,346 32,347 34,349 36,350 38,351 40,352 42,354 45,355 48,356 51,356 53,357 56,358 59,359 62,359 65,360 68,361 70,361 76,362 80,363 84,364 87,364 87,364 87,365 87,365 87,365 86,365 86,366 84,367 82,369 79,370 77,371 75,372 75,372 74,373 73,374 72,375 71,376 70,376 70,377 69,378 68,379 68,380 67,381 66,383 66,384 65,385 65,386 65,387 64,388 63,392 63,395 64,399 65,402 67,404 69,406 72,408 75,410 79,411 83,413 88,414 92,414 97,415 102,415 107,415 113,415 118,415 124,414 129,414 135,413 140,412 146,411 151,410 156,409 160,407 165,406 169,405 173,403 176,402 179,400 182,399 184,397 206,326 205,325 204,324 203,324 202,323 202,322 201,321 200,320 199,319 198,316 197,314 195,311 194,309 193,306 191,304 190,301 189,299 187,294 "/>
   <polygon class="fil6" points="206,326 205,325 204,324 203,323 202,322 201,321 200,320 199,318 198,317 197,316 197,314 196,313 195,311 194,308 192,305 190,304 188,302 187,301 185,299 183,298 181,296 179,295 178,293 176,291 174,290 173,288 171,286 170,284 168,283 167,281 165,279 164,277 163,276 162,274 161,273 160,271 159,269 158,268 158,266 156,263 154,259 153,256 151,253 150,249 149,246 147,242 146,239 144,235 143,232 141,229 140,225 139,230 139,235 139,239 139,245 139,247 139,250 139,252 139,255 139,257 139,260 139,263 140,265 140,268 140,271 141,273 141,276 142,278 142,281 143,283 143,286 144,288 145,290 145,293 146,295 147,297 148,299 149,301 150,303 149,302 147,300 146,298 144,297 141,293 138,289 136,287 134,285 133,283 131,282 130,280 128,278 126,277 125,276 125,277 125,278 125,280 125,281 125,282 126,284 126,285 126,286 127,288 127,289 128,290 128,291 129,293 129,294 130,295 130,296 131,299 133,301 134,303 136,306 137,308 139,310 140,312 142,314 141,313 140,313 139,312 139,311 138,311 136,310 135,310 134,309 132,308 130,307 127,306 125,305 120,304 115,302 113,301 110,301 108,300 106,299 104,298 102,297 100,296 98,295 94,293 90,290 86,288 82,286 80,285 78,284 76,283 74,282 75,284 77,286 78,288 80,290 81,292 83,294 85,296 86,298 88,300 90,302 92,304 94,306 96,308 98,309 100,311 102,313 105,314 107,316 109,317 111,319 114,320 116,321 119,322 121,323 123,324 126,325 128,326 131,326 133,327 136,327 139,327 141,327 140,329 138,330 137,331 136,332 134,332 133,333 131,334 130,335 128,335 127,336 125,336 124,336 122,337 121,337 119,337 117,338 114,338 111,338 108,339 105,339 102,339 98,340 97,340 95,341 93,341 92,342 93,342 93,343 94,344 95,345 97,345 98,346 99,347 100,347 102,348 103,348 105,349 106,349 108,349 109,350 111,350 112,350 114,350 116,350 117,350 119,350 120,351 122,351 124,350 125,350 126,350 128,350 129,350 131,350 132,350 133,349 134,349 135,349 133,350 132,352 130,354 128,356 127,358 125,360 124,362 122,363 119,367 116,371 114,373 112,375 111,377 109,379 110,379 111,379 112,379 113,379 114,379 115,378 116,378 117,378 120,378 122,377 124,376 126,376 129,375 131,374 133,373 135,372 139,370 143,369 142,371 140,373 138,375 136,377 134,379 132,381 130,382 128,384 126,386 124,388 122,389 120,391 118,392 116,394 113,395 111,397 113,397 114,397 115,397 117,397 119,398 122,398 124,399 127,400 130,400 132,401 135,402 137,402 140,403 143,404 145,404 148,405 149,405 151,405 152,405 153,405 155,405 157,405 158,405 160,405 162,405 163,405 165,405 167,405 170,405 172,404 175,403 177,402 179,401 181,399 182,399 182,398 183,398 184,397 "/>
   <polygon class="fil7" points="93,202 92,199 91,196 90,195 90,193 89,191 89,189 89,187 89,185 89,184 89,183 89,183 89,182 89,181 89,180 89,179 89,179 89,178 90,177 90,177 91,176 91,175 92,175 93,174 93,174 94,174 95,174 95,174 96,174 97,174 97,174 98,174 98,175 99,175 100,176 100,176 101,177 102,178 103,179 104,181 105,182 107,185 108,187 107,184 106,180 105,178 105,176 104,173 104,171 104,170 104,169 104,168 104,167 104,166 104,165 104,164 104,163 105,162 105,161 106,160 106,160 107,159 107,159 108,158 109,158 110,158 110,158 110,158 111,158 112,158 112,158 113,158 113,158 114,159 115,159 117,160 118,160 119,161 120,162 121,163 123,164 124,165 125,167 126,168 127,169 127,168 126,167 126,166 125,165 124,163 123,160 121,158 120,155 119,153 118,152 117,150 116,149 115,147 114,146 113,145 112,143 111,142 110,141 108,140 107,139 106,138 105,137 103,136 102,136 100,135 99,135 98,135 96,135 95,135 93,135 92,135 90,136 89,137 87,138 86,139 85,139 84,141 84,142 83,143 82,144 82,145 81,146 81,148 80,149 80,151 80,152 79,154 79,155 79,157 79,158 79,160 79,161 79,164 79,167 79,170 80,173 80,175 80,178 81,180 81,182 81,184 82,186 82,186 83,186 83,187 84,187 84,187 85,188 85,188 86,188 87,189 87,190 88,192 89,193 89,194 90,195 90,196 91,198 92,200 "/>
   <polygon class="fil7" points="29,263 28,262 27,261 26,260 26,260 25,259 25,258 25,258 24,257 24,257 24,256 24,255 25,255 25,254 25,254 25,254 26,253 26,253 27,252 27,252 28,252 29,252 29,251 30,251 31,251 31,251 32,251 33,251 34,251 35,251 35,251 36,251 37,251 36,250 35,249 34,248 33,247 31,246 30,245 29,244 28,243 28,242 28,242 27,241 27,241 27,240 27,240 27,239 27,238 27,238 27,237 27,236 28,236 28,235 29,234 29,233 30,233 31,232 32,231 30,231 29,231 27,231 26,231 24,231 21,231 19,232 17,232 15,233 14,234 12,235 11,236 10,237 9,238 8,239 7,241 6,242 6,244 5,245 5,247 5,248 5,250 5,251 5,253 6,255 6,256 6,258 7,260 8,261 9,263 10,264 11,265 12,267 13,268 14,269 16,270 16,271 16,271 16,269 16,268 17,267 17,266 18,265 18,264 18,264 19,264 19,263 19,263 20,263 20,262 21,262 21,262 22,262 22,262 23,262 23,262 24,262 24,262 25,262 26,262 26,262 27,262 28,262 "/>
   <polygon class="fil7" points="39,337 39,336 38,335 38,335 37,334 37,334 37,333 36,333 36,332 36,331 36,331 37,330 37,329 37,329 37,328 38,328 38,327 37,328 36,328 35,329 34,330 33,330 32,331 31,332 31,333 30,333 30,334 30,334 30,335 30,336 29,336 29,337 29,337 29,338 29,338 29,339 29,339 30,340 30,340 30,341 30,341 30,342 31,342 31,343 31,343 32,344 33,345 34,346 35,346 36,347 38,348 37,347 37,346 36,345 36,344 36,343 35,343 35,342 35,341 35,341 35,340 35,340 35,340 36,339 36,339 36,339 36,338 36,338 37,338 37,338 37,337 38,337 38,337 39,337 "/>
   <polygon class="fil7" points="91,399 90,399 89,399 88,399 87,398 87,398 86,398 85,398 85,398 84,397 83,397 83,397 82,396 82,396 81,396 81,395 81,395 80,394 80,394 80,393 80,393 80,392 80,392 80,391 80,390 80,390 80,389 81,389 81,388 81,387 82,387 82,386 83,385 82,386 81,386 80,386 79,386 78,386 78,386 77,385 76,385 75,385 75,384 74,384 74,384 73,383 73,383 72,382 72,381 71,382 71,383 70,384 70,385 70,386 69,387 69,388 69,389 68,390 68,391 68,392 68,393 68,394 68,395 68,396 69,397 69,398 69,399 70,400 70,401 71,401 71,402 72,403 73,404 74,404 74,405 75,405 76,406 77,406 78,407 80,407 81,408 82,408 83,408 84,409 86,409 87,409 88,410 90,410 91,410 91,409 90,409 89,408 89,408 89,407 88,406 88,405 88,405 88,404 88,403 88,402 88,402 89,401 89,400 90,399 "/>
   <polygon class="fil8" points="263,356 267,356 270,356 273,356 277,356 280,355 284,354 287,353 290,352 294,350 297,349 300,347 304,345 307,342 310,340 313,338 317,335 320,333 323,330 326,327 328,324 331,322 334,319 337,316 339,313 341,310 344,308 346,305 348,302 350,300 352,297 353,295 355,292 359,286 363,280 367,274 371,267 375,261 379,255 383,249 388,242 390,239 392,236 394,233 397,230 399,227 401,224 404,221 406,218 408,215 411,213 413,210 416,207 418,204 421,202 423,199 426,197 427,195 429,194 430,193 432,192 433,191 435,189 436,188 438,187 440,186 441,186 443,185 444,184 446,184 447,183 449,183 450,183 452,183 453,183 454,183 455,184 457,184 458,185 459,186 459,187 460,189 461,190 462,192 462,194 463,196 463,199 463,202 463,205 463,208 463,211 463,215 462,218 462,222 462,225 461,228 460,231 460,235 459,238 458,241 458,245 457,248 455,251 454,255 453,258 452,261 450,264 449,267 447,270 445,273 444,276 442,279 440,282 437,285 435,287 433,290 430,293 427,295 425,297 422,300 418,302 421,300 424,299 427,298 429,296 432,295 434,294 436,293 439,291 441,290 443,289 446,288 448,287 451,285 454,284 457,282 460,281 463,279 466,278 470,276 474,274 476,273 479,272 481,271 484,270 486,269 489,268 492,267 494,266 497,265 500,265 503,264 505,264 508,263 511,263 513,263 516,263 518,264 520,264 522,265 525,265 526,266 528,268 530,269 532,271 532,272 533,274 534,275 534,277 534,279 533,280 533,282 532,284 531,286 530,288 529,290 528,292 527,294 525,296 524,298 522,300 520,302 518,304 517,305 515,307 511,311 508,314 505,317 502,320 499,322 497,324 495,325 494,326 492,328 490,329 487,331 483,334 480,336 476,338 473,340 469,342 466,345 462,347 459,349 455,351 452,353 448,356 447,357 445,358 443,360 442,361 443,361 445,361 447,361 449,361 451,361 452,361 454,361 456,361 458,361 460,361 462,362 464,362 466,362 467,363 469,363 471,364 473,364 475,365 477,365 479,366 481,366 482,367 484,368 486,368 488,369 489,370 491,370 493,371 494,372 496,373 497,374 499,374 500,375 501,376 502,377 503,377 504,378 504,379 505,380 505,381 506,382 506,383 507,385 507,386 507,387 507,388 507,389 507,390 507,392 507,393 507,394 507,395 507,397 506,398 506,399 505,400 505,401 504,402 503,403 502,404 502,405 501,406 500,407 499,408 498,409 497,409 496,410 495,410 494,411 493,411 492,412 491,412 489,413 487,414 485,414 483,415 481,415 479,416 477,416 475,416 470,416 466,417 465,417 463,417 462,417 461,417 460,418 459,418 458,418 457,419 457,419 456,420 456,420 456,421 456,422 456,422 456,423 456,423 456,424 456,425 456,426 457,426 458,428 458,430 460,433 462,437 463,438 463,439 464,440 464,441 465,442 465,443 465,444 465,445 465,446 466,448 466,449 466,450 466,451 465,452 465,453 465,454 465,456 465,457 464,458 464,459 464,460 463,461 463,462 462,463 462,464 461,465 460,466 460,467 459,468 458,469 457,470 456,470 455,472 453,473 451,474 449,474 447,475 445,475 443,475 440,475 438,474 436,474 433,473 431,472 429,471 426,470 424,469 422,468 419,467 417,465 415,464 412,463 410,461 408,460 406,458 404,457 400,454 396,451 393,449 390,447 390,450 391,454 392,457 393,461 393,463 394,465 394,467 394,468 394,470 394,472 394,474 394,476 394,478 394,479 394,481 393,483 393,484 392,486 391,487 390,489 389,490 388,491 387,493 385,494 384,495 382,496 380,497 378,497 375,498 373,498 371,499 368,499 366,499 363,499 361,499 358,498 356,498 353,497 350,496 348,496 345,495 343,494 340,493 338,491 335,490 333,489 330,488 328,486 326,485 323,483 321,482 319,480 317,479 315,477 313,475 311,474 309,472 307,471 306,469 304,467 302,465 299,463 297,460 295,458 292,455 290,452 288,450 286,447 284,444 282,441 280,438 279,435 277,432 275,429 274,426 272,423 271,420 269,417 268,414 267,411 266,408 265,404 264,401 263,398 262,395 262,391 261,388 261,384 260,381 260,378 260,374 260,371 "/>
   <polygon class="fil2" points="263,356 267,356 270,356 273,356 277,356 280,355 284,354 287,353 290,352 294,350 297,349 300,347 304,345 307,342 310,340 313,338 317,335 320,333 323,330 326,327 328,324 331,322 334,319 337,316 339,313 341,310 344,308 346,305 348,302 350,300 352,297 353,295 355,292 359,286 363,280 367,274 371,267 375,261 379,255 383,249 388,242 390,239 392,236 394,233 397,230 399,227 401,224 404,221 406,218 408,215 411,213 413,210 416,207 418,204 421,202 423,199 426,197 427,195 429,194 430,193 432,192 433,191 435,189 436,188 438,187 440,186 441,186 443,185 444,184 446,184 447,183 449,183 450,183 452,183 453,183 454,183 455,184 457,184 458,185 459,186 459,187 460,189 461,190 462,192 462,194 463,196 463,199 463,202 463,205 463,208 463,211 463,215 462,218 462,222 462,225 461,228 460,231 460,235 459,238 458,241 458,245 457,248 455,251 454,255 453,258 452,261 450,264 449,267 447,270 445,273 444,276 442,279 440,282 437,285 435,287 433,290 430,293 427,295 425,297 422,300 418,302 421,300 424,299 427,298 429,296 432,295 434,294 436,293 439,291 441,290 443,289 446,288 448,287 451,285 454,284 457,282 460,281 463,279 466,278 470,276 474,274 476,273 479,272 481,271 484,270 486,269 489,268 492,267 494,266 497,265 500,265 503,264 505,264 508,263 511,263 513,263 516,263 518,264 520,264 522,265 525,265 526,266 528,268 530,269 532,271 532,272 533,274 534,275 534,277 534,279 533,280 533,282 532,284 531,286 530,288 529,290 528,292 527,294 525,296 524,298 522,300 520,302 518,304 517,305 515,307 511,311 508,314 505,317 502,320 499,322 497,324 495,325 494,326 492,328 490,329 487,331 483,334 480,336 476,338 473,340 469,342 466,345 462,347 459,349 455,351 452,353 448,356 447,357 445,358 443,360 442,361 443,361 445,361 447,361 449,361 451,361 452,361 454,361 456,361 458,361 460,361 462,362 464,362 466,362 467,363 469,363 471,364 473,364 475,365 477,365 479,366 481,366 482,367 484,368 486,368 488,369 489,370 491,370 493,371 494,372 496,373 497,374 499,374 500,375 501,376 502,377 503,377 504,378 504,379 505,380 505,381 506,382 506,383 507,385 507,386 507,387 507,388 507,389 507,390 507,392 507,393 507,394 507,395 507,397 506,398 506,399 505,400 505,401 504,402 503,403 502,404 502,405 501,406 500,407 499,408 498,409 497,409 496,410 495,410 494,411 493,411 492,412 491,412 489,413 487,414 485,414 483,415 481,415 479,416 477,416 475,416 470,416 466,417 465,417 463,417 462,417 461,417 460,418 459,418 458,418 457,419 457,419 456,420 456,420 456,421 456,422 456,422 456,423 456,423 456,424 456,425 456,426 457,426 458,428 458,430 460,433 462,437 463,438 463,439 464,440 464,441 465,442 465,443 465,444 465,445 465,446 466,448 466,449 466,450 466,451 465,452 465,453 465,454 465,456 465,457 464,458 464,459 464,460 463,461 463,462 462,463 462,464 461,465 460,466 460,467 459,468 458,469 457,470 456,470 455,472 453,473 451,474 449,474 447,475 445,475 443,475 440,475 438,474 436,474 433,473 431,472 429,471 426,470 424,469 422,468 419,467 417,465 415,464 412,463 410,461 408,460 406,458 404,457 400,454 396,451 393,449 390,447 390,450 391,454 392,457 393,461 393,463 394,465 394,467 394,468 394,470 394,472 394,474 394,476 394,478 394,479 394,481 393,483 393,484 392,486 391,487 390,489 389,490 388,491 387,493 385,494 384,495 382,496 380,497 378,497 375,498 373,498 371,499 368,499 366,499 363,499 361,499 358,498 356,498 353,497 350,496 348,496 345,495 343,494 340,493 338,491 335,490 333,489 330,488 328,486 326,485 323,483 321,482 319,480 317,479 315,477 313,475 311,474 309,472 307,471 306,469 304,467 302,465 299,463 297,460 295,458 292,455 290,452 288,450 286,447 284,444 282,441 280,438 279,435 277,432 275,429 274,426 272,423 271,420 269,417 268,414 267,411 266,408 265,404 264,401 263,398 262,395 262,391 261,388 261,384 260,381 260,378 260,374 260,371 "/>
   <polygon class="fil2" points="532,271 530,269 528,268 526,266 525,265 522,265 520,264 518,264 516,263 513,263 511,263 508,263 505,264 503,264 500,265 497,265 494,266 492,267 489,268 486,269 484,270 481,271 479,272 476,273 474,274 470,276 466,278 463,279 460,281 457,282 454,284 451,285 448,287 446,288 443,289 441,290 439,291 436,293 434,294 432,295 429,296 427,298 424,299 421,300 418,302 422,300 425,297 427,295 430,293 433,290 435,287 437,285 440,282 442,279 444,276 445,273 447,270 449,267 450,264 452,261 453,258 454,255 455,251 457,248 458,245 458,241 459,238 460,235 460,231 461,228 462,225 462,222 462,218 463,215 463,211 463,208 463,205 463,202 463,199 463,196 462,194 462,192 461,190 460,189 459,187 459,186 458,185 457,184 455,184 454,183 453,183 452,183 450,183 449,183 447,183 446,184 444,184 443,185 441,186 440,186 438,187 436,188 435,189 433,191 432,192 430,193 429,194 427,195 426,197 423,199 421,202 418,204 416,207 413,210 411,213 408,215 406,218 404,221 401,224 399,227 397,230 394,233 392,236 390,239 388,242 383,249 379,255 375,261 371,267 367,274 363,280 359,286 355,292 354,294 352,296 351,298 349,301 347,303 346,305 344,307 342,310 341,313 340,315 339,318 338,321 337,323 336,326 335,329 334,331 332,334 331,336 330,338 329,339 328,340 327,341 326,342 325,343 325,344 324,345 323,346 322,347 321,348 320,349 321,349 322,349 324,349 325,349 327,349 329,348 330,348 332,348 333,347 335,347 336,346 338,346 340,345 341,344 343,344 344,343 347,341 351,340 353,338 356,336 359,335 362,333 365,331 367,329 368,329 368,328 368,328 369,327 369,327 370,327 370,326 371,326 370,327 369,328 368,328 367,329 366,330 366,331 365,332 365,333 364,335 363,337 362,339 361,341 360,343 359,345 358,347 356,349 355,351 354,353 352,355 351,356 349,358 348,360 346,361 345,363 343,364 341,365 339,367 337,368 335,369 333,371 337,371 341,371 346,371 350,372 356,372 361,372 363,372 366,372 369,372 371,372 374,372 376,372 379,371 382,371 384,371 386,370 389,370 391,369 393,369 396,368 398,367 400,366 402,365 403,364 405,363 407,362 405,363 403,365 401,367 400,368 397,372 394,375 393,377 391,378 389,380 388,381 386,383 384,384 383,385 382,386 381,386 380,387 378,388 376,390 373,391 371,392 369,393 367,394 364,394 362,395 360,396 358,397 355,397 353,398 348,399 343,400 344,401 345,401 346,402 347,403 349,403 350,404 351,404 352,405 354,405 355,406 356,406 358,407 359,407 361,408 362,408 364,408 365,409 367,409 368,409 370,409 371,409 373,410 374,410 376,410 377,410 378,410 380,410 381,410 382,410 384,409 385,409 386,409 385,410 383,411 382,412 380,413 379,414 378,415 376,416 375,417 374,418 373,418 371,419 370,419 369,420 367,420 366,421 365,421 363,421 362,422 361,422 359,422 358,422 357,422 355,422 354,422 352,422 351,421 349,421 348,421 346,421 344,420 343,420 341,419 341,421 341,422 341,424 341,426 341,427 341,429 341,430 342,432 342,434 342,435 343,437 343,438 343,440 344,442 345,443 345,445 346,448 348,451 349,454 350,457 352,460 353,463 355,465 357,468 356,467 356,467 355,466 354,465 352,463 350,460 347,458 345,455 342,453 339,450 337,449 336,448 334,446 333,445 331,444 330,443 329,443 327,442 326,441 325,441 324,440 323,440 322,440 321,440 320,440 320,441 319,442 318,443 318,444 318,445 318,446 318,448 318,449 318,451 318,452 319,454 319,455 320,457 321,459 322,460 322,462 323,464 324,466 325,467 326,469 327,471 330,474 332,477 334,479 335,482 336,483 337,484 338,484 338,485 336,484 333,484 330,483 327,482 324,480 321,479 317,478 314,476 315,477 317,479 319,480 321,481 323,483 325,484 326,485 328,486 330,487 332,489 334,490 336,491 338,492 341,493 343,494 345,494 347,495 349,496 351,497 353,497 355,498 357,498 359,498 361,499 364,499 366,499 368,499 370,499 372,499 374,498 376,498 378,497 380,497 382,496 384,495 385,494 387,493 388,491 389,490 390,489 391,487 392,486 393,484 393,483 394,481 394,479 394,478 394,476 394,474 394,472 394,470 394,468 394,467 394,465 393,463 393,461 392,457 391,454 390,450 390,447 393,449 396,451 400,454 404,457 406,458 408,460 410,461 412,463 415,464 417,465 419,467 422,468 424,469 426,470 429,471 431,472 433,473 436,474 438,474 440,475 443,475 445,475 447,475 449,474 451,474 453,473 455,472 456,470 457,470 458,469 459,468 460,467 460,466 461,465 462,464 462,463 463,462 463,461 464,460 464,459 464,458 465,457 465,456 465,454 465,453 465,452 466,451 466,450 466,449 466,448 465,446 465,445 465,444 465,443 465,442 464,441 464,440 463,439 463,438 462,437 460,433 458,430 458,428 457,426 456,426 456,425 456,424 456,423 456,423 456,422 456,422 456,421 456,420 456,420 457,419 457,419 458,418 459,418 460,418 461,417 462,417 463,417 465,417 466,417 470,416 475,416 477,416 479,416 481,415 483,415 485,414 487,414 489,413 491,412 492,412 493,411 494,411 495,410 496,410 497,409 498,409 499,408 500,407 501,406 502,405 502,404 503,403 504,402 505,401 505,400 506,399 506,398 507,397 507,395 507,394 507,393 507,392 507,390 507,389 507,388 507,387 507,386 507,385 506,383 506,382 505,381 505,380 504,379 504,378 503,377 502,377 501,376 500,375 499,374 497,374 496,373 494,372 493,371 491,370 489,370 488,369 486,368 484,368 482,367 481,366 479,366 477,365 475,365 473,364 471,364 469,363 467,363 466,362 464,362 462,362 460,361 458,361 456,361 454,361 452,361 451,361 449,361 447,361 445,361 443,361 442,361 443,360 445,358 447,357 448,356 452,353 455,351 459,349 462,347 466,345 469,342 473,340 476,338 480,336 483,334 487,331 490,329 492,328 494,326 495,325 497,324 499,322 502,320 505,317 508,314 511,311 515,307 517,305 518,304 520,302 522,300 524,298 525,296 527,294 528,292 529,290 530,288 531,286 532,284 533,282 533,280 534,279 534,277 534,275 533,274 532,272 "/>
   <polygon class="fil9" points="333,371 335,369 337,368 339,367 341,365 343,364 345,363 346,361 348,360 349,358 351,356 352,355 354,353 355,351 356,349 358,347 359,345 360,343 361,341 362,339 363,337 364,335 365,333 365,332 366,331 366,330 367,329 365,331 362,333 359,335 356,336 353,338 351,340 347,341 344,343 343,344 341,344 340,345 338,346 336,346 335,347 333,347 332,348 330,348 329,348 327,349 325,349 324,349 322,349 321,349 320,349 321,348 322,347 323,346 324,345 325,344 325,343 326,342 327,341 328,340 329,339 330,338 331,336 332,334 334,331 335,329 336,326 337,323 338,321 339,318 340,315 341,313 342,310 339,313 335,317 334,319 332,321 330,323 328,325 326,327 324,328 322,330 320,332 318,334 316,335 314,337 312,339 310,340 308,342 306,343 304,345 301,346 299,347 297,349 295,350 292,351 290,352 288,353 286,354 283,354 281,355 279,355 277,356 275,356 273,356 272,356 270,356 268,356 267,356 265,356 263,356 260,371 260,374 260,377 260,380 260,383 261,386 261,389 262,392 262,395 263,398 264,401 265,404 266,406 266,409 268,412 269,415 270,418 271,421 273,425 275,428 276,431 278,435 280,438 282,441 284,444 287,447 289,450 291,453 294,456 296,459 299,462 301,465 304,467 305,469 306,470 307,471 309,472 310,473 311,474 313,475 314,476 317,478 321,479 324,480 327,482 330,483 333,484 336,484 338,485 338,484 337,484 336,483 335,482 334,479 332,477 330,474 327,471 326,469 325,467 324,466 323,464 322,462 322,460 321,459 320,457 319,455 319,454 318,452 318,451 318,449 318,448 318,446 318,445 318,444 318,443 319,442 320,441 320,440 321,440 322,440 323,440 324,440 325,441 326,441 327,442 329,443 330,443 331,444 333,445 334,446 336,448 337,449 339,450 342,453 345,455 347,458 350,460 352,463 354,465 355,466 356,467 356,467 357,468 355,465 353,463 352,460 350,457 349,454 348,451 346,448 345,445 345,443 344,442 343,440 343,438 343,437 342,435 342,434 342,432 341,430 341,429 341,427 341,426 341,424 341,422 341,421 341,419 343,420 344,420 346,421 348,421 349,421 351,421 352,422 354,422 355,422 357,422 358,422 359,422 361,422 362,422 363,421 365,421 366,421 367,420 369,420 370,419 371,419 373,418 374,418 375,417 376,416 378,415 379,414 380,413 382,412 383,411 385,410 386,409 385,409 384,409 382,410 381,410 380,410 378,410 377,410 376,410 374,410 373,410 371,409 370,409 368,409 367,409 365,409 364,408 362,408 361,408 359,407 358,407 356,406 355,406 354,405 352,405 351,404 350,404 349,403 347,403 346,402 345,401 344,401 343,400 348,399 353,398 355,397 358,397 360,396 362,395 364,394 367,394 369,393 371,392 373,391 376,390 378,388 380,387 381,386 382,386 383,385 384,384 386,383 388,381 389,380 391,378 393,377 394,375 397,372 400,368 401,367 403,365 405,363 407,362 405,363 403,364 402,365 400,366 398,367 396,368 393,369 391,369 389,370 386,370 384,371 382,371 379,371 376,372 374,372 371,372 369,372 366,372 363,372 361,372 356,372 350,372 346,371 341,371 337,371 "/>
   <polygon class="fil5" points="260,370 259,373 259,376 259,379 259,382 259,385 260,389 260,392 261,395 261,398 262,402 263,405 264,408 265,411 266,415 267,418 268,421 270,425 271,428 273,431 275,434 277,437 278,440 280,444 282,447 285,450 287,453 289,456 292,459 294,461 297,464 299,467 302,470 303,471 305,473 307,474 309,476 310,477 312,479 314,481 317,482 319,484 321,485 323,487 326,488 328,490 331,491 333,493 336,494 338,495 341,496 344,497 346,498 349,499 352,500 355,501 357,501 360,502 363,502 365,502 368,502 371,502 373,501 376,501 379,500 380,500 381,499 382,499 384,498 385,498 386,497 387,496 388,496 389,495 389,494 390,494 391,493 392,492 392,491 393,490 393,490 394,489 394,488 395,487 395,486 396,485 396,484 396,483 396,482 397,481 397,480 397,479 397,478 397,476 397,474 397,472 397,471 397,470 397,468 396,465 395,461 394,458 393,455 392,452 392,449 392,450 393,450 396,452 400,455 403,458 407,460 409,462 412,463 414,464 416,466 418,467 420,468 422,469 425,470 427,471 429,472 431,473 433,474 436,474 438,475 440,475 442,475 444,475 446,475 448,475 450,474 452,474 454,473 455,472 457,470 455,471 453,472 451,472 449,473 447,473 445,473 443,473 441,473 439,472 437,472 435,472 433,471 431,470 429,469 427,469 426,468 424,467 422,466 420,465 418,464 416,462 415,461 413,460 411,459 408,456 405,454 402,452 399,449 385,439 387,447 387,451 388,455 389,459 390,462 391,466 391,468 391,470 391,471 391,473 392,475 392,476 391,478 391,479 391,481 391,482 391,484 390,485 390,486 389,488 388,489 388,490 387,491 386,492 385,493 383,494 382,494 381,495 379,496 378,496 375,497 373,497 371,498 369,498 367,498 365,498 362,497 360,497 358,496 355,496 353,495 351,494 348,493 346,493 343,492 341,490 339,489 336,488 334,487 331,485 329,484 327,482 325,481 322,479 320,477 318,476 316,474 314,472 312,471 310,469 308,467 306,465 304,463 301,460 299,457 296,455 294,452 292,449 289,446 287,444 285,441 283,438 281,435 279,432 278,429 276,426 274,423 273,420 271,417 270,414 269,411 267,407 266,404 265,401 264,398 263,395 263,392 262,389 261,385 261,382 260,379 260,376 260,373 "/>
   <polygon class="fil7" points="464,389 464,389 465,389 465,389 466,390 466,390 467,390 467,391 468,391 468,392 469,393 469,393 470,394 470,395 470,396 471,397 471,398 471,398 472,399 472,400 472,402 472,402 472,404 472,405 472,406 472,407 472,408 472,409 472,409 471,410 471,411 471,412 470,413 474,413 477,412 479,412 481,412 482,412 484,411 486,411 487,410 489,410 491,409 492,408 494,407 494,407 495,407 496,406 497,405 497,405 498,404 499,403 500,402 500,402 501,401 501,400 502,399 502,398 503,397 503,396 503,395 504,394 504,393 504,392 504,391 504,390 504,389 504,388 504,387 503,386 503,385 503,384 502,383 502,382 501,381 501,380 500,379 499,379 498,378 498,377 497,377 495,376 493,375 491,374 489,373 486,372 484,371 482,370 480,370 480,370 480,371 480,372 480,373 480,373 480,374 480,375 480,376 480,376 479,377 479,378 479,379 478,379 478,380 477,381 476,381 476,382 475,383 474,384 474,384 473,385 472,385 471,386 471,386 470,387 469,387 468,388 467,388 466,389 465,389 464,389 "/>
   <polygon class="fil7" points="433,445 433,447 432,449 432,451 431,453 431,454 430,455 430,457 429,457 429,458 429,458 428,459 428,459 428,460 427,460 427,460 426,461 425,461 424,461 423,462 422,462 421,462 420,462 419,462 418,462 420,463 422,465 425,466 427,467 428,468 430,468 431,469 432,469 433,470 434,470 436,471 437,471 438,471 439,471 440,471 441,472 443,472 444,472 445,472 446,471 447,471 448,471 449,471 450,470 451,470 452,469 453,469 454,468 454,467 455,467 456,466 456,465 457,464 458,464 458,463 459,462 459,461 459,460 460,459 460,458 460,457 461,456 461,455 461,455 461,454 461,453 461,452 461,451 461,450 461,449 461,448 461,447 461,446 461,445 461,444 460,443 460,442 460,441 459,440 459,440 459,439 458,439 458,438 458,438 457,438 457,439 456,440 456,441 455,441 455,442 454,443 453,443 453,444 452,445 451,445 451,446 450,446 449,446 448,447 447,447 447,447 446,448 445,448 444,448 443,448 442,448 441,448 440,448 440,448 439,447 438,447 437,447 436,446 435,446 434,445 "/>
   <polygon class="fil7" points="419,236 420,235 422,234 423,233 425,232 426,231 427,231 427,231 428,230 429,230 430,230 431,230 432,230 432,230 433,231 433,232 433,233 433,234 433,235 433,236 433,237 433,238 433,238 433,239 432,240 432,241 432,242 432,243 431,243 433,242 434,241 435,240 436,240 438,239 439,239 440,239 441,239 442,239 443,239 443,240 444,240 445,240 445,241 446,242 446,243 447,244 447,245 447,246 448,247 448,248 448,249 448,251 448,252 448,253 448,255 448,256 448,258 447,259 447,260 447,262 446,263 447,262 448,260 449,258 450,257 450,255 451,253 452,252 452,250 453,248 454,246 454,245 455,243 456,239 456,236 457,232 458,229 458,225 459,222 459,218 459,214 459,211 459,207 459,205 459,202 459,200 459,198 458,196 458,194 457,193 456,192 456,191 455,190 454,189 453,189 452,188 451,188 450,188 448,188 447,188 446,188 444,189 443,189 442,190 440,190 439,191 438,192 436,193 435,194 434,195 432,196 431,197 430,198 428,199 427,200 425,202 423,205 420,207 418,209 416,211 414,214 412,216 410,219 411,218 411,218 412,218 413,218 414,218 415,218 416,218 417,218 417,219 418,219 418,219 419,220 419,220 420,220 420,221 420,222 420,222 421,223 421,223 421,224 421,225 421,225 421,226 421,227 421,228 420,230 420,233 "/>
   <polygon class="fil7" points="525,274 524,273 523,271 522,270 520,270 519,269 517,268 516,268 514,267 512,267 511,267 509,267 507,267 505,267 503,267 501,267 499,268 497,268 495,269 493,269 491,270 489,270 487,271 485,272 483,272 479,274 476,275 472,277 469,278 471,279 472,279 473,279 473,280 474,280 475,280 475,281 476,281 476,282 477,282 477,283 478,283 478,284 478,284 478,285 479,286 479,286 479,287 479,288 479,288 479,289 479,289 479,290 479,290 479,291 478,291 478,292 477,293 477,293 476,294 475,295 474,296 473,297 473,297 472,298 471,299 473,299 474,299 475,299 476,299 477,300 478,300 479,300 480,301 481,301 481,302 482,302 482,302 483,303 483,304 483,304 484,305 484,305 484,306 484,307 483,307 483,308 483,309 483,309 482,310 482,311 481,312 480,312 480,313 479,314 478,315 477,315 476,316 477,317 477,317 478,317 478,318 479,318 479,319 480,319 480,320 480,320 481,321 481,321 481,322 481,322 481,323 481,324 481,324 481,325 481,325 481,326 480,327 480,328 479,329 479,331 478,332 477,333 476,334 478,333 481,331 483,330 485,328 488,327 490,325 492,323 494,321 496,320 498,318 501,315 504,313 507,310 510,307 512,305 514,303 515,302 517,300 518,298 520,296 521,294 522,293 523,291 524,289 525,287 526,286 527,284 527,282 527,281 527,279 527,278 527,276 526,275 "/>
   <polygon class="fil2" points="299,254 301,254 304,253 306,252 308,252 310,251 312,250 313,249 315,248 317,247 319,246 320,244 322,243 324,242 325,240 326,239 328,237 330,233 333,229 335,225 336,220 337,215 338,210 339,204 339,199 339,193 338,187 338,182 337,176 335,170 333,164 331,159 329,153 327,148 324,143 321,138 318,134 314,130 311,126 307,122 303,119 298,117 294,115 289,114 284,113 279,112 274,113 269,114 263,116 260,117 257,119 253,120 250,122 247,124 244,127 241,129 238,132 235,135 232,138 229,141 227,144 224,147 222,151 219,154 217,158 215,161 213,165 211,169 210,173 208,176 207,180 206,184 206,188 205,192 205,196 205,199 205,203 205,207 206,211 207,214 208,218 210,220 211,223 213,225 214,228 216,230 218,232 221,234 223,236 225,238 228,240 231,242 233,244 236,245 239,247 242,248 246,249 249,251 252,252 256,253 259,253 262,254 266,255 269,255 273,256 276,256 279,256 283,256 286,256 290,256 293,255 296,255 "/>
   <polygon class="fil2" points="217,170 216,170 214,170 213,170 212,170 210,170 207,169 205,169 202,169 200,169 198,169 196,169 195,169 194,169 193,170 192,170 191,170 190,171 189,171 188,172 187,172 186,173 185,174 184,175 183,176 182,177 182,178 184,178 187,178 188,178 189,178 191,178 192,178 193,178 194,178 196,178 197,179 198,179 199,180 199,180 200,181 200,181 201,181 200,181 199,182 199,182 198,182 197,182 196,183 196,183 195,183 194,184 194,184 193,185 193,185 191,186 190,188 189,189 188,190 187,192 187,193 185,196 183,199 184,198 185,198 186,198 187,198 189,197 191,196 193,195 195,195 197,194 199,193 199,194 198,194 197,195 196,195 195,196 195,197 194,198 193,198 193,199 192,200 191,201 191,201 190,202 190,203 189,204 189,205 188,206 188,207 187,208 187,209 186,210 186,211 186,212 185,213 185,214 185,215 185,216 185,217 185,218 184,219 184,220 184,220 189,217 193,214 195,213 197,211 199,210 201,209 202,208 203,207 204,207 205,206 206,206 207,206 209,205 210,205 211,204 212,204 213,204 215,204 216,204 217,204 219,204 220,204 "/>
   <polygon class="fil8" points="342,90 342,90 341,90 341,90 341,90 340,89 340,89 340,89 340,89 340,88 340,88 340,88 340,87 340,87 341,86 341,86 341,86 342,85 343,84 344,83 345,81 346,80 348,79 350,78 351,77 354,75 356,74 358,72 360,70 361,70 362,69 363,68 364,67 365,66 365,66 366,65 367,64 367,63 368,62 369,61 369,60 369,59 370,58 370,57 370,56 370,54 370,53 370,52 370,51 369,49 369,48 368,46 368,45 367,43 366,41 365,40 364,39 363,37 362,36 361,35 360,34 359,33 357,32 356,32 355,31 354,31 352,30 351,30 349,30 348,30 347,30 345,30 344,30 342,30 341,31 339,31 338,32 337,32 335,33 334,34 332,35 331,36 330,37 328,38 327,39 326,40 326,40 325,41 325,42 324,44 323,45 322,47 322,48 320,52 319,55 317,59 316,63 314,67 313,71 311,74 310,77 309,80 308,82 307,82 307,83 307,83 307,83 305,83 303,82 302,81 300,79 299,78 298,76 297,75 296,73 294,70 293,68 293,66 292,63 291,61 290,58 289,56 288,53 287,48 285,42 285,40 284,37 283,34 282,32 281,29 280,27 279,25 278,23 277,21 276,19 275,17 274,15 272,13 270,12 268,10 265,8 263,7 260,5 258,4 255,3 252,2 249,2 247,1 244,0 241,0 238,0 235,0 232,0 229,0 226,1 223,2 220,2 218,3 215,5 212,6 210,7 208,9 205,11 203,13 201,15 200,18 198,20 197,23 195,26 194,32 192,37 192,42 192,46 193,50 195,54 197,58 199,61 202,64 205,67 209,70 213,72 217,74 221,77 225,79 230,81 238,85 247,89 251,91 255,93 259,95 262,97 265,100 268,102 271,105 272,108 274,111 274,115 275,118 274,123 276,120 277,118 279,117 281,116 283,115 284,115 286,115 288,115 290,116 293,117 295,118 297,119 299,120 301,122 303,124 305,125 307,127 309,129 312,132 314,134 317,138 321,142 324,146 328,150 329,151 330,153 331,154 332,155 335,157 337,158 340,160 342,160 345,161 347,162 349,162 352,162 354,161 356,161 358,160 360,159 361,158 363,157 365,155 366,154 367,152 368,151 369,149 370,147 370,145 371,144 371,142 371,140 371,139 370,137 370,136 369,134 368,133 366,132 365,131 363,130 364,131 366,131 368,131 369,131 370,131 372,131 373,131 374,130 375,130 377,129 378,128 379,128 380,127 380,126 381,125 382,124 383,122 383,121 384,120 384,119 385,117 385,116 386,114 386,113 386,112 386,110 386,109 386,107 386,106 386,105 386,103 385,102 385,100 384,99 384,97 383,96 382,95 382,94 381,93 380,92 379,91 378,90 378,90 377,89 376,89 375,88 374,88 373,88 372,88 371,87 370,87 368,87 367,87 366,88 365,88 364,88 358,89 353,90 351,90 349,90 348,90 346,91 345,91 344,91 343,91 "/>
   <polygon class="fil10" points="359,124 360,126 361,128 361,129 362,130 362,131 363,132 363,133 363,134 364,135 364,136 364,137 364,138 364,139 363,141 363,141 363,142 362,142 362,143 362,144 361,144 361,145 360,145 360,146 359,146 359,146 358,147 358,147 357,147 357,148 356,148 355,148 354,149 352,149 351,149 350,149 348,149 347,149 346,149 344,148 342,148 340,147 339,146 337,145 336,144 334,142 333,141 331,139 330,137 329,136 327,134 325,130 322,127 321,125 319,123 318,121 317,120 315,118 314,116 313,115 311,114 310,112 308,111 306,111 305,110 303,109 301,109 299,109 297,109 299,108 301,107 302,106 304,105 305,104 307,103 308,102 310,102 309,101 308,101 307,101 306,101 305,100 303,100 301,100 300,100 298,101 297,101 295,101 294,102 292,102 291,103 288,104 285,105 284,103 284,100 284,98 284,96 284,93 284,91 284,88 284,86 283,88 282,91 282,93 281,95 280,98 279,100 279,102 278,104 277,102 277,100 276,98 275,96 274,94 273,92 272,91 271,89 269,88 268,87 266,86 264,85 263,84 261,83 259,82 257,81 255,80 253,79 251,79 249,78 244,77 240,76 238,75 236,74 234,74 232,73 230,72 228,71 226,71 224,70 223,69 222,68 221,68 220,67 219,66 218,65 217,65 215,64 214,63 213,62 213,61 212,60 211,59 210,58 209,57 208,56 207,54 207,53 206,52 205,51 205,50 204,48 204,47 203,46 203,45 202,43 202,42 202,41 202,40 201,38 201,37 201,36 201,35 201,34 202,33 202,32 202,30 203,28 203,26 204,24 205,21 206,19 207,17 208,15 209,13 210,11 212,9 213,7 214,6 215,6 216,5 216,4 215,5 213,6 211,7 210,8 208,9 207,10 205,11 204,12 203,14 201,15 200,17 199,19 198,20 197,22 196,24 195,26 194,32 192,37 192,42 192,46 193,50 195,54 197,58 199,61 202,64 205,67 209,70 213,72 217,74 221,77 225,79 230,81 238,85 247,89 251,91 255,93 259,95 262,97 265,100 268,102 271,105 272,108 274,111 274,115 275,118 274,123 276,120 277,118 279,117 281,116 283,115 284,115 286,115 288,115 290,116 293,117 295,118 297,119 299,120 301,122 303,124 305,125 307,127 309,129 312,132 314,134 317,138 321,142 324,146 328,150 329,151 330,153 331,154 332,155 335,157 337,158 340,160 342,160 345,161 347,162 349,162 352,162 354,161 356,161 358,160 360,159 361,158 363,157 365,155 366,154 367,152 368,151 369,149 370,147 370,145 371,144 371,142 371,140 371,139 370,137 370,136 369,134 368,133 366,132 365,131 363,130 364,131 366,131 367,131 369,131 370,131 371,131 373,131 374,130 375,130 376,129 377,129 378,128 379,127 380,126 381,125 381,124 382,123 383,122 383,121 384,120 384,118 385,117 385,116 386,115 386,113 386,112 386,110 386,109 386,108 386,106 386,105 386,104 385,106 384,109 384,110 383,112 383,113 382,114 382,115 381,116 380,118 380,118 379,119 378,120 378,121 377,122 376,123 375,124 374,124 373,125 372,125 371,126 370,126 369,126 368,126 367,126 365,126 364,126 363,126 362,125 360,125 "/>
   <polygon class="fil11" points="284,186 284,186 284,187 283,188 283,188 283,189 283,189 282,190 282,190 281,191 281,191 280,191 280,192 279,192 279,192 278,192 277,192 277,192 276,192 275,192 275,192 274,191 274,191 273,191 273,190 272,190 272,189 272,189 271,188 271,188 271,187 271,186 271,186 271,185 271,184 271,184 271,183 272,183 272,182 272,182 273,181 273,181 274,180 274,180 275,180 275,179 276,179 277,179 277,179 278,179 279,179 279,179 280,180 280,180 281,180 281,181 282,181 282,182 283,182 283,183 283,183 283,184 284,184 284,185 "/>
   <polygon class="fil11" points="233,170 233,171 233,171 233,172 233,172 232,173 232,173 232,174 231,174 231,175 230,175 230,176 229,176 229,176 228,176 227,176 227,176 226,176 225,176 225,176 224,176 224,176 223,175 223,175 222,174 222,174 221,173 221,173 221,172 221,172 220,171 220,171 220,170 220,169 220,169 221,168 221,167 221,167 221,166 222,166 222,165 223,165 223,165 224,164 224,164 225,164 225,164 226,163 227,163 227,163 228,164 229,164 229,164 230,164 230,165 231,165 231,165 232,166 232,166 232,167 233,167 233,168 233,169 233,169 "/>
   <polygon class="fil2" points="255,120 255,120 254,120 253,120 252,120 251,119 250,119 250,119 249,119 248,119 247,119 246,120 245,120 244,120 242,120 240,121 239,122 237,122 236,123 234,124 233,125 232,126 231,127 232,127 234,127 235,127 237,127 238,127 240,128 241,128 241,128 242,128 243,129 241,129 239,130 237,130 236,131 234,132 232,132 231,133 229,134 228,135 226,136 225,137 224,138 222,139 221,140 219,141 218,142 219,143 219,143 220,143 221,143 222,144 222,144 223,144 224,144 225,144 226,144 226,144 227,144 229,143 231,143 229,144 227,144 226,145 224,146 222,147 221,148 219,149 217,150 216,150 216,151 215,151 214,152 213,152 213,153 212,154 212,155 211,155 211,156 210,157 210,158 210,159 209,160 209,161 209,162 210,162 210,162 211,163 212,163 212,163 213,163 214,163 214,163 215,163 216,163 216,163 217,163 218,162 218,162 219,162 220,161 "/>
   <polygon class="fil2" points="332,201 333,201 334,201 335,202 336,202 337,202 338,203 339,203 340,204 340,204 341,205 342,205 342,206 343,207 343,207 344,208 344,209 344,210 345,210 345,211 345,212 346,214 346,216 347,219 348,223 347,223 346,222 345,222 343,221 342,221 340,221 339,221 338,221 339,222 340,223 340,225 341,226 342,227 342,229 342,230 343,231 343,233 343,234 343,236 343,237 343,240 343,244 341,243 340,242 339,241 337,241 336,240 334,239 334,239 333,238 332,238 331,238 332,238 332,238 332,239 333,239 333,240 333,240 333,241 334,242 334,242 334,243 334,244 334,244 334,246 334,247 334,249 334,250 333,251 333,253 332,254 332,255 331,256 330,257 330,256 329,255 328,254 327,253 326,252 325,250 324,249 323,248 323,249 324,250 324,251 324,252 324,254 324,255 324,256 324,257 324,258 323,259 323,260 322,261 322,262 321,263 321,264 320,264 320,263 319,261 318,260 317,258 316,257 315,255 314,254 313,253 311,252 310,251 309,250 309,250 308,249 307,249 306,248 306,248 305,248 304,247 303,247 302,247 301,247 301,247 "/>
   <polygon class="fil3" points="174,349 172,351 171,352 170,353 169,354 166,357 163,359 160,361 157,364 155,366 152,368 149,371 146,374 142,377 139,380 136,384 133,387 130,390 127,394 124,397 121,401 118,404 115,408 112,411 110,415 107,418 105,422 103,424 102,427 101,429 100,431 99,433 99,434 99,436 99,437 99,438 99,439 100,440 100,440 101,441 102,441 103,442 104,442 105,442 107,442 108,442 110,442 111,441 113,441 114,441 116,440 120,440 123,439 127,438 130,437 131,439 132,441 132,443 133,445 134,448 134,450 135,452 136,454 136,456 137,458 138,459 138,459 139,460 139,461 140,462 141,463 141,464 142,464 143,465 144,466 144,466 145,467 146,468 147,468 149,469 150,469 151,469 152,470 153,470 154,470 155,470 156,470 157,470 158,470 159,470 160,470 161,469 162,469 163,469 164,468 165,468 165,467 166,467 167,466 168,465 168,465 169,464 170,463 170,462 171,461 171,460 171,459 172,458 172,457 173,459 175,460 176,462 178,463 180,464 182,465 184,466 186,467 189,468 191,469 193,469 196,470 198,470 200,471 203,471 205,471 207,471 210,470 212,470 214,469 216,468 218,468 220,466 221,465 223,464 224,462 225,460 226,458 227,456 227,454 227,451 227,449 228,451 230,453 231,454 233,456 235,457 238,459 240,460 242,461 245,462 247,463 250,463 252,464 255,464 258,464 260,464 263,464 265,463 268,463 270,462 272,461 274,460 276,459 278,458 279,456 280,454 281,452 282,450 282,448 282,445 282,443 281,440 280,437 286,438 291,438 294,439 296,439 298,439 299,439 300,439 301,439 303,439 304,438 305,438 306,438 307,437 308,437 309,436 310,436 311,435 312,434 313,433 314,432 315,431 316,430 316,429 317,427 318,426 318,424 318,422 319,420 319,418 319,417 319,415 319,413 319,412 318,410 318,408 317,407 317,405 316,404 315,402 314,401 314,399 313,398 312,396 311,395 310,393 308,392 307,391 306,389 305,388 303,387 302,386 301,385 299,383 298,382 297,381 295,380 291,377 287,374 285,373 282,371 280,370 278,369 275,367 273,366 271,365 268,364 267,363 266,363 265,362 263,362 262,362 261,361 260,361 259,361 "/>
   <polygon class="fil6" points="148,384 149,383 151,382 153,382 154,381 156,381 158,380 159,380 160,380 160,380 161,380 161,381 160,383 160,385 160,386 160,388 160,389 160,391 160,393 160,394 160,396 160,397 160,399 160,401 161,402 161,404 162,405 165,404 168,402 170,401 172,401 174,400 176,399 177,398 179,397 181,396 182,395 184,393 185,392 186,392 186,391 187,391 187,390 190,392 192,395 195,397 198,399 199,401 200,402 202,403 203,404 205,405 207,406 208,406 210,407 209,404 208,401 207,398 206,394 205,393 205,391 204,389 204,388 204,386 204,384 204,384 204,383 204,382 204,381 207,383 210,384 213,385 216,387 219,388 222,389 225,390 228,391 231,392 234,393 237,394 240,395 243,395 246,396 249,397 252,398 250,396 248,394 247,393 246,393 245,392 244,391 243,390 242,389 241,388 240,386 240,386 239,385 239,385 239,384 238,384 238,383 238,382 238,382 240,383 242,385 244,386 246,388 247,388 249,389 250,390 251,390 252,391 254,392 255,392 256,393 257,393 259,394 260,394 261,394 263,395 264,395 265,395 267,395 268,396 269,396 271,396 272,396 273,396 274,396 276,395 277,395 276,394 276,393 275,392 275,391 274,389 272,387 271,385 269,383 269,382 268,381 268,380 267,379 269,380 271,381 273,382 275,383 277,383 279,384 282,385 284,386 287,386 289,387 292,387 294,387 297,388 299,388 301,388 302,388 303,388 304,388 303,387 302,386 301,385 300,384 299,383 298,382 296,381 295,380 291,377 287,374 285,373 282,371 280,370 278,369 275,367 273,366 271,365 268,364 267,363 266,363 265,362 263,362 262,362 261,361 260,361 259,361 178,350 177,350 177,351 176,351 174,352 173,353 172,354 170,356 168,358 166,360 164,362 162,364 160,366 159,368 157,370 155,372 154,375 152,377 151,379 149,381 "/>
   <polygon class="fil2" points="286,378 286,377 287,377 287,376 287,375 288,374 288,373 288,373 288,372 288,371 288,370 287,370 287,369 287,368 286,367 286,366 285,366 284,364 283,363 282,361 281,360 278,358 276,356 274,354 273,353 272,352 270,350 269,349 268,348 267,347 267,346 266,345 266,344 265,344 265,343 265,342 265,341 264,341 264,340 264,338 264,336 263,334 263,332 263,330 263,328 263,326 264,324 264,322 264,320 264,318 265,316 265,314 266,312 266,310 267,308 268,304 269,300 270,296 271,292 273,288 274,284 274,282 275,280 275,278 276,276 276,274 276,272 277,270 277,268 277,267 277,265 277,264 277,263 277,262 277,261 277,259 276,258 276,257 276,256 276,254 275,253 275,252 274,251 274,250 273,249 273,248 272,247 271,246 271,245 270,245 269,244 268,244 267,243 266,243 265,243 264,243 263,243 262,243 260,244 259,244 258,245 257,245 256,246 255,246 255,247 254,247 253,248 253,249 252,249 251,251 249,253 248,254 247,256 245,260 242,264 241,265 240,267 239,269 238,270 235,275 232,279 229,283 226,287 223,291 220,295 217,299 214,303 213,305 212,307 210,308 209,310 207,311 206,313 204,314 203,315 199,318 196,321 195,322 193,323 192,325 190,326 186,329 183,333 179,336 176,339 172,343 168,346 165,349 161,353 160,353 159,355 158,356 157,358 156,359 155,359 155,360 155,361 154,361 154,362 154,362 154,362 154,363 154,363 154,363 155,364 155,364 155,364 156,365 156,365 157,365 157,365 158,365 159,365 160,365 160,365 161,365 162,365 164,365 166,364 167,364 169,363 171,363 173,362 174,361 175,361 176,360 177,360 176,362 175,364 174,365 174,367 173,369 172,371 172,373 172,375 171,377 171,379 171,381 171,383 171,385 172,387 172,390 172,392 173,392 174,392 175,391 177,391 178,391 179,391 180,390 181,390 181,389 182,389 183,388 184,387 185,386 186,386 186,385 187,384 189,382 190,381 191,379 193,377 194,375 196,373 197,372 199,370 199,371 199,372 199,373 199,375 200,376 200,377 200,378 201,379 201,380 202,380 202,381 203,382 204,383 204,384 205,385 206,385 207,386 207,387 208,388 209,388 210,389 211,390 212,390 213,391 215,392 217,393 219,394 221,395 221,391 221,388 221,384 221,381 221,378 221,374 221,371 222,367 223,369 225,370 227,372 229,373 231,375 233,376 235,377 238,379 239,379 240,380 241,380 242,381 243,381 245,382 246,382 247,383 248,383 249,383 251,383 252,383 253,384 254,384 255,384 256,383 256,383 256,382 256,381 256,380 256,378 256,376 256,374 255,372 255,371 255,370 255,369 254,368 256,369 257,370 259,371 260,373 263,374 265,375 266,376 267,376 268,377 269,378 271,378 272,378 273,379 274,379 275,380 276,380 278,380 279,380 280,380 281,380 282,380 283,380 283,380 284,379 285,379 "/>
   <polygon class="fil2" points="283,618 284,619 285,620 286,621 287,622 288,623 289,624 290,625 292,626 293,627 294,627 296,628 297,628 299,629 300,629 302,629 303,629 305,630 306,630 308,630 310,630 311,630 313,630 314,629 316,629 318,629 319,629 321,628 322,628 323,627 325,627 326,626 328,626 329,625 331,624 333,623 334,622 335,621 336,620 337,619 338,618 339,616 340,615 340,614 341,613 341,612 342,610 342,609 342,608 342,606 342,605 342,604 342,602 342,599 342,596 341,593 341,590 341,586 341,583 "/>
   <polygon class="fil8" points="245,254 246,254 247,254 247,254 248,254 248,254 249,254 250,254 250,255 251,255 251,255 251,256 252,257 252,257 253,258 253,259 253,259 254,261 254,263 255,264 255,266 255,267 255,268 255,269 255,270 255,271 255,272 255,273 255,273 254,275 254,276 253,277 253,279 252,280 251,281 250,283 248,286 247,287 247,288 246,289 245,291 245,293 244,295 243,297 243,300 242,302 242,304 241,306 241,309 241,311 240,313 240,316 240,318 240,319 240,321 240,322 240,323 240,324 241,325 241,326 241,328 241,329 242,330 242,331 243,332 243,333 244,334 244,335 245,336 246,337 246,338 247,339 248,339 249,340 250,341 251,342 252,342 254,343 255,344 257,345 259,345 260,345 262,346 264,346 266,346 267,346 269,346 271,346 272,346 274,346 276,345 277,345 279,345 280,344 282,343 283,343 285,342 286,341 288,340 289,339 291,338 292,337 293,336 295,335 296,333 297,332 298,331 299,329 300,328 301,326 302,325 302,324 303,323 303,322 304,321 304,320 305,319 305,317 305,316 306,315 306,314 307,312 307,310 307,307 307,305 307,302 307,300 307,298 307,295 307,293 307,290 306,287 305,283 305,281 304,278 304,276 303,274 302,271 302,269 301,267 300,264 299,262 298,260 297,257 296,255 295,253 293,251 292,249 291,248 289,246 288,245 286,244 284,242 282,242 280,241 278,241 276,241 274,241 272,241 270,242 267,243 266,243 264,245 260,247 256,248 252,251 249,252 246,254 "/>
   <polygon class="fil10" points="307,290 306,287 305,283 305,281 304,278 304,276 303,274 302,271 302,269 301,267 300,264 299,262 298,260 297,257 296,255 295,253 293,251 292,249 291,248 289,246 288,245 286,244 284,242 282,242 280,241 278,241 276,241 274,241 272,241 270,242 267,243 266,243 264,245 260,247 256,248 252,251 249,252 246,254 245,254 246,254 247,254 247,254 248,254 248,254 249,254 250,254 250,255 251,255 251,255 251,256 252,257 252,257 253,258 253,259 253,259 254,261 254,263 255,264 255,266 255,267 255,268 255,269 255,270 255,271 255,271 256,271 257,270 258,270 259,269 260,269 260,268 261,268 262,268 264,267 266,267 268,266 269,266 271,266 272,266 273,266 274,266 275,266 276,266 277,267 278,267 279,267 280,267 281,268 282,268 283,269 283,269 284,270 285,271 286,271 286,272 287,273 288,273 288,274 289,275 290,276 290,277 291,277 291,278 292,279 292,280 293,282 294,284 294,285 295,287 295,288 295,289 295,290 296,291 296,293 296,294 296,295 296,296 296,297 296,299 296,301 296,304 296,306 295,309 295,311 294,314 294,315 293,316 293,317 292,318 292,319 291,321 291,322 290,323 290,324 289,325 288,327 287,328 286,329 286,330 285,332 284,333 283,334 282,335 281,337 280,338 279,339 278,340 277,341 276,342 274,343 273,344 271,345 270,346 271,346 272,346 273,346 274,346 275,345 277,345 278,345 279,345 280,344 281,344 282,343 283,343 284,342 285,342 286,341 287,341 288,340 289,339 290,339 291,338 291,337 292,337 293,336 294,335 295,334 296,333 296,332 297,331 298,331 299,330 299,329 300,328 301,326 302,325 302,324 303,323 303,322 304,321 304,320 305,319 305,317 305,316 306,315 306,314 307,312 307,310 307,307 307,305 307,302 307,300 307,298 307,295 307,293 "/>
   <polygon class="fil8" points="191,252 188,253 185,254 182,256 179,257 177,259 174,262 172,264 170,267 168,270 167,273 165,276 164,279 163,282 162,285 161,289 161,292 161,295 161,298 161,302 162,305 162,307 163,310 165,313 166,315 168,317 170,319 173,320 175,321 178,322 181,323 185,323 189,322 192,322 195,321 197,320 199,318 201,317 203,315 204,313 206,311 207,309 207,306 208,304 209,301 209,298 210,296 210,293 210,290 211,284 211,278 211,275 211,272 211,269 211,266 211,264 212,261 212,259 213,256 213,254 214,252 215,250 216,249 "/>
   <polygon class="fil10" points="191,252 189,253 187,253 186,254 184,254 183,255 181,256 180,257 178,258 177,259 176,260 175,261 173,263 172,264 171,265 170,267 169,268 168,271 167,273 167,275 166,277 166,278 166,280 166,281 166,282 165,283 165,284 165,285 165,286 165,288 166,291 166,293 167,295 167,296 168,298 169,299 170,301 171,302 172,303 173,304 174,305 176,306 177,307 179,307 180,308 182,308 184,308 185,308 187,308 189,308 191,308 193,308 194,307 196,307 198,307 200,306 202,305 204,305 205,304 207,303 209,302 209,300 209,298 210,297 210,295 210,291 210,287 211,284 211,280 211,276 211,272 211,269 211,265 211,264 212,262 212,260 212,259 213,257 213,256 213,255 214,253 214,252 215,251 216,250 216,249 "/>
   <polygon class="fil12" points="216,189 217,188 220,187 222,186 225,185 228,184 231,183 232,183 234,183 235,182 237,182 239,182 240,181 242,181 243,181 245,181 246,181 248,181 249,181 251,181 252,181 253,182 254,182 255,183 256,183 257,184 258,185 260,187 261,188 262,190 263,191 264,193 265,195 267,197 268,199 269,201 270,203 271,205 272,207 273,210 274,212 275,214 276,217 277,219 278,222 279,224 279,226 280,229 280,231 281,233 281,235 281,238 281,240 281,242 281,244 281,246 280,248 279,250 278,251 276,253 274,255 271,257 269,259 266,261 262,263 259,264 255,266 252,268 248,269 244,271 239,272 235,274 231,275 227,277 222,278 218,279 213,280 209,282 205,283 201,284 197,284 193,285 189,286 185,286 182,287 179,287 176,288 176,287 176,284 177,280 177,275 178,272 178,269 179,265 179,262 180,258 181,254 182,250 183,246 184,242 185,238 187,233 188,229 190,225 191,221 193,217 195,213 197,209 199,206 202,202 204,199 207,196 209,193 212,191 "/>
   <polygon class="fil12" points="257,237 259,240 262,243 264,246 267,248 269,250 272,251 275,252 278,253 280,253 283,253 286,253 288,253 291,252 294,251 296,250 298,249 300,247 302,245 304,243 305,241 306,239 307,237 308,235 308,232 309,230 308,227 308,225 307,222 305,219 304,217 301,214 299,211 298,210 297,210 296,209 295,208 294,207 293,207 292,207 291,206 290,206 289,206 288,205 287,205 285,205 283,205 279,204 275,204 273,204 272,204 271,204 270,204 269,203 268,203 266,203 265,202 "/>
   <polygon class="fil12" points="215,191 214,188 213,186 212,185 210,184 209,183 207,183 206,183 204,184 203,185 202,186 200,187 199,189 198,190 197,192 196,194 195,196 195,199 194,201 194,203 194,205 194,207 194,209 195,211 196,213 197,215 198,216 200,217 202,218 204,219 207,219 210,219 214,219 "/>
   <polygon class="fil0" points="289,228 289,230 288,232 287,234 286,236 284,238 283,240 282,241 280,243 279,244 277,246 275,247 273,248 272,249 270,251 268,252 266,253 265,254 263,255 261,255 260,256 257,257 254,258 250,260 248,260 248,260 248,260 247,261 247,261 247,261 246,261 246,262 246,262 246,262 246,263 245,263 245,264 245,264 245,264 245,265 245,265 246,266 246,266 246,266 246,267 246,267 247,267 247,267 247,268 248,268 248,268 248,268 249,268 249,268 250,268 250,268 250,268 251,268 252,267 255,267 257,266 259,265 260,265 262,264 264,263 266,262 267,261 269,260 271,259 273,258 275,257 277,256 279,254 281,253 283,251 285,249 287,248 288,246 290,244 291,242 293,240 294,238 295,235 296,233 297,230 297,230 297,230 297,229 297,229 297,228 297,228 297,228 297,227 297,227 296,227 296,226 296,226 296,226 295,226 295,225 294,225 294,225 294,225 293,225 293,225 292,225 292,225 292,225 291,226 291,226 291,226 290,226 290,227 290,227 290,227 289,228 "/>
   <polygon class="fil5" points="186,500 184,501 181,503 180,504 179,504 177,505 176,505 175,506 173,506 172,507 170,507 169,507 167,507 166,507 164,507 163,507 163,507 162,507 161,507 160,507 159,506 158,505 156,505 155,504 154,503 153,503 152,502 150,501 149,501 148,500 147,500 146,500 146,500 145,499 145,499 144,500 144,500 143,500 142,500 141,501 139,502 137,503 136,504 135,504 134,505 133,505 133,505 132,505 131,505 130,505 129,505 128,505 127,505 126,505 125,505 124,505 123,505 122,505 121,505 121,504 120,504 119,504 118,503 117,503 117,502 116,502 115,501 115,501 114,500 113,500 113,499 112,499 112,498 111,497 111,497 110,496 110,495 110,494 109,494 109,492 108,490 108,489 107,487 107,486 107,484 107,482 107,481 107,479 107,481 106,483 106,485 106,487 105,489 105,491 105,493 105,495 105,496 105,497 105,498 105,498 105,499 105,500 106,501 106,502 106,503 107,504 107,505 108,506 108,507 109,507 110,508 111,509 111,510 112,510 113,511 114,512 115,512 116,513 117,513 119,514 120,514 121,515 122,515 123,515 125,515 126,515 127,516 128,516 129,516 131,516 132,516 133,515 134,515 135,515 136,514 138,514 139,514 140,513 141,512 142,512 142,511 143,510 144,509 145,508 147,509 149,510 152,511 154,512 156,513 157,513 158,514 160,514 161,515 163,515 164,515 166,515 167,515 168,516 170,515 171,515 173,515 174,515 175,515 176,514 178,514 179,513 180,512 181,511 182,510 183,509 183,508 184,506 185,507 187,508 188,509 189,509 191,510 192,510 192,510 193,510 194,510 194,510 195,510 196,510 196,510 197,510 198,510 198,510 199,510 199,509 200,509 201,509 201,508 202,508 202,507 203,507 203,506 204,505 203,506 203,506 202,507 202,507 201,507 201,507 200,507 199,508 199,508 198,508 197,508 197,508 196,507 195,507 195,507 194,507 193,507 193,506 192,506 191,506 191,505 190,505 190,505 189,504 189,504 188,503 188,503 187,502 187,502 187,501 186,500 "/>
   <polygon class="fil5" points="353,517 353,519 353,520 353,521 352,522 352,523 352,524 352,525 351,526 351,527 350,528 349,529 349,529 348,530 347,531 346,531 346,532 345,532 344,533 343,533 342,534 341,534 340,534 339,534 338,534 337,534 336,534 335,534 334,534 333,534 332,533 331,533 330,532 329,533 329,535 328,536 328,537 327,537 327,538 326,539 325,539 325,540 324,540 323,540 323,540 322,541 321,541 321,541 320,541 318,540 317,540 315,540 313,539 312,539 310,539 309,539 308,539 307,539 306,539 305,540 305,542 304,543 303,544 302,545 302,546 301,547 300,548 298,548 297,549 296,549 295,550 294,550 292,550 291,550 290,550 288,550 287,550 286,550 284,550 283,549 282,549 280,548 279,548 278,547 277,546 276,545 275,545 274,544 273,543 272,542 271,541 272,542 272,543 273,545 273,546 274,547 275,548 276,549 277,550 278,551 279,551 280,552 281,553 283,553 284,554 286,554 288,555 289,555 291,556 293,556 295,556 296,556 298,556 299,556 300,556 301,556 302,556 303,556 304,555 305,555 305,555 306,554 307,554 308,554 308,553 309,553 309,552 310,551 310,550 310,550 311,549 311,548 311,547 312,547 312,548 313,548 314,548 315,549 315,549 316,549 317,549 318,549 319,549 320,550 320,550 321,550 322,549 323,549 324,549 324,549 325,549 326,549 327,548 327,548 328,548 329,547 329,547 330,546 330,546 331,545 331,545 332,544 332,543 332,542 333,542 333,542 334,542 334,542 335,542 335,543 336,543 336,543 337,543 338,543 340,543 341,542 342,542 344,542 345,541 346,541 347,540 348,539 349,539 350,538 351,537 352,536 352,535 353,534 353,533 354,531 354,530 354,529 354,527 354,526 354,525 354,523 354,522 354,521 353,520 353,519 "/>
   <polygon class="fil5" points="181,573 180,575 178,576 178,577 177,578 177,579 176,579 176,580 175,580 175,580 175,580 174,581 174,581 173,581 173,581 172,581 172,581 170,581 169,581 168,580 167,580 166,580 165,579 165,579 164,578 163,578 163,577 162,576 161,575 160,574 160,573 159,572 158,572 158,573 157,574 157,575 156,576 155,577 154,578 153,578 152,578 151,579 149,579 148,579 146,579 145,579 143,578 142,578 141,577 139,577 138,576 136,575 135,574 134,573 133,572 132,571 131,570 130,568 130,567 129,565 129,564 129,562 129,561 129,559 130,557 129,559 128,560 128,562 127,563 127,564 126,566 126,567 126,569 125,569 125,570 125,571 125,572 125,572 126,573 126,574 126,574 126,575 126,576 127,577 127,577 127,578 128,579 128,579 129,580 129,581 130,581 131,582 131,583 132,583 133,584 134,584 135,585 136,585 137,586 138,586 139,587 140,587 141,587 142,587 143,588 145,588 146,588 147,588 148,588 149,588 150,588 151,587 152,587 153,587 154,586 155,586 155,585 156,585 157,584 157,583 158,582 158,583 159,584 159,585 160,586 161,587 161,588 162,589 163,589 164,590 164,590 165,590 166,591 167,591 168,591 168,591 169,591 170,591 171,591 172,591 173,591 174,590 175,590 175,590 176,589 177,589 178,588 179,588 180,587 180,586 181,585 182,585 183,584 184,585 185,586 186,587 187,588 188,588 189,589 190,590 191,590 192,590 192,591 193,591 193,591 194,591 195,591 195,591 196,591 197,591 197,591 198,591 199,591 199,590 200,590 201,590 201,590 202,589 203,589 204,588 204,588 205,588 205,587 206,587 206,586 207,586 207,585 207,585 208,584 208,583 209,582 209,581 209,579 209,578 210,577 210,574 211,571 210,573 209,574 209,575 208,576 207,577 206,578 206,579 205,580 204,581 203,581 202,582 201,582 200,582 199,583 198,583 197,583 196,583 195,583 194,583 193,582 192,582 191,582 190,581 189,581 188,580 187,579 186,578 185,577 184,576 183,575 182,574 "/>
   <polygon class="fil5" points="275,610 275,611 274,612 273,613 273,614 272,615 271,616 270,616 269,616 268,616 267,616 266,616 265,616 264,616 263,616 261,615 260,615 259,614 258,613 258,613 257,612 256,611 255,610 255,610 254,609 254,608 254,607 254,606 254,605 254,605 254,604 255,603 256,602 256,601 255,603 254,604 253,606 253,607 253,608 252,608 252,609 252,610 252,610 252,611 252,612 252,612 252,613 252,614 252,614 252,615 252,615 253,616 253,616 253,617 254,618 254,618 255,619 256,619 256,620 257,620 258,621 259,621 259,621 260,621 261,622 262,622 264,622 265,622 266,622 268,622 269,622 271,622 271,621 272,621 272,621 273,621 273,621 273,620 274,620 274,620 274,619 274,619 273,618 273,618 274,619 274,619 274,620 275,620 275,620 276,621 276,621 277,621 277,622 278,622 278,622 279,622 279,622 280,622 280,623 281,623 281,623 282,622 282,622 283,622 283,622 284,622 284,622 285,621 285,621 285,621 286,620 286,620 287,620 287,619 288,619 288,618 288,618 287,618 287,618 286,619 286,619 285,619 285,618 284,618 283,618 282,618 281,617 280,617 279,616 278,615 277,615 277,614 277,614 276,614 276,613 276,613 275,612 275,612 275,611 275,611 275,610 "/>
   <polygon class="fil13" points="188,265 188,265 190,262 192,258 195,253 199,247 203,241 206,237 208,233 211,230 214,226 216,222 219,219 222,215 225,211 228,208 231,205 234,201 237,199 239,196 242,193 245,191 248,189 251,188 253,186 256,186 258,185 257,184 256,183 255,183 254,182 253,182 252,181 251,181 251,181 250,181 250,181 250,181 249,182 248,182 247,182 246,183 245,184 243,184 242,185 240,186 238,188 236,189 234,191 232,193 230,195 228,197 225,199 223,202 220,205 218,208 215,212 213,216 210,220 207,224 204,229 202,234 199,240 196,246 193,252 191,258 "/>
   <polygon class="fil5" points="288,122 288,123 287,123 287,124 287,125 288,127 288,130 288,133 288,136 289,138 289,139 289,140 289,141 288,140 288,139 287,138 287,137 286,136 284,134 283,132 282,130 282,129 281,129 281,128 281,127 280,129 279,131 278,133 277,135 277,136 276,137 276,138 276,140 276,141 276,142 276,143 276,144 275,143 275,142 275,141 275,140 274,138 273,136 273,135 272,134 272,133 272,132 272,131 271,130 271,128 271,127 271,128 270,128 269,129 269,129 268,130 268,131 267,131 267,132 266,134 265,135 265,136 264,138 264,136 264,134 265,132 265,130 265,129 266,127 266,125 266,123 265,123 264,124 262,124 261,124 259,125 258,125 257,126 256,126 256,126 257,125 258,124 258,123 259,123 260,122 261,122 262,121 263,121 264,120 264,120 265,119 266,119 267,119 268,119 269,119 269,124 275,122 275,130 279,121 285,129 "/>
  </g>
 </g>
</svg>
